M48
; DRILL file {KiCad (5.1.5-0-10_14)} date Wednesday, 20 May 2020 at 06:57:24 pm
; FORMAT={-:-/ absolute / metric / decimal}
; #@! TF.CreationDate,2020-05-20T18:57:24+12:00
; #@! TF.GenerationSoftware,Kicad,Pcbnew,(5.1.5-0-10_14)
; #@! TF.FileFunction,Plated,1,4,PTH
FMAT,2
METRIC
T1C0.200
%
G90
G05
T1
X56.2Y-72.0
X57.2Y-72.0
X58.2Y-72.0
X60.65Y-51.75
X60.65Y-52.25
X60.7Y-46.5
X60.7Y-47.5
X60.7Y-48.5
X60.7Y-49.5
X60.7Y-50.5
X60.7Y-53.2
X60.7Y-57.5
X60.7Y-58.5
X60.7Y-59.5
X60.7Y-60.5
X60.7Y-61.5
X60.7Y-62.5
X60.7Y-63.5
X60.7Y-64.5
X60.7Y-65.5
X60.7Y-66.5
X60.7Y-67.5
X60.9Y-56.8
X63.2Y-49.4
X64.4Y-56.0
X64.4Y-58.0
X64.43Y-56.97
X64.5Y-53.3
X64.5Y-55.0
X65.2Y-51.4
X65.2Y-63.1
X65.4Y-55.0
X66.8Y-58.0
X66.8Y-63.4
X67.9Y-52.3
X67.9Y-55.3
X68.2Y-59.7
X69.8Y-49.0
X70.4Y-62.1
X70.9Y-52.3
X70.9Y-55.3
X71.4Y-62.1
X72.1Y-50.9
X73.4Y-49.1
X73.5Y-52.7
X73.5Y-56.8
X74.0Y-52.2
X74.5Y-52.7
X75.2Y-55.9
X83.0Y-79.3
X83.1Y-57.3
X85.9Y-51.0
T0
M30
