G04 #@! TF.GenerationSoftware,KiCad,Pcbnew,(5.1.5-0-10_14)*
G04 #@! TF.CreationDate,2020-05-20T18:56:31+12:00*
G04 #@! TF.ProjectId,bluetooth-tracker,626c7565-746f-46f7-9468-2d747261636b,A*
G04 #@! TF.SameCoordinates,Original*
G04 #@! TF.FileFunction,Copper,L2,Inr*
G04 #@! TF.FilePolarity,Positive*
%FSLAX46Y46*%
G04 Gerber Fmt 4.6, Leading zero omitted, Abs format (unit mm)*
G04 Created by KiCad (PCBNEW (5.1.5-0-10_14)) date 2020-05-20 18:56:31*
%MOMM*%
%LPD*%
G04 APERTURE LIST*
%ADD10C,0.100000*%
%ADD11C,0.500000*%
%ADD12C,0.200000*%
G04 APERTURE END LIST*
D10*
X69400000Y-72000000D02*
G75*
G03X69400000Y-72000000I-5000000J0D01*
G01*
X60400000Y-46000001D02*
X85400000Y-46000001D01*
X85399999Y-81000000D02*
X64400000Y-81000000D01*
X90399999Y-76000002D02*
G75*
G02X85399999Y-81000000I-4999999J1D01*
G01*
X90400000Y-51000001D02*
X90400000Y-76000000D01*
X85400000Y-46000001D02*
G75*
G02X90400000Y-51000001I0J-5000000D01*
G01*
X55400001Y-51000001D02*
G75*
G02X60400001Y-46000001I5000000J0D01*
G01*
X55400000Y-71999999D02*
X55400000Y-51000001D01*
X64399999Y-81000000D02*
G75*
G02X55400000Y-71999999I1J9000000D01*
G01*
D11*
X60650000Y-52250000D03*
X60650000Y-51750000D03*
X65200000Y-63100000D03*
X60700000Y-50500000D03*
X67900000Y-55300000D03*
X70900000Y-55300000D03*
X70900000Y-52300000D03*
X67900000Y-52300000D03*
X63200000Y-49400000D03*
X65200000Y-51400000D03*
X72100000Y-50900000D03*
X75200000Y-55900000D03*
X66800000Y-63400000D03*
X64430000Y-56970000D03*
X64400000Y-58000000D03*
X64500000Y-55000000D03*
X73500000Y-52700000D03*
X74500000Y-52700000D03*
X65400000Y-55000000D03*
X60900000Y-56800000D03*
X60700000Y-46500000D03*
X60700000Y-47500000D03*
X60700000Y-48500000D03*
X60700000Y-49500000D03*
X60700000Y-53200000D03*
X60700000Y-57500000D03*
X60700000Y-58500000D03*
X60700000Y-59500000D03*
X60700000Y-60500000D03*
X60700000Y-61500000D03*
X60700000Y-62500000D03*
X60700000Y-63500000D03*
X60700000Y-64500000D03*
X60700000Y-65500000D03*
X60700000Y-66500000D03*
X60700000Y-67500000D03*
X58200000Y-72000000D03*
X57200000Y-72000000D03*
X56200000Y-72000000D03*
X70400000Y-62100000D03*
X71400000Y-62100000D03*
X68200000Y-59700000D03*
X83100000Y-57300000D03*
X85900000Y-51000000D03*
X69800000Y-49000000D03*
X64500000Y-53300000D03*
X64400000Y-56000000D03*
X66800000Y-58000000D03*
X73500000Y-56800000D03*
X74000000Y-52200000D03*
X83000000Y-79300000D03*
X73400000Y-49100000D03*
D12*
G36*
X86223196Y-46424860D02*
G01*
X87020374Y-46642943D01*
X87766337Y-46998750D01*
X88437496Y-47481027D01*
X89012649Y-48074538D01*
X89473606Y-48760515D01*
X89805806Y-49517287D01*
X89999387Y-50323609D01*
X90050000Y-51012834D01*
X90050001Y-75984396D01*
X89975140Y-76823199D01*
X89757057Y-77620376D01*
X89401250Y-78366338D01*
X88918975Y-79037495D01*
X88325462Y-79612650D01*
X87639483Y-80073608D01*
X86882719Y-80405803D01*
X86076391Y-80599387D01*
X85387166Y-80650000D01*
X64411602Y-80650000D01*
X63256080Y-80573249D01*
X62132261Y-80346647D01*
X61048289Y-79973406D01*
X60023194Y-79460077D01*
X59707940Y-79245830D01*
X82450000Y-79245830D01*
X82450000Y-79354170D01*
X82471136Y-79460429D01*
X82512597Y-79560523D01*
X82572787Y-79650604D01*
X82649396Y-79727213D01*
X82739477Y-79787403D01*
X82839571Y-79828864D01*
X82945830Y-79850000D01*
X83054170Y-79850000D01*
X83160429Y-79828864D01*
X83260523Y-79787403D01*
X83350604Y-79727213D01*
X83427213Y-79650604D01*
X83487403Y-79560523D01*
X83528864Y-79460429D01*
X83550000Y-79354170D01*
X83550000Y-79245830D01*
X83528864Y-79139571D01*
X83487403Y-79039477D01*
X83427213Y-78949396D01*
X83350604Y-78872787D01*
X83260523Y-78812597D01*
X83160429Y-78771136D01*
X83054170Y-78750000D01*
X82945830Y-78750000D01*
X82839571Y-78771136D01*
X82739477Y-78812597D01*
X82649396Y-78872787D01*
X82572787Y-78949396D01*
X82512597Y-79039477D01*
X82471136Y-79139571D01*
X82450000Y-79245830D01*
X59707940Y-79245830D01*
X59075004Y-78815686D01*
X58220361Y-78051547D01*
X57474292Y-77181094D01*
X56849895Y-76219606D01*
X56358151Y-75183995D01*
X56007689Y-74092437D01*
X55804348Y-72962302D01*
X55750000Y-71990227D01*
X55750000Y-71800000D01*
X59048000Y-71800000D01*
X59030000Y-72000000D01*
X59116298Y-72958851D01*
X59372419Y-73886883D01*
X59790130Y-74754269D01*
X60356006Y-75533131D01*
X61051860Y-76198435D01*
X61855325Y-76728798D01*
X62740579Y-77107173D01*
X63679167Y-77321400D01*
X64640924Y-77364593D01*
X65594937Y-77235363D01*
X66510544Y-76937864D01*
X67358317Y-76481658D01*
X68111006Y-75881408D01*
X68744421Y-75156407D01*
X69238203Y-74329956D01*
X69576481Y-73428618D01*
X69748382Y-72481363D01*
X69748382Y-71518637D01*
X69576481Y-70571382D01*
X69238203Y-69670044D01*
X68744421Y-68843593D01*
X68111006Y-68118592D01*
X67358317Y-67518342D01*
X66510544Y-67062136D01*
X65594937Y-66764637D01*
X64640924Y-66635407D01*
X63679167Y-66678600D01*
X62740579Y-66892827D01*
X61855325Y-67271202D01*
X61051860Y-67801565D01*
X60500000Y-68329197D01*
X60500000Y-57945830D01*
X66250000Y-57945830D01*
X66250000Y-58054170D01*
X66271136Y-58160429D01*
X66312597Y-58260523D01*
X66372787Y-58350604D01*
X66449396Y-58427213D01*
X66539477Y-58487403D01*
X66639571Y-58528864D01*
X66745830Y-58550000D01*
X66854170Y-58550000D01*
X66960429Y-58528864D01*
X67060523Y-58487403D01*
X67150604Y-58427213D01*
X67227213Y-58350604D01*
X67287403Y-58260523D01*
X67328864Y-58160429D01*
X67350000Y-58054170D01*
X67350000Y-57945830D01*
X67328864Y-57839571D01*
X67287403Y-57739477D01*
X67227213Y-57649396D01*
X67150604Y-57572787D01*
X67060523Y-57512597D01*
X66960429Y-57471136D01*
X66854170Y-57450000D01*
X66745830Y-57450000D01*
X66639571Y-57471136D01*
X66539477Y-57512597D01*
X66449396Y-57572787D01*
X66372787Y-57649396D01*
X66312597Y-57739477D01*
X66271136Y-57839571D01*
X66250000Y-57945830D01*
X60500000Y-57945830D01*
X60500000Y-56745830D01*
X72950000Y-56745830D01*
X72950000Y-56854170D01*
X72971136Y-56960429D01*
X73012597Y-57060523D01*
X73072787Y-57150604D01*
X73149396Y-57227213D01*
X73239477Y-57287403D01*
X73339571Y-57328864D01*
X73445830Y-57350000D01*
X73554170Y-57350000D01*
X73660429Y-57328864D01*
X73760523Y-57287403D01*
X73822741Y-57245830D01*
X82550000Y-57245830D01*
X82550000Y-57354170D01*
X82571136Y-57460429D01*
X82612597Y-57560523D01*
X82672787Y-57650604D01*
X82749396Y-57727213D01*
X82839477Y-57787403D01*
X82939571Y-57828864D01*
X83045830Y-57850000D01*
X83154170Y-57850000D01*
X83260429Y-57828864D01*
X83360523Y-57787403D01*
X83450604Y-57727213D01*
X83527213Y-57650604D01*
X83587403Y-57560523D01*
X83628864Y-57460429D01*
X83650000Y-57354170D01*
X83650000Y-57245830D01*
X83628864Y-57139571D01*
X83587403Y-57039477D01*
X83527213Y-56949396D01*
X83450604Y-56872787D01*
X83360523Y-56812597D01*
X83260429Y-56771136D01*
X83154170Y-56750000D01*
X83045830Y-56750000D01*
X82939571Y-56771136D01*
X82839477Y-56812597D01*
X82749396Y-56872787D01*
X82672787Y-56949396D01*
X82612597Y-57039477D01*
X82571136Y-57139571D01*
X82550000Y-57245830D01*
X73822741Y-57245830D01*
X73850604Y-57227213D01*
X73927213Y-57150604D01*
X73987403Y-57060523D01*
X74028864Y-56960429D01*
X74050000Y-56854170D01*
X74050000Y-56745830D01*
X74028864Y-56639571D01*
X73987403Y-56539477D01*
X73927213Y-56449396D01*
X73850604Y-56372787D01*
X73760523Y-56312597D01*
X73660429Y-56271136D01*
X73554170Y-56250000D01*
X73445830Y-56250000D01*
X73339571Y-56271136D01*
X73239477Y-56312597D01*
X73149396Y-56372787D01*
X73072787Y-56449396D01*
X73012597Y-56539477D01*
X72971136Y-56639571D01*
X72950000Y-56745830D01*
X60500000Y-56745830D01*
X60500000Y-55945830D01*
X63850000Y-55945830D01*
X63850000Y-56054170D01*
X63871136Y-56160429D01*
X63912597Y-56260523D01*
X63972787Y-56350604D01*
X64049396Y-56427213D01*
X64139477Y-56487403D01*
X64239571Y-56528864D01*
X64345830Y-56550000D01*
X64454170Y-56550000D01*
X64560429Y-56528864D01*
X64660523Y-56487403D01*
X64750604Y-56427213D01*
X64827213Y-56350604D01*
X64887403Y-56260523D01*
X64928864Y-56160429D01*
X64950000Y-56054170D01*
X64950000Y-55945830D01*
X64928864Y-55839571D01*
X64887403Y-55739477D01*
X64827213Y-55649396D01*
X64750604Y-55572787D01*
X64660523Y-55512597D01*
X64560429Y-55471136D01*
X64454170Y-55450000D01*
X64345830Y-55450000D01*
X64239571Y-55471136D01*
X64139477Y-55512597D01*
X64049396Y-55572787D01*
X63972787Y-55649396D01*
X63912597Y-55739477D01*
X63871136Y-55839571D01*
X63850000Y-55945830D01*
X60500000Y-55945830D01*
X60500000Y-53245830D01*
X63950000Y-53245830D01*
X63950000Y-53354170D01*
X63971136Y-53460429D01*
X64012597Y-53560523D01*
X64072787Y-53650604D01*
X64149396Y-53727213D01*
X64239477Y-53787403D01*
X64339571Y-53828864D01*
X64445830Y-53850000D01*
X64554170Y-53850000D01*
X64660429Y-53828864D01*
X64760523Y-53787403D01*
X64850604Y-53727213D01*
X64927213Y-53650604D01*
X64987403Y-53560523D01*
X65028864Y-53460429D01*
X65050000Y-53354170D01*
X65050000Y-53245830D01*
X65028864Y-53139571D01*
X64987403Y-53039477D01*
X64927213Y-52949396D01*
X64850604Y-52872787D01*
X64760523Y-52812597D01*
X64660429Y-52771136D01*
X64554170Y-52750000D01*
X64445830Y-52750000D01*
X64339571Y-52771136D01*
X64239477Y-52812597D01*
X64149396Y-52872787D01*
X64072787Y-52949396D01*
X64012597Y-53039477D01*
X63971136Y-53139571D01*
X63950000Y-53245830D01*
X60500000Y-53245830D01*
X60500000Y-52145830D01*
X73450000Y-52145830D01*
X73450000Y-52254170D01*
X73471136Y-52360429D01*
X73512597Y-52460523D01*
X73572787Y-52550604D01*
X73649396Y-52627213D01*
X73739477Y-52687403D01*
X73839571Y-52728864D01*
X73945830Y-52750000D01*
X74054170Y-52750000D01*
X74160429Y-52728864D01*
X74260523Y-52687403D01*
X74350604Y-52627213D01*
X74427213Y-52550604D01*
X74487403Y-52460523D01*
X74528864Y-52360429D01*
X74550000Y-52254170D01*
X74550000Y-52145830D01*
X74528864Y-52039571D01*
X74487403Y-51939477D01*
X74427213Y-51849396D01*
X74350604Y-51772787D01*
X74260523Y-51712597D01*
X74160429Y-51671136D01*
X74054170Y-51650000D01*
X73945830Y-51650000D01*
X73839571Y-51671136D01*
X73739477Y-51712597D01*
X73649396Y-51772787D01*
X73572787Y-51849396D01*
X73512597Y-51939477D01*
X73471136Y-52039571D01*
X73450000Y-52145830D01*
X60500000Y-52145830D01*
X60500000Y-50945830D01*
X85350000Y-50945830D01*
X85350000Y-51054170D01*
X85371136Y-51160429D01*
X85412597Y-51260523D01*
X85472787Y-51350604D01*
X85549396Y-51427213D01*
X85639477Y-51487403D01*
X85739571Y-51528864D01*
X85845830Y-51550000D01*
X85954170Y-51550000D01*
X86060429Y-51528864D01*
X86160523Y-51487403D01*
X86250604Y-51427213D01*
X86327213Y-51350604D01*
X86387403Y-51260523D01*
X86428864Y-51160429D01*
X86450000Y-51054170D01*
X86450000Y-50945830D01*
X86428864Y-50839571D01*
X86387403Y-50739477D01*
X86327213Y-50649396D01*
X86250604Y-50572787D01*
X86160523Y-50512597D01*
X86060429Y-50471136D01*
X85954170Y-50450000D01*
X85845830Y-50450000D01*
X85739571Y-50471136D01*
X85639477Y-50512597D01*
X85549396Y-50572787D01*
X85472787Y-50649396D01*
X85412597Y-50739477D01*
X85371136Y-50839571D01*
X85350000Y-50945830D01*
X60500000Y-50945830D01*
X60500000Y-48945830D01*
X69250000Y-48945830D01*
X69250000Y-49054170D01*
X69271136Y-49160429D01*
X69312597Y-49260523D01*
X69372787Y-49350604D01*
X69449396Y-49427213D01*
X69539477Y-49487403D01*
X69639571Y-49528864D01*
X69745830Y-49550000D01*
X69854170Y-49550000D01*
X69960429Y-49528864D01*
X70060523Y-49487403D01*
X70150604Y-49427213D01*
X70227213Y-49350604D01*
X70287403Y-49260523D01*
X70328864Y-49160429D01*
X70350000Y-49054170D01*
X70350000Y-49045830D01*
X72850000Y-49045830D01*
X72850000Y-49154170D01*
X72871136Y-49260429D01*
X72912597Y-49360523D01*
X72972787Y-49450604D01*
X73049396Y-49527213D01*
X73139477Y-49587403D01*
X73239571Y-49628864D01*
X73345830Y-49650000D01*
X73454170Y-49650000D01*
X73560429Y-49628864D01*
X73660523Y-49587403D01*
X73750604Y-49527213D01*
X73827213Y-49450604D01*
X73887403Y-49360523D01*
X73928864Y-49260429D01*
X73950000Y-49154170D01*
X73950000Y-49045830D01*
X73928864Y-48939571D01*
X73887403Y-48839477D01*
X73827213Y-48749396D01*
X73750604Y-48672787D01*
X73660523Y-48612597D01*
X73560429Y-48571136D01*
X73454170Y-48550000D01*
X73345830Y-48550000D01*
X73239571Y-48571136D01*
X73139477Y-48612597D01*
X73049396Y-48672787D01*
X72972787Y-48749396D01*
X72912597Y-48839477D01*
X72871136Y-48939571D01*
X72850000Y-49045830D01*
X70350000Y-49045830D01*
X70350000Y-48945830D01*
X70328864Y-48839571D01*
X70287403Y-48739477D01*
X70227213Y-48649396D01*
X70150604Y-48572787D01*
X70060523Y-48512597D01*
X69960429Y-48471136D01*
X69854170Y-48450000D01*
X69745830Y-48450000D01*
X69639571Y-48471136D01*
X69539477Y-48512597D01*
X69449396Y-48572787D01*
X69372787Y-48649396D01*
X69312597Y-48739477D01*
X69271136Y-48839571D01*
X69250000Y-48945830D01*
X60500000Y-48945830D01*
X60500000Y-46350001D01*
X85384417Y-46350001D01*
X86223196Y-46424860D01*
G37*
X86223196Y-46424860D02*
X87020374Y-46642943D01*
X87766337Y-46998750D01*
X88437496Y-47481027D01*
X89012649Y-48074538D01*
X89473606Y-48760515D01*
X89805806Y-49517287D01*
X89999387Y-50323609D01*
X90050000Y-51012834D01*
X90050001Y-75984396D01*
X89975140Y-76823199D01*
X89757057Y-77620376D01*
X89401250Y-78366338D01*
X88918975Y-79037495D01*
X88325462Y-79612650D01*
X87639483Y-80073608D01*
X86882719Y-80405803D01*
X86076391Y-80599387D01*
X85387166Y-80650000D01*
X64411602Y-80650000D01*
X63256080Y-80573249D01*
X62132261Y-80346647D01*
X61048289Y-79973406D01*
X60023194Y-79460077D01*
X59707940Y-79245830D01*
X82450000Y-79245830D01*
X82450000Y-79354170D01*
X82471136Y-79460429D01*
X82512597Y-79560523D01*
X82572787Y-79650604D01*
X82649396Y-79727213D01*
X82739477Y-79787403D01*
X82839571Y-79828864D01*
X82945830Y-79850000D01*
X83054170Y-79850000D01*
X83160429Y-79828864D01*
X83260523Y-79787403D01*
X83350604Y-79727213D01*
X83427213Y-79650604D01*
X83487403Y-79560523D01*
X83528864Y-79460429D01*
X83550000Y-79354170D01*
X83550000Y-79245830D01*
X83528864Y-79139571D01*
X83487403Y-79039477D01*
X83427213Y-78949396D01*
X83350604Y-78872787D01*
X83260523Y-78812597D01*
X83160429Y-78771136D01*
X83054170Y-78750000D01*
X82945830Y-78750000D01*
X82839571Y-78771136D01*
X82739477Y-78812597D01*
X82649396Y-78872787D01*
X82572787Y-78949396D01*
X82512597Y-79039477D01*
X82471136Y-79139571D01*
X82450000Y-79245830D01*
X59707940Y-79245830D01*
X59075004Y-78815686D01*
X58220361Y-78051547D01*
X57474292Y-77181094D01*
X56849895Y-76219606D01*
X56358151Y-75183995D01*
X56007689Y-74092437D01*
X55804348Y-72962302D01*
X55750000Y-71990227D01*
X55750000Y-71800000D01*
X59048000Y-71800000D01*
X59030000Y-72000000D01*
X59116298Y-72958851D01*
X59372419Y-73886883D01*
X59790130Y-74754269D01*
X60356006Y-75533131D01*
X61051860Y-76198435D01*
X61855325Y-76728798D01*
X62740579Y-77107173D01*
X63679167Y-77321400D01*
X64640924Y-77364593D01*
X65594937Y-77235363D01*
X66510544Y-76937864D01*
X67358317Y-76481658D01*
X68111006Y-75881408D01*
X68744421Y-75156407D01*
X69238203Y-74329956D01*
X69576481Y-73428618D01*
X69748382Y-72481363D01*
X69748382Y-71518637D01*
X69576481Y-70571382D01*
X69238203Y-69670044D01*
X68744421Y-68843593D01*
X68111006Y-68118592D01*
X67358317Y-67518342D01*
X66510544Y-67062136D01*
X65594937Y-66764637D01*
X64640924Y-66635407D01*
X63679167Y-66678600D01*
X62740579Y-66892827D01*
X61855325Y-67271202D01*
X61051860Y-67801565D01*
X60500000Y-68329197D01*
X60500000Y-57945830D01*
X66250000Y-57945830D01*
X66250000Y-58054170D01*
X66271136Y-58160429D01*
X66312597Y-58260523D01*
X66372787Y-58350604D01*
X66449396Y-58427213D01*
X66539477Y-58487403D01*
X66639571Y-58528864D01*
X66745830Y-58550000D01*
X66854170Y-58550000D01*
X66960429Y-58528864D01*
X67060523Y-58487403D01*
X67150604Y-58427213D01*
X67227213Y-58350604D01*
X67287403Y-58260523D01*
X67328864Y-58160429D01*
X67350000Y-58054170D01*
X67350000Y-57945830D01*
X67328864Y-57839571D01*
X67287403Y-57739477D01*
X67227213Y-57649396D01*
X67150604Y-57572787D01*
X67060523Y-57512597D01*
X66960429Y-57471136D01*
X66854170Y-57450000D01*
X66745830Y-57450000D01*
X66639571Y-57471136D01*
X66539477Y-57512597D01*
X66449396Y-57572787D01*
X66372787Y-57649396D01*
X66312597Y-57739477D01*
X66271136Y-57839571D01*
X66250000Y-57945830D01*
X60500000Y-57945830D01*
X60500000Y-56745830D01*
X72950000Y-56745830D01*
X72950000Y-56854170D01*
X72971136Y-56960429D01*
X73012597Y-57060523D01*
X73072787Y-57150604D01*
X73149396Y-57227213D01*
X73239477Y-57287403D01*
X73339571Y-57328864D01*
X73445830Y-57350000D01*
X73554170Y-57350000D01*
X73660429Y-57328864D01*
X73760523Y-57287403D01*
X73822741Y-57245830D01*
X82550000Y-57245830D01*
X82550000Y-57354170D01*
X82571136Y-57460429D01*
X82612597Y-57560523D01*
X82672787Y-57650604D01*
X82749396Y-57727213D01*
X82839477Y-57787403D01*
X82939571Y-57828864D01*
X83045830Y-57850000D01*
X83154170Y-57850000D01*
X83260429Y-57828864D01*
X83360523Y-57787403D01*
X83450604Y-57727213D01*
X83527213Y-57650604D01*
X83587403Y-57560523D01*
X83628864Y-57460429D01*
X83650000Y-57354170D01*
X83650000Y-57245830D01*
X83628864Y-57139571D01*
X83587403Y-57039477D01*
X83527213Y-56949396D01*
X83450604Y-56872787D01*
X83360523Y-56812597D01*
X83260429Y-56771136D01*
X83154170Y-56750000D01*
X83045830Y-56750000D01*
X82939571Y-56771136D01*
X82839477Y-56812597D01*
X82749396Y-56872787D01*
X82672787Y-56949396D01*
X82612597Y-57039477D01*
X82571136Y-57139571D01*
X82550000Y-57245830D01*
X73822741Y-57245830D01*
X73850604Y-57227213D01*
X73927213Y-57150604D01*
X73987403Y-57060523D01*
X74028864Y-56960429D01*
X74050000Y-56854170D01*
X74050000Y-56745830D01*
X74028864Y-56639571D01*
X73987403Y-56539477D01*
X73927213Y-56449396D01*
X73850604Y-56372787D01*
X73760523Y-56312597D01*
X73660429Y-56271136D01*
X73554170Y-56250000D01*
X73445830Y-56250000D01*
X73339571Y-56271136D01*
X73239477Y-56312597D01*
X73149396Y-56372787D01*
X73072787Y-56449396D01*
X73012597Y-56539477D01*
X72971136Y-56639571D01*
X72950000Y-56745830D01*
X60500000Y-56745830D01*
X60500000Y-55945830D01*
X63850000Y-55945830D01*
X63850000Y-56054170D01*
X63871136Y-56160429D01*
X63912597Y-56260523D01*
X63972787Y-56350604D01*
X64049396Y-56427213D01*
X64139477Y-56487403D01*
X64239571Y-56528864D01*
X64345830Y-56550000D01*
X64454170Y-56550000D01*
X64560429Y-56528864D01*
X64660523Y-56487403D01*
X64750604Y-56427213D01*
X64827213Y-56350604D01*
X64887403Y-56260523D01*
X64928864Y-56160429D01*
X64950000Y-56054170D01*
X64950000Y-55945830D01*
X64928864Y-55839571D01*
X64887403Y-55739477D01*
X64827213Y-55649396D01*
X64750604Y-55572787D01*
X64660523Y-55512597D01*
X64560429Y-55471136D01*
X64454170Y-55450000D01*
X64345830Y-55450000D01*
X64239571Y-55471136D01*
X64139477Y-55512597D01*
X64049396Y-55572787D01*
X63972787Y-55649396D01*
X63912597Y-55739477D01*
X63871136Y-55839571D01*
X63850000Y-55945830D01*
X60500000Y-55945830D01*
X60500000Y-53245830D01*
X63950000Y-53245830D01*
X63950000Y-53354170D01*
X63971136Y-53460429D01*
X64012597Y-53560523D01*
X64072787Y-53650604D01*
X64149396Y-53727213D01*
X64239477Y-53787403D01*
X64339571Y-53828864D01*
X64445830Y-53850000D01*
X64554170Y-53850000D01*
X64660429Y-53828864D01*
X64760523Y-53787403D01*
X64850604Y-53727213D01*
X64927213Y-53650604D01*
X64987403Y-53560523D01*
X65028864Y-53460429D01*
X65050000Y-53354170D01*
X65050000Y-53245830D01*
X65028864Y-53139571D01*
X64987403Y-53039477D01*
X64927213Y-52949396D01*
X64850604Y-52872787D01*
X64760523Y-52812597D01*
X64660429Y-52771136D01*
X64554170Y-52750000D01*
X64445830Y-52750000D01*
X64339571Y-52771136D01*
X64239477Y-52812597D01*
X64149396Y-52872787D01*
X64072787Y-52949396D01*
X64012597Y-53039477D01*
X63971136Y-53139571D01*
X63950000Y-53245830D01*
X60500000Y-53245830D01*
X60500000Y-52145830D01*
X73450000Y-52145830D01*
X73450000Y-52254170D01*
X73471136Y-52360429D01*
X73512597Y-52460523D01*
X73572787Y-52550604D01*
X73649396Y-52627213D01*
X73739477Y-52687403D01*
X73839571Y-52728864D01*
X73945830Y-52750000D01*
X74054170Y-52750000D01*
X74160429Y-52728864D01*
X74260523Y-52687403D01*
X74350604Y-52627213D01*
X74427213Y-52550604D01*
X74487403Y-52460523D01*
X74528864Y-52360429D01*
X74550000Y-52254170D01*
X74550000Y-52145830D01*
X74528864Y-52039571D01*
X74487403Y-51939477D01*
X74427213Y-51849396D01*
X74350604Y-51772787D01*
X74260523Y-51712597D01*
X74160429Y-51671136D01*
X74054170Y-51650000D01*
X73945830Y-51650000D01*
X73839571Y-51671136D01*
X73739477Y-51712597D01*
X73649396Y-51772787D01*
X73572787Y-51849396D01*
X73512597Y-51939477D01*
X73471136Y-52039571D01*
X73450000Y-52145830D01*
X60500000Y-52145830D01*
X60500000Y-50945830D01*
X85350000Y-50945830D01*
X85350000Y-51054170D01*
X85371136Y-51160429D01*
X85412597Y-51260523D01*
X85472787Y-51350604D01*
X85549396Y-51427213D01*
X85639477Y-51487403D01*
X85739571Y-51528864D01*
X85845830Y-51550000D01*
X85954170Y-51550000D01*
X86060429Y-51528864D01*
X86160523Y-51487403D01*
X86250604Y-51427213D01*
X86327213Y-51350604D01*
X86387403Y-51260523D01*
X86428864Y-51160429D01*
X86450000Y-51054170D01*
X86450000Y-50945830D01*
X86428864Y-50839571D01*
X86387403Y-50739477D01*
X86327213Y-50649396D01*
X86250604Y-50572787D01*
X86160523Y-50512597D01*
X86060429Y-50471136D01*
X85954170Y-50450000D01*
X85845830Y-50450000D01*
X85739571Y-50471136D01*
X85639477Y-50512597D01*
X85549396Y-50572787D01*
X85472787Y-50649396D01*
X85412597Y-50739477D01*
X85371136Y-50839571D01*
X85350000Y-50945830D01*
X60500000Y-50945830D01*
X60500000Y-48945830D01*
X69250000Y-48945830D01*
X69250000Y-49054170D01*
X69271136Y-49160429D01*
X69312597Y-49260523D01*
X69372787Y-49350604D01*
X69449396Y-49427213D01*
X69539477Y-49487403D01*
X69639571Y-49528864D01*
X69745830Y-49550000D01*
X69854170Y-49550000D01*
X69960429Y-49528864D01*
X70060523Y-49487403D01*
X70150604Y-49427213D01*
X70227213Y-49350604D01*
X70287403Y-49260523D01*
X70328864Y-49160429D01*
X70350000Y-49054170D01*
X70350000Y-49045830D01*
X72850000Y-49045830D01*
X72850000Y-49154170D01*
X72871136Y-49260429D01*
X72912597Y-49360523D01*
X72972787Y-49450604D01*
X73049396Y-49527213D01*
X73139477Y-49587403D01*
X73239571Y-49628864D01*
X73345830Y-49650000D01*
X73454170Y-49650000D01*
X73560429Y-49628864D01*
X73660523Y-49587403D01*
X73750604Y-49527213D01*
X73827213Y-49450604D01*
X73887403Y-49360523D01*
X73928864Y-49260429D01*
X73950000Y-49154170D01*
X73950000Y-49045830D01*
X73928864Y-48939571D01*
X73887403Y-48839477D01*
X73827213Y-48749396D01*
X73750604Y-48672787D01*
X73660523Y-48612597D01*
X73560429Y-48571136D01*
X73454170Y-48550000D01*
X73345830Y-48550000D01*
X73239571Y-48571136D01*
X73139477Y-48612597D01*
X73049396Y-48672787D01*
X72972787Y-48749396D01*
X72912597Y-48839477D01*
X72871136Y-48939571D01*
X72850000Y-49045830D01*
X70350000Y-49045830D01*
X70350000Y-48945830D01*
X70328864Y-48839571D01*
X70287403Y-48739477D01*
X70227213Y-48649396D01*
X70150604Y-48572787D01*
X70060523Y-48512597D01*
X69960429Y-48471136D01*
X69854170Y-48450000D01*
X69745830Y-48450000D01*
X69639571Y-48471136D01*
X69539477Y-48512597D01*
X69449396Y-48572787D01*
X69372787Y-48649396D01*
X69312597Y-48739477D01*
X69271136Y-48839571D01*
X69250000Y-48945830D01*
X60500000Y-48945830D01*
X60500000Y-46350001D01*
X85384417Y-46350001D01*
X86223196Y-46424860D01*
M02*
