G04 #@! TF.GenerationSoftware,KiCad,Pcbnew,(5.1.5-0-10_14)*
G04 #@! TF.CreationDate,2020-05-20T19:47:04+12:00*
G04 #@! TF.ProjectId,bluetooth-tracker,626c7565-746f-46f7-9468-2d747261636b,A*
G04 #@! TF.SameCoordinates,Original*
G04 #@! TF.FileFunction,Copper,L3,Inr*
G04 #@! TF.FilePolarity,Positive*
%FSLAX46Y46*%
G04 Gerber Fmt 4.6, Leading zero omitted, Abs format (unit mm)*
G04 Created by KiCad (PCBNEW (5.1.5-0-10_14)) date 2020-05-20 19:47:04*
%MOMM*%
%LPD*%
G04 APERTURE LIST*
%ADD10C,0.100000*%
%ADD11C,0.500000*%
%ADD12C,0.200000*%
G04 APERTURE END LIST*
D10*
X69400000Y-72000000D02*
G75*
G03X69400000Y-72000000I-5000000J0D01*
G01*
X60400000Y-46000001D02*
X85400000Y-46000001D01*
X85399999Y-81000000D02*
X64400000Y-81000000D01*
X90399999Y-76000002D02*
G75*
G02X85399999Y-81000000I-4999999J1D01*
G01*
X90400000Y-51000001D02*
X90400000Y-76000000D01*
X85400000Y-46000001D02*
G75*
G02X90400000Y-51000001I0J-5000000D01*
G01*
X55400001Y-51000001D02*
G75*
G02X60400001Y-46000001I5000000J0D01*
G01*
X55400000Y-71999999D02*
X55400000Y-51000001D01*
X64399999Y-81000000D02*
G75*
G02X55400000Y-71999999I1J9000000D01*
G01*
D11*
X60650000Y-52250000D03*
X60650000Y-51750000D03*
X65200000Y-63100000D03*
X60700000Y-50500000D03*
X67900000Y-55300000D03*
X70900000Y-55300000D03*
X70900000Y-52300000D03*
X67900000Y-52300000D03*
X63200000Y-49400000D03*
X65200000Y-51400000D03*
X72100000Y-50900000D03*
X75200000Y-55900000D03*
X66800000Y-63400000D03*
X64430000Y-56970000D03*
X64400000Y-58000000D03*
X64500000Y-55000000D03*
X73500000Y-52700000D03*
X74500000Y-52700000D03*
X65400000Y-55000000D03*
X60900000Y-56800000D03*
X60700000Y-46500000D03*
X60700000Y-47500000D03*
X60700000Y-48500000D03*
X60700000Y-49500000D03*
X60700000Y-53200000D03*
X60700000Y-57500000D03*
X60700000Y-58500000D03*
X60700000Y-59500000D03*
X60700000Y-60500000D03*
X60700000Y-61500000D03*
X60700000Y-62500000D03*
X60700000Y-63500000D03*
X60700000Y-64500000D03*
X60700000Y-65500000D03*
X60700000Y-66500000D03*
X60700000Y-67500000D03*
X58200000Y-72000000D03*
X57200000Y-72000000D03*
X56200000Y-72000000D03*
X70400000Y-62100000D03*
X71400000Y-62100000D03*
X68200000Y-59700000D03*
X83100000Y-57300000D03*
X85900000Y-51000000D03*
X69800000Y-49000000D03*
X64500000Y-53300000D03*
X64400000Y-56000000D03*
X66800000Y-58000000D03*
X73500000Y-56800000D03*
X74000000Y-52200000D03*
X83000000Y-79300000D03*
X73400000Y-49100000D03*
D12*
G36*
X86223196Y-46424860D02*
G01*
X87020374Y-46642943D01*
X87766337Y-46998750D01*
X88437496Y-47481027D01*
X89012649Y-48074538D01*
X89473606Y-48760515D01*
X89805806Y-49517287D01*
X89999387Y-50323609D01*
X90050000Y-51012834D01*
X90050001Y-75984396D01*
X89975140Y-76823199D01*
X89757057Y-77620376D01*
X89401250Y-78366338D01*
X88918975Y-79037495D01*
X88325462Y-79612650D01*
X87639483Y-80073608D01*
X86882719Y-80405803D01*
X86076391Y-80599387D01*
X85387166Y-80650000D01*
X64411602Y-80650000D01*
X63256080Y-80573249D01*
X62132261Y-80346647D01*
X61048289Y-79973406D01*
X60023194Y-79460077D01*
X59075004Y-78815686D01*
X58220361Y-78051547D01*
X57474292Y-77181094D01*
X56849895Y-76219606D01*
X56358151Y-75183995D01*
X56007689Y-74092437D01*
X55804348Y-72962302D01*
X55769907Y-72346294D01*
X55772787Y-72350604D01*
X55849396Y-72427213D01*
X55939477Y-72487403D01*
X56039571Y-72528864D01*
X56145830Y-72550000D01*
X56254170Y-72550000D01*
X56360429Y-72528864D01*
X56460523Y-72487403D01*
X56550604Y-72427213D01*
X56627213Y-72350604D01*
X56687403Y-72260523D01*
X56700000Y-72230112D01*
X56712597Y-72260523D01*
X56772787Y-72350604D01*
X56849396Y-72427213D01*
X56939477Y-72487403D01*
X57039571Y-72528864D01*
X57145830Y-72550000D01*
X57254170Y-72550000D01*
X57360429Y-72528864D01*
X57460523Y-72487403D01*
X57550604Y-72427213D01*
X57627213Y-72350604D01*
X57687403Y-72260523D01*
X57700000Y-72230112D01*
X57712597Y-72260523D01*
X57772787Y-72350604D01*
X57849396Y-72427213D01*
X57939477Y-72487403D01*
X58039571Y-72528864D01*
X58145830Y-72550000D01*
X58254170Y-72550000D01*
X58360429Y-72528864D01*
X58460523Y-72487403D01*
X58550604Y-72427213D01*
X58627213Y-72350604D01*
X58687403Y-72260523D01*
X58728864Y-72160429D01*
X58750000Y-72054170D01*
X58750000Y-71945830D01*
X58728864Y-71839571D01*
X58712473Y-71800000D01*
X59048000Y-71800000D01*
X59030000Y-72000000D01*
X59116298Y-72958851D01*
X59372419Y-73886883D01*
X59790130Y-74754269D01*
X60356006Y-75533131D01*
X61051860Y-76198435D01*
X61855325Y-76728798D01*
X62740579Y-77107173D01*
X63679167Y-77321400D01*
X64640924Y-77364593D01*
X65594937Y-77235363D01*
X66510544Y-76937864D01*
X67358317Y-76481658D01*
X68111006Y-75881408D01*
X68744421Y-75156407D01*
X69238203Y-74329956D01*
X69576481Y-73428618D01*
X69748382Y-72481363D01*
X69748382Y-71518637D01*
X69576481Y-70571382D01*
X69238203Y-69670044D01*
X68744421Y-68843593D01*
X68111006Y-68118592D01*
X67358317Y-67518342D01*
X66510544Y-67062136D01*
X65594937Y-66764637D01*
X64640924Y-66635407D01*
X63679167Y-66678600D01*
X62740579Y-66892827D01*
X61855325Y-67271202D01*
X61215013Y-67693869D01*
X61228864Y-67660429D01*
X61250000Y-67554170D01*
X61250000Y-67445830D01*
X61228864Y-67339571D01*
X61187403Y-67239477D01*
X61127213Y-67149396D01*
X61050604Y-67072787D01*
X60960523Y-67012597D01*
X60930112Y-67000000D01*
X60960523Y-66987403D01*
X61050604Y-66927213D01*
X61127213Y-66850604D01*
X61187403Y-66760523D01*
X61228864Y-66660429D01*
X61250000Y-66554170D01*
X61250000Y-66445830D01*
X61228864Y-66339571D01*
X61187403Y-66239477D01*
X61127213Y-66149396D01*
X61050604Y-66072787D01*
X60960523Y-66012597D01*
X60930112Y-66000000D01*
X60960523Y-65987403D01*
X61050604Y-65927213D01*
X61127213Y-65850604D01*
X61187403Y-65760523D01*
X61228864Y-65660429D01*
X61250000Y-65554170D01*
X61250000Y-65445830D01*
X61228864Y-65339571D01*
X61187403Y-65239477D01*
X61127213Y-65149396D01*
X61050604Y-65072787D01*
X60960523Y-65012597D01*
X60930112Y-65000000D01*
X60960523Y-64987403D01*
X61050604Y-64927213D01*
X61127213Y-64850604D01*
X61187403Y-64760523D01*
X61228864Y-64660429D01*
X61250000Y-64554170D01*
X61250000Y-64445830D01*
X61228864Y-64339571D01*
X61187403Y-64239477D01*
X61127213Y-64149396D01*
X61050604Y-64072787D01*
X60960523Y-64012597D01*
X60930112Y-64000000D01*
X60960523Y-63987403D01*
X61050604Y-63927213D01*
X61127213Y-63850604D01*
X61187403Y-63760523D01*
X61228864Y-63660429D01*
X61250000Y-63554170D01*
X61250000Y-63445830D01*
X61228864Y-63339571D01*
X61187403Y-63239477D01*
X61127213Y-63149396D01*
X61050604Y-63072787D01*
X61010260Y-63045830D01*
X64650000Y-63045830D01*
X64650000Y-63154170D01*
X64671136Y-63260429D01*
X64712597Y-63360523D01*
X64772787Y-63450604D01*
X64849396Y-63527213D01*
X64939477Y-63587403D01*
X65039571Y-63628864D01*
X65145830Y-63650000D01*
X65254170Y-63650000D01*
X65360429Y-63628864D01*
X65460523Y-63587403D01*
X65550604Y-63527213D01*
X65627213Y-63450604D01*
X65687403Y-63360523D01*
X65693489Y-63345830D01*
X66250000Y-63345830D01*
X66250000Y-63454170D01*
X66271136Y-63560429D01*
X66312597Y-63660523D01*
X66372787Y-63750604D01*
X66449396Y-63827213D01*
X66539477Y-63887403D01*
X66639571Y-63928864D01*
X66745830Y-63950000D01*
X66854170Y-63950000D01*
X66960429Y-63928864D01*
X67060523Y-63887403D01*
X67150604Y-63827213D01*
X67227213Y-63750604D01*
X67287403Y-63660523D01*
X67328864Y-63560429D01*
X67350000Y-63454170D01*
X67350000Y-63345830D01*
X67328864Y-63239571D01*
X67287403Y-63139477D01*
X67227213Y-63049396D01*
X67150604Y-62972787D01*
X67060523Y-62912597D01*
X66960429Y-62871136D01*
X66854170Y-62850000D01*
X66745830Y-62850000D01*
X66639571Y-62871136D01*
X66539477Y-62912597D01*
X66449396Y-62972787D01*
X66372787Y-63049396D01*
X66312597Y-63139477D01*
X66271136Y-63239571D01*
X66250000Y-63345830D01*
X65693489Y-63345830D01*
X65728864Y-63260429D01*
X65750000Y-63154170D01*
X65750000Y-63045830D01*
X65728864Y-62939571D01*
X65687403Y-62839477D01*
X65627213Y-62749396D01*
X65550604Y-62672787D01*
X65460523Y-62612597D01*
X65360429Y-62571136D01*
X65254170Y-62550000D01*
X65145830Y-62550000D01*
X65039571Y-62571136D01*
X64939477Y-62612597D01*
X64849396Y-62672787D01*
X64772787Y-62749396D01*
X64712597Y-62839477D01*
X64671136Y-62939571D01*
X64650000Y-63045830D01*
X61010260Y-63045830D01*
X60960523Y-63012597D01*
X60930112Y-63000000D01*
X60960523Y-62987403D01*
X61050604Y-62927213D01*
X61127213Y-62850604D01*
X61187403Y-62760523D01*
X61228864Y-62660429D01*
X61250000Y-62554170D01*
X61250000Y-62445830D01*
X61228864Y-62339571D01*
X61187403Y-62239477D01*
X61127213Y-62149396D01*
X61050604Y-62072787D01*
X61010260Y-62045830D01*
X69850000Y-62045830D01*
X69850000Y-62154170D01*
X69871136Y-62260429D01*
X69912597Y-62360523D01*
X69972787Y-62450604D01*
X70049396Y-62527213D01*
X70139477Y-62587403D01*
X70239571Y-62628864D01*
X70345830Y-62650000D01*
X70454170Y-62650000D01*
X70560429Y-62628864D01*
X70660523Y-62587403D01*
X70750604Y-62527213D01*
X70827213Y-62450604D01*
X70887403Y-62360523D01*
X70900000Y-62330112D01*
X70912597Y-62360523D01*
X70972787Y-62450604D01*
X71049396Y-62527213D01*
X71139477Y-62587403D01*
X71239571Y-62628864D01*
X71345830Y-62650000D01*
X71454170Y-62650000D01*
X71560429Y-62628864D01*
X71660523Y-62587403D01*
X71750604Y-62527213D01*
X71827213Y-62450604D01*
X71887403Y-62360523D01*
X71928864Y-62260429D01*
X71950000Y-62154170D01*
X71950000Y-62045830D01*
X71928864Y-61939571D01*
X71887403Y-61839477D01*
X71827213Y-61749396D01*
X71750604Y-61672787D01*
X71660523Y-61612597D01*
X71560429Y-61571136D01*
X71454170Y-61550000D01*
X71345830Y-61550000D01*
X71239571Y-61571136D01*
X71139477Y-61612597D01*
X71049396Y-61672787D01*
X70972787Y-61749396D01*
X70912597Y-61839477D01*
X70900000Y-61869888D01*
X70887403Y-61839477D01*
X70827213Y-61749396D01*
X70750604Y-61672787D01*
X70660523Y-61612597D01*
X70560429Y-61571136D01*
X70454170Y-61550000D01*
X70345830Y-61550000D01*
X70239571Y-61571136D01*
X70139477Y-61612597D01*
X70049396Y-61672787D01*
X69972787Y-61749396D01*
X69912597Y-61839477D01*
X69871136Y-61939571D01*
X69850000Y-62045830D01*
X61010260Y-62045830D01*
X60960523Y-62012597D01*
X60930112Y-62000000D01*
X60960523Y-61987403D01*
X61050604Y-61927213D01*
X61127213Y-61850604D01*
X61187403Y-61760523D01*
X61228864Y-61660429D01*
X61250000Y-61554170D01*
X61250000Y-61445830D01*
X61228864Y-61339571D01*
X61187403Y-61239477D01*
X61127213Y-61149396D01*
X61050604Y-61072787D01*
X60960523Y-61012597D01*
X60930112Y-61000000D01*
X60960523Y-60987403D01*
X61050604Y-60927213D01*
X61127213Y-60850604D01*
X61187403Y-60760523D01*
X61228864Y-60660429D01*
X61250000Y-60554170D01*
X61250000Y-60445830D01*
X61228864Y-60339571D01*
X61187403Y-60239477D01*
X61127213Y-60149396D01*
X61050604Y-60072787D01*
X60960523Y-60012597D01*
X60930112Y-60000000D01*
X60960523Y-59987403D01*
X61050604Y-59927213D01*
X61127213Y-59850604D01*
X61187403Y-59760523D01*
X61228864Y-59660429D01*
X61231767Y-59645830D01*
X67650000Y-59645830D01*
X67650000Y-59754170D01*
X67671136Y-59860429D01*
X67712597Y-59960523D01*
X67772787Y-60050604D01*
X67849396Y-60127213D01*
X67939477Y-60187403D01*
X68039571Y-60228864D01*
X68145830Y-60250000D01*
X68254170Y-60250000D01*
X68360429Y-60228864D01*
X68460523Y-60187403D01*
X68550604Y-60127213D01*
X68627213Y-60050604D01*
X68687403Y-59960523D01*
X68728864Y-59860429D01*
X68750000Y-59754170D01*
X68750000Y-59645830D01*
X68728864Y-59539571D01*
X68687403Y-59439477D01*
X68627213Y-59349396D01*
X68550604Y-59272787D01*
X68460523Y-59212597D01*
X68360429Y-59171136D01*
X68254170Y-59150000D01*
X68145830Y-59150000D01*
X68039571Y-59171136D01*
X67939477Y-59212597D01*
X67849396Y-59272787D01*
X67772787Y-59349396D01*
X67712597Y-59439477D01*
X67671136Y-59539571D01*
X67650000Y-59645830D01*
X61231767Y-59645830D01*
X61250000Y-59554170D01*
X61250000Y-59445830D01*
X61228864Y-59339571D01*
X61187403Y-59239477D01*
X61127213Y-59149396D01*
X61050604Y-59072787D01*
X60960523Y-59012597D01*
X60930112Y-59000000D01*
X60960523Y-58987403D01*
X61050604Y-58927213D01*
X61127213Y-58850604D01*
X61187403Y-58760523D01*
X61228864Y-58660429D01*
X61250000Y-58554170D01*
X61250000Y-58445830D01*
X61228864Y-58339571D01*
X61187403Y-58239477D01*
X61127213Y-58149396D01*
X61050604Y-58072787D01*
X60960523Y-58012597D01*
X60930112Y-58000000D01*
X60960523Y-57987403D01*
X61022741Y-57945830D01*
X63850000Y-57945830D01*
X63850000Y-58054170D01*
X63871136Y-58160429D01*
X63912597Y-58260523D01*
X63972787Y-58350604D01*
X64049396Y-58427213D01*
X64139477Y-58487403D01*
X64239571Y-58528864D01*
X64345830Y-58550000D01*
X64454170Y-58550000D01*
X64560429Y-58528864D01*
X64660523Y-58487403D01*
X64750604Y-58427213D01*
X64827213Y-58350604D01*
X64887403Y-58260523D01*
X64928864Y-58160429D01*
X64950000Y-58054170D01*
X64950000Y-57945830D01*
X64928864Y-57839571D01*
X64887403Y-57739477D01*
X64827213Y-57649396D01*
X64750604Y-57572787D01*
X64660523Y-57512597D01*
X64608899Y-57491213D01*
X64690523Y-57457403D01*
X64780604Y-57397213D01*
X64857213Y-57320604D01*
X64917403Y-57230523D01*
X64958864Y-57130429D01*
X64980000Y-57024170D01*
X64980000Y-56915830D01*
X64958864Y-56809571D01*
X64917403Y-56709477D01*
X64857213Y-56619396D01*
X64780604Y-56542787D01*
X64690523Y-56482597D01*
X64590429Y-56441136D01*
X64484170Y-56420000D01*
X64375830Y-56420000D01*
X64269571Y-56441136D01*
X64169477Y-56482597D01*
X64079396Y-56542787D01*
X64002787Y-56619396D01*
X63942597Y-56709477D01*
X63901136Y-56809571D01*
X63880000Y-56915830D01*
X63880000Y-57024170D01*
X63901136Y-57130429D01*
X63942597Y-57230523D01*
X64002787Y-57320604D01*
X64079396Y-57397213D01*
X64169477Y-57457403D01*
X64221101Y-57478787D01*
X64139477Y-57512597D01*
X64049396Y-57572787D01*
X63972787Y-57649396D01*
X63912597Y-57739477D01*
X63871136Y-57839571D01*
X63850000Y-57945830D01*
X61022741Y-57945830D01*
X61050604Y-57927213D01*
X61127213Y-57850604D01*
X61187403Y-57760523D01*
X61228864Y-57660429D01*
X61250000Y-57554170D01*
X61250000Y-57445830D01*
X61228864Y-57339571D01*
X61197125Y-57262947D01*
X61250604Y-57227213D01*
X61327213Y-57150604D01*
X61387403Y-57060523D01*
X61428864Y-56960429D01*
X61450000Y-56854170D01*
X61450000Y-56745830D01*
X61428864Y-56639571D01*
X61387403Y-56539477D01*
X61327213Y-56449396D01*
X61250604Y-56372787D01*
X61160523Y-56312597D01*
X61060429Y-56271136D01*
X60954170Y-56250000D01*
X60845830Y-56250000D01*
X60739571Y-56271136D01*
X60639477Y-56312597D01*
X60549396Y-56372787D01*
X60500000Y-56422183D01*
X60500000Y-54945830D01*
X63950000Y-54945830D01*
X63950000Y-55054170D01*
X63971136Y-55160429D01*
X64012597Y-55260523D01*
X64072787Y-55350604D01*
X64149396Y-55427213D01*
X64239477Y-55487403D01*
X64339571Y-55528864D01*
X64445830Y-55550000D01*
X64554170Y-55550000D01*
X64660429Y-55528864D01*
X64760523Y-55487403D01*
X64850604Y-55427213D01*
X64927213Y-55350604D01*
X64950000Y-55316501D01*
X64972787Y-55350604D01*
X65049396Y-55427213D01*
X65139477Y-55487403D01*
X65239571Y-55528864D01*
X65345830Y-55550000D01*
X65454170Y-55550000D01*
X65560429Y-55528864D01*
X65660523Y-55487403D01*
X65750604Y-55427213D01*
X65827213Y-55350604D01*
X65887403Y-55260523D01*
X65893489Y-55245830D01*
X67350000Y-55245830D01*
X67350000Y-55354170D01*
X67371136Y-55460429D01*
X67412597Y-55560523D01*
X67472787Y-55650604D01*
X67549396Y-55727213D01*
X67639477Y-55787403D01*
X67739571Y-55828864D01*
X67845830Y-55850000D01*
X67954170Y-55850000D01*
X68060429Y-55828864D01*
X68160523Y-55787403D01*
X68250604Y-55727213D01*
X68327213Y-55650604D01*
X68387403Y-55560523D01*
X68428864Y-55460429D01*
X68450000Y-55354170D01*
X68450000Y-55245830D01*
X70350000Y-55245830D01*
X70350000Y-55354170D01*
X70371136Y-55460429D01*
X70412597Y-55560523D01*
X70472787Y-55650604D01*
X70549396Y-55727213D01*
X70639477Y-55787403D01*
X70739571Y-55828864D01*
X70845830Y-55850000D01*
X70954170Y-55850000D01*
X70975134Y-55845830D01*
X74650000Y-55845830D01*
X74650000Y-55954170D01*
X74671136Y-56060429D01*
X74712597Y-56160523D01*
X74772787Y-56250604D01*
X74849396Y-56327213D01*
X74939477Y-56387403D01*
X75039571Y-56428864D01*
X75145830Y-56450000D01*
X75254170Y-56450000D01*
X75360429Y-56428864D01*
X75460523Y-56387403D01*
X75550604Y-56327213D01*
X75627213Y-56250604D01*
X75687403Y-56160523D01*
X75728864Y-56060429D01*
X75750000Y-55954170D01*
X75750000Y-55845830D01*
X75728864Y-55739571D01*
X75687403Y-55639477D01*
X75627213Y-55549396D01*
X75550604Y-55472787D01*
X75460523Y-55412597D01*
X75360429Y-55371136D01*
X75254170Y-55350000D01*
X75145830Y-55350000D01*
X75039571Y-55371136D01*
X74939477Y-55412597D01*
X74849396Y-55472787D01*
X74772787Y-55549396D01*
X74712597Y-55639477D01*
X74671136Y-55739571D01*
X74650000Y-55845830D01*
X70975134Y-55845830D01*
X71060429Y-55828864D01*
X71160523Y-55787403D01*
X71250604Y-55727213D01*
X71327213Y-55650604D01*
X71387403Y-55560523D01*
X71428864Y-55460429D01*
X71450000Y-55354170D01*
X71450000Y-55245830D01*
X71428864Y-55139571D01*
X71387403Y-55039477D01*
X71327213Y-54949396D01*
X71250604Y-54872787D01*
X71160523Y-54812597D01*
X71060429Y-54771136D01*
X70954170Y-54750000D01*
X70845830Y-54750000D01*
X70739571Y-54771136D01*
X70639477Y-54812597D01*
X70549396Y-54872787D01*
X70472787Y-54949396D01*
X70412597Y-55039477D01*
X70371136Y-55139571D01*
X70350000Y-55245830D01*
X68450000Y-55245830D01*
X68428864Y-55139571D01*
X68387403Y-55039477D01*
X68327213Y-54949396D01*
X68250604Y-54872787D01*
X68160523Y-54812597D01*
X68060429Y-54771136D01*
X67954170Y-54750000D01*
X67845830Y-54750000D01*
X67739571Y-54771136D01*
X67639477Y-54812597D01*
X67549396Y-54872787D01*
X67472787Y-54949396D01*
X67412597Y-55039477D01*
X67371136Y-55139571D01*
X67350000Y-55245830D01*
X65893489Y-55245830D01*
X65928864Y-55160429D01*
X65950000Y-55054170D01*
X65950000Y-54945830D01*
X65928864Y-54839571D01*
X65887403Y-54739477D01*
X65827213Y-54649396D01*
X65750604Y-54572787D01*
X65660523Y-54512597D01*
X65560429Y-54471136D01*
X65454170Y-54450000D01*
X65345830Y-54450000D01*
X65239571Y-54471136D01*
X65139477Y-54512597D01*
X65049396Y-54572787D01*
X64972787Y-54649396D01*
X64950000Y-54683499D01*
X64927213Y-54649396D01*
X64850604Y-54572787D01*
X64760523Y-54512597D01*
X64660429Y-54471136D01*
X64554170Y-54450000D01*
X64445830Y-54450000D01*
X64339571Y-54471136D01*
X64239477Y-54512597D01*
X64149396Y-54572787D01*
X64072787Y-54649396D01*
X64012597Y-54739477D01*
X63971136Y-54839571D01*
X63950000Y-54945830D01*
X60500000Y-54945830D01*
X60500000Y-53712473D01*
X60539571Y-53728864D01*
X60645830Y-53750000D01*
X60754170Y-53750000D01*
X60860429Y-53728864D01*
X60960523Y-53687403D01*
X61050604Y-53627213D01*
X61127213Y-53550604D01*
X61187403Y-53460523D01*
X61228864Y-53360429D01*
X61250000Y-53254170D01*
X61250000Y-53145830D01*
X61228864Y-53039571D01*
X61187403Y-52939477D01*
X61127213Y-52849396D01*
X61050604Y-52772787D01*
X60960523Y-52712597D01*
X60952575Y-52709305D01*
X61000604Y-52677213D01*
X61077213Y-52600604D01*
X61137403Y-52510523D01*
X61178864Y-52410429D01*
X61200000Y-52304170D01*
X61200000Y-52245830D01*
X67350000Y-52245830D01*
X67350000Y-52354170D01*
X67371136Y-52460429D01*
X67412597Y-52560523D01*
X67472787Y-52650604D01*
X67549396Y-52727213D01*
X67639477Y-52787403D01*
X67739571Y-52828864D01*
X67845830Y-52850000D01*
X67954170Y-52850000D01*
X68060429Y-52828864D01*
X68160523Y-52787403D01*
X68250604Y-52727213D01*
X68327213Y-52650604D01*
X68387403Y-52560523D01*
X68428864Y-52460429D01*
X68450000Y-52354170D01*
X68450000Y-52245830D01*
X70350000Y-52245830D01*
X70350000Y-52354170D01*
X70371136Y-52460429D01*
X70412597Y-52560523D01*
X70472787Y-52650604D01*
X70549396Y-52727213D01*
X70639477Y-52787403D01*
X70739571Y-52828864D01*
X70845830Y-52850000D01*
X70954170Y-52850000D01*
X71060429Y-52828864D01*
X71160523Y-52787403D01*
X71250604Y-52727213D01*
X71327213Y-52650604D01*
X71330402Y-52645830D01*
X72950000Y-52645830D01*
X72950000Y-52754170D01*
X72971136Y-52860429D01*
X73012597Y-52960523D01*
X73072787Y-53050604D01*
X73149396Y-53127213D01*
X73239477Y-53187403D01*
X73339571Y-53228864D01*
X73445830Y-53250000D01*
X73554170Y-53250000D01*
X73660429Y-53228864D01*
X73760523Y-53187403D01*
X73850604Y-53127213D01*
X73927213Y-53050604D01*
X73987403Y-52960523D01*
X74000000Y-52930112D01*
X74012597Y-52960523D01*
X74072787Y-53050604D01*
X74149396Y-53127213D01*
X74239477Y-53187403D01*
X74339571Y-53228864D01*
X74445830Y-53250000D01*
X74554170Y-53250000D01*
X74660429Y-53228864D01*
X74760523Y-53187403D01*
X74850604Y-53127213D01*
X74927213Y-53050604D01*
X74987403Y-52960523D01*
X75028864Y-52860429D01*
X75050000Y-52754170D01*
X75050000Y-52645830D01*
X75028864Y-52539571D01*
X74987403Y-52439477D01*
X74927213Y-52349396D01*
X74850604Y-52272787D01*
X74760523Y-52212597D01*
X74660429Y-52171136D01*
X74554170Y-52150000D01*
X74445830Y-52150000D01*
X74339571Y-52171136D01*
X74239477Y-52212597D01*
X74149396Y-52272787D01*
X74072787Y-52349396D01*
X74012597Y-52439477D01*
X74000000Y-52469888D01*
X73987403Y-52439477D01*
X73927213Y-52349396D01*
X73850604Y-52272787D01*
X73760523Y-52212597D01*
X73660429Y-52171136D01*
X73554170Y-52150000D01*
X73445830Y-52150000D01*
X73339571Y-52171136D01*
X73239477Y-52212597D01*
X73149396Y-52272787D01*
X73072787Y-52349396D01*
X73012597Y-52439477D01*
X72971136Y-52539571D01*
X72950000Y-52645830D01*
X71330402Y-52645830D01*
X71387403Y-52560523D01*
X71428864Y-52460429D01*
X71450000Y-52354170D01*
X71450000Y-52245830D01*
X71428864Y-52139571D01*
X71387403Y-52039477D01*
X71327213Y-51949396D01*
X71250604Y-51872787D01*
X71160523Y-51812597D01*
X71060429Y-51771136D01*
X70954170Y-51750000D01*
X70845830Y-51750000D01*
X70739571Y-51771136D01*
X70639477Y-51812597D01*
X70549396Y-51872787D01*
X70472787Y-51949396D01*
X70412597Y-52039477D01*
X70371136Y-52139571D01*
X70350000Y-52245830D01*
X68450000Y-52245830D01*
X68428864Y-52139571D01*
X68387403Y-52039477D01*
X68327213Y-51949396D01*
X68250604Y-51872787D01*
X68160523Y-51812597D01*
X68060429Y-51771136D01*
X67954170Y-51750000D01*
X67845830Y-51750000D01*
X67739571Y-51771136D01*
X67639477Y-51812597D01*
X67549396Y-51872787D01*
X67472787Y-51949396D01*
X67412597Y-52039477D01*
X67371136Y-52139571D01*
X67350000Y-52245830D01*
X61200000Y-52245830D01*
X61200000Y-52195830D01*
X61178864Y-52089571D01*
X61141762Y-52000000D01*
X61178864Y-51910429D01*
X61200000Y-51804170D01*
X61200000Y-51695830D01*
X61178864Y-51589571D01*
X61137403Y-51489477D01*
X61077213Y-51399396D01*
X61023647Y-51345830D01*
X64650000Y-51345830D01*
X64650000Y-51454170D01*
X64671136Y-51560429D01*
X64712597Y-51660523D01*
X64772787Y-51750604D01*
X64849396Y-51827213D01*
X64939477Y-51887403D01*
X65039571Y-51928864D01*
X65145830Y-51950000D01*
X65254170Y-51950000D01*
X65360429Y-51928864D01*
X65460523Y-51887403D01*
X65550604Y-51827213D01*
X65627213Y-51750604D01*
X65687403Y-51660523D01*
X65728864Y-51560429D01*
X65750000Y-51454170D01*
X65750000Y-51345830D01*
X65728864Y-51239571D01*
X65687403Y-51139477D01*
X65627213Y-51049396D01*
X65550604Y-50972787D01*
X65460523Y-50912597D01*
X65360429Y-50871136D01*
X65254170Y-50850000D01*
X65145830Y-50850000D01*
X65039571Y-50871136D01*
X64939477Y-50912597D01*
X64849396Y-50972787D01*
X64772787Y-51049396D01*
X64712597Y-51139477D01*
X64671136Y-51239571D01*
X64650000Y-51345830D01*
X61023647Y-51345830D01*
X61000604Y-51322787D01*
X60910523Y-51262597D01*
X60810429Y-51221136D01*
X60704170Y-51200000D01*
X60595830Y-51200000D01*
X60500000Y-51219062D01*
X60500000Y-51012473D01*
X60539571Y-51028864D01*
X60645830Y-51050000D01*
X60754170Y-51050000D01*
X60860429Y-51028864D01*
X60960523Y-50987403D01*
X61050604Y-50927213D01*
X61127213Y-50850604D01*
X61130402Y-50845830D01*
X71550000Y-50845830D01*
X71550000Y-50954170D01*
X71571136Y-51060429D01*
X71612597Y-51160523D01*
X71672787Y-51250604D01*
X71749396Y-51327213D01*
X71839477Y-51387403D01*
X71939571Y-51428864D01*
X72045830Y-51450000D01*
X72154170Y-51450000D01*
X72260429Y-51428864D01*
X72360523Y-51387403D01*
X72450604Y-51327213D01*
X72527213Y-51250604D01*
X72587403Y-51160523D01*
X72628864Y-51060429D01*
X72650000Y-50954170D01*
X72650000Y-50845830D01*
X72628864Y-50739571D01*
X72587403Y-50639477D01*
X72527213Y-50549396D01*
X72450604Y-50472787D01*
X72360523Y-50412597D01*
X72260429Y-50371136D01*
X72154170Y-50350000D01*
X72045830Y-50350000D01*
X71939571Y-50371136D01*
X71839477Y-50412597D01*
X71749396Y-50472787D01*
X71672787Y-50549396D01*
X71612597Y-50639477D01*
X71571136Y-50739571D01*
X71550000Y-50845830D01*
X61130402Y-50845830D01*
X61187403Y-50760523D01*
X61228864Y-50660429D01*
X61250000Y-50554170D01*
X61250000Y-50445830D01*
X61228864Y-50339571D01*
X61187403Y-50239477D01*
X61127213Y-50149396D01*
X61050604Y-50072787D01*
X60960523Y-50012597D01*
X60930112Y-50000000D01*
X60960523Y-49987403D01*
X61050604Y-49927213D01*
X61127213Y-49850604D01*
X61187403Y-49760523D01*
X61228864Y-49660429D01*
X61250000Y-49554170D01*
X61250000Y-49445830D01*
X61230109Y-49345830D01*
X62650000Y-49345830D01*
X62650000Y-49454170D01*
X62671136Y-49560429D01*
X62712597Y-49660523D01*
X62772787Y-49750604D01*
X62849396Y-49827213D01*
X62939477Y-49887403D01*
X63039571Y-49928864D01*
X63145830Y-49950000D01*
X63254170Y-49950000D01*
X63360429Y-49928864D01*
X63460523Y-49887403D01*
X63550604Y-49827213D01*
X63627213Y-49750604D01*
X63687403Y-49660523D01*
X63728864Y-49560429D01*
X63750000Y-49454170D01*
X63750000Y-49345830D01*
X63728864Y-49239571D01*
X63687403Y-49139477D01*
X63627213Y-49049396D01*
X63550604Y-48972787D01*
X63460523Y-48912597D01*
X63360429Y-48871136D01*
X63254170Y-48850000D01*
X63145830Y-48850000D01*
X63039571Y-48871136D01*
X62939477Y-48912597D01*
X62849396Y-48972787D01*
X62772787Y-49049396D01*
X62712597Y-49139477D01*
X62671136Y-49239571D01*
X62650000Y-49345830D01*
X61230109Y-49345830D01*
X61228864Y-49339571D01*
X61187403Y-49239477D01*
X61127213Y-49149396D01*
X61050604Y-49072787D01*
X60960523Y-49012597D01*
X60930112Y-49000000D01*
X60960523Y-48987403D01*
X61050604Y-48927213D01*
X61127213Y-48850604D01*
X61187403Y-48760523D01*
X61228864Y-48660429D01*
X61250000Y-48554170D01*
X61250000Y-48445830D01*
X61228864Y-48339571D01*
X61187403Y-48239477D01*
X61127213Y-48149396D01*
X61050604Y-48072787D01*
X60960523Y-48012597D01*
X60930112Y-48000000D01*
X60960523Y-47987403D01*
X61050604Y-47927213D01*
X61127213Y-47850604D01*
X61187403Y-47760523D01*
X61228864Y-47660429D01*
X61250000Y-47554170D01*
X61250000Y-47445830D01*
X61228864Y-47339571D01*
X61187403Y-47239477D01*
X61127213Y-47149396D01*
X61050604Y-47072787D01*
X60960523Y-47012597D01*
X60930112Y-47000000D01*
X60960523Y-46987403D01*
X61050604Y-46927213D01*
X61127213Y-46850604D01*
X61187403Y-46760523D01*
X61228864Y-46660429D01*
X61250000Y-46554170D01*
X61250000Y-46445830D01*
X61230939Y-46350001D01*
X85384417Y-46350001D01*
X86223196Y-46424860D01*
G37*
X86223196Y-46424860D02*
X87020374Y-46642943D01*
X87766337Y-46998750D01*
X88437496Y-47481027D01*
X89012649Y-48074538D01*
X89473606Y-48760515D01*
X89805806Y-49517287D01*
X89999387Y-50323609D01*
X90050000Y-51012834D01*
X90050001Y-75984396D01*
X89975140Y-76823199D01*
X89757057Y-77620376D01*
X89401250Y-78366338D01*
X88918975Y-79037495D01*
X88325462Y-79612650D01*
X87639483Y-80073608D01*
X86882719Y-80405803D01*
X86076391Y-80599387D01*
X85387166Y-80650000D01*
X64411602Y-80650000D01*
X63256080Y-80573249D01*
X62132261Y-80346647D01*
X61048289Y-79973406D01*
X60023194Y-79460077D01*
X59075004Y-78815686D01*
X58220361Y-78051547D01*
X57474292Y-77181094D01*
X56849895Y-76219606D01*
X56358151Y-75183995D01*
X56007689Y-74092437D01*
X55804348Y-72962302D01*
X55769907Y-72346294D01*
X55772787Y-72350604D01*
X55849396Y-72427213D01*
X55939477Y-72487403D01*
X56039571Y-72528864D01*
X56145830Y-72550000D01*
X56254170Y-72550000D01*
X56360429Y-72528864D01*
X56460523Y-72487403D01*
X56550604Y-72427213D01*
X56627213Y-72350604D01*
X56687403Y-72260523D01*
X56700000Y-72230112D01*
X56712597Y-72260523D01*
X56772787Y-72350604D01*
X56849396Y-72427213D01*
X56939477Y-72487403D01*
X57039571Y-72528864D01*
X57145830Y-72550000D01*
X57254170Y-72550000D01*
X57360429Y-72528864D01*
X57460523Y-72487403D01*
X57550604Y-72427213D01*
X57627213Y-72350604D01*
X57687403Y-72260523D01*
X57700000Y-72230112D01*
X57712597Y-72260523D01*
X57772787Y-72350604D01*
X57849396Y-72427213D01*
X57939477Y-72487403D01*
X58039571Y-72528864D01*
X58145830Y-72550000D01*
X58254170Y-72550000D01*
X58360429Y-72528864D01*
X58460523Y-72487403D01*
X58550604Y-72427213D01*
X58627213Y-72350604D01*
X58687403Y-72260523D01*
X58728864Y-72160429D01*
X58750000Y-72054170D01*
X58750000Y-71945830D01*
X58728864Y-71839571D01*
X58712473Y-71800000D01*
X59048000Y-71800000D01*
X59030000Y-72000000D01*
X59116298Y-72958851D01*
X59372419Y-73886883D01*
X59790130Y-74754269D01*
X60356006Y-75533131D01*
X61051860Y-76198435D01*
X61855325Y-76728798D01*
X62740579Y-77107173D01*
X63679167Y-77321400D01*
X64640924Y-77364593D01*
X65594937Y-77235363D01*
X66510544Y-76937864D01*
X67358317Y-76481658D01*
X68111006Y-75881408D01*
X68744421Y-75156407D01*
X69238203Y-74329956D01*
X69576481Y-73428618D01*
X69748382Y-72481363D01*
X69748382Y-71518637D01*
X69576481Y-70571382D01*
X69238203Y-69670044D01*
X68744421Y-68843593D01*
X68111006Y-68118592D01*
X67358317Y-67518342D01*
X66510544Y-67062136D01*
X65594937Y-66764637D01*
X64640924Y-66635407D01*
X63679167Y-66678600D01*
X62740579Y-66892827D01*
X61855325Y-67271202D01*
X61215013Y-67693869D01*
X61228864Y-67660429D01*
X61250000Y-67554170D01*
X61250000Y-67445830D01*
X61228864Y-67339571D01*
X61187403Y-67239477D01*
X61127213Y-67149396D01*
X61050604Y-67072787D01*
X60960523Y-67012597D01*
X60930112Y-67000000D01*
X60960523Y-66987403D01*
X61050604Y-66927213D01*
X61127213Y-66850604D01*
X61187403Y-66760523D01*
X61228864Y-66660429D01*
X61250000Y-66554170D01*
X61250000Y-66445830D01*
X61228864Y-66339571D01*
X61187403Y-66239477D01*
X61127213Y-66149396D01*
X61050604Y-66072787D01*
X60960523Y-66012597D01*
X60930112Y-66000000D01*
X60960523Y-65987403D01*
X61050604Y-65927213D01*
X61127213Y-65850604D01*
X61187403Y-65760523D01*
X61228864Y-65660429D01*
X61250000Y-65554170D01*
X61250000Y-65445830D01*
X61228864Y-65339571D01*
X61187403Y-65239477D01*
X61127213Y-65149396D01*
X61050604Y-65072787D01*
X60960523Y-65012597D01*
X60930112Y-65000000D01*
X60960523Y-64987403D01*
X61050604Y-64927213D01*
X61127213Y-64850604D01*
X61187403Y-64760523D01*
X61228864Y-64660429D01*
X61250000Y-64554170D01*
X61250000Y-64445830D01*
X61228864Y-64339571D01*
X61187403Y-64239477D01*
X61127213Y-64149396D01*
X61050604Y-64072787D01*
X60960523Y-64012597D01*
X60930112Y-64000000D01*
X60960523Y-63987403D01*
X61050604Y-63927213D01*
X61127213Y-63850604D01*
X61187403Y-63760523D01*
X61228864Y-63660429D01*
X61250000Y-63554170D01*
X61250000Y-63445830D01*
X61228864Y-63339571D01*
X61187403Y-63239477D01*
X61127213Y-63149396D01*
X61050604Y-63072787D01*
X61010260Y-63045830D01*
X64650000Y-63045830D01*
X64650000Y-63154170D01*
X64671136Y-63260429D01*
X64712597Y-63360523D01*
X64772787Y-63450604D01*
X64849396Y-63527213D01*
X64939477Y-63587403D01*
X65039571Y-63628864D01*
X65145830Y-63650000D01*
X65254170Y-63650000D01*
X65360429Y-63628864D01*
X65460523Y-63587403D01*
X65550604Y-63527213D01*
X65627213Y-63450604D01*
X65687403Y-63360523D01*
X65693489Y-63345830D01*
X66250000Y-63345830D01*
X66250000Y-63454170D01*
X66271136Y-63560429D01*
X66312597Y-63660523D01*
X66372787Y-63750604D01*
X66449396Y-63827213D01*
X66539477Y-63887403D01*
X66639571Y-63928864D01*
X66745830Y-63950000D01*
X66854170Y-63950000D01*
X66960429Y-63928864D01*
X67060523Y-63887403D01*
X67150604Y-63827213D01*
X67227213Y-63750604D01*
X67287403Y-63660523D01*
X67328864Y-63560429D01*
X67350000Y-63454170D01*
X67350000Y-63345830D01*
X67328864Y-63239571D01*
X67287403Y-63139477D01*
X67227213Y-63049396D01*
X67150604Y-62972787D01*
X67060523Y-62912597D01*
X66960429Y-62871136D01*
X66854170Y-62850000D01*
X66745830Y-62850000D01*
X66639571Y-62871136D01*
X66539477Y-62912597D01*
X66449396Y-62972787D01*
X66372787Y-63049396D01*
X66312597Y-63139477D01*
X66271136Y-63239571D01*
X66250000Y-63345830D01*
X65693489Y-63345830D01*
X65728864Y-63260429D01*
X65750000Y-63154170D01*
X65750000Y-63045830D01*
X65728864Y-62939571D01*
X65687403Y-62839477D01*
X65627213Y-62749396D01*
X65550604Y-62672787D01*
X65460523Y-62612597D01*
X65360429Y-62571136D01*
X65254170Y-62550000D01*
X65145830Y-62550000D01*
X65039571Y-62571136D01*
X64939477Y-62612597D01*
X64849396Y-62672787D01*
X64772787Y-62749396D01*
X64712597Y-62839477D01*
X64671136Y-62939571D01*
X64650000Y-63045830D01*
X61010260Y-63045830D01*
X60960523Y-63012597D01*
X60930112Y-63000000D01*
X60960523Y-62987403D01*
X61050604Y-62927213D01*
X61127213Y-62850604D01*
X61187403Y-62760523D01*
X61228864Y-62660429D01*
X61250000Y-62554170D01*
X61250000Y-62445830D01*
X61228864Y-62339571D01*
X61187403Y-62239477D01*
X61127213Y-62149396D01*
X61050604Y-62072787D01*
X61010260Y-62045830D01*
X69850000Y-62045830D01*
X69850000Y-62154170D01*
X69871136Y-62260429D01*
X69912597Y-62360523D01*
X69972787Y-62450604D01*
X70049396Y-62527213D01*
X70139477Y-62587403D01*
X70239571Y-62628864D01*
X70345830Y-62650000D01*
X70454170Y-62650000D01*
X70560429Y-62628864D01*
X70660523Y-62587403D01*
X70750604Y-62527213D01*
X70827213Y-62450604D01*
X70887403Y-62360523D01*
X70900000Y-62330112D01*
X70912597Y-62360523D01*
X70972787Y-62450604D01*
X71049396Y-62527213D01*
X71139477Y-62587403D01*
X71239571Y-62628864D01*
X71345830Y-62650000D01*
X71454170Y-62650000D01*
X71560429Y-62628864D01*
X71660523Y-62587403D01*
X71750604Y-62527213D01*
X71827213Y-62450604D01*
X71887403Y-62360523D01*
X71928864Y-62260429D01*
X71950000Y-62154170D01*
X71950000Y-62045830D01*
X71928864Y-61939571D01*
X71887403Y-61839477D01*
X71827213Y-61749396D01*
X71750604Y-61672787D01*
X71660523Y-61612597D01*
X71560429Y-61571136D01*
X71454170Y-61550000D01*
X71345830Y-61550000D01*
X71239571Y-61571136D01*
X71139477Y-61612597D01*
X71049396Y-61672787D01*
X70972787Y-61749396D01*
X70912597Y-61839477D01*
X70900000Y-61869888D01*
X70887403Y-61839477D01*
X70827213Y-61749396D01*
X70750604Y-61672787D01*
X70660523Y-61612597D01*
X70560429Y-61571136D01*
X70454170Y-61550000D01*
X70345830Y-61550000D01*
X70239571Y-61571136D01*
X70139477Y-61612597D01*
X70049396Y-61672787D01*
X69972787Y-61749396D01*
X69912597Y-61839477D01*
X69871136Y-61939571D01*
X69850000Y-62045830D01*
X61010260Y-62045830D01*
X60960523Y-62012597D01*
X60930112Y-62000000D01*
X60960523Y-61987403D01*
X61050604Y-61927213D01*
X61127213Y-61850604D01*
X61187403Y-61760523D01*
X61228864Y-61660429D01*
X61250000Y-61554170D01*
X61250000Y-61445830D01*
X61228864Y-61339571D01*
X61187403Y-61239477D01*
X61127213Y-61149396D01*
X61050604Y-61072787D01*
X60960523Y-61012597D01*
X60930112Y-61000000D01*
X60960523Y-60987403D01*
X61050604Y-60927213D01*
X61127213Y-60850604D01*
X61187403Y-60760523D01*
X61228864Y-60660429D01*
X61250000Y-60554170D01*
X61250000Y-60445830D01*
X61228864Y-60339571D01*
X61187403Y-60239477D01*
X61127213Y-60149396D01*
X61050604Y-60072787D01*
X60960523Y-60012597D01*
X60930112Y-60000000D01*
X60960523Y-59987403D01*
X61050604Y-59927213D01*
X61127213Y-59850604D01*
X61187403Y-59760523D01*
X61228864Y-59660429D01*
X61231767Y-59645830D01*
X67650000Y-59645830D01*
X67650000Y-59754170D01*
X67671136Y-59860429D01*
X67712597Y-59960523D01*
X67772787Y-60050604D01*
X67849396Y-60127213D01*
X67939477Y-60187403D01*
X68039571Y-60228864D01*
X68145830Y-60250000D01*
X68254170Y-60250000D01*
X68360429Y-60228864D01*
X68460523Y-60187403D01*
X68550604Y-60127213D01*
X68627213Y-60050604D01*
X68687403Y-59960523D01*
X68728864Y-59860429D01*
X68750000Y-59754170D01*
X68750000Y-59645830D01*
X68728864Y-59539571D01*
X68687403Y-59439477D01*
X68627213Y-59349396D01*
X68550604Y-59272787D01*
X68460523Y-59212597D01*
X68360429Y-59171136D01*
X68254170Y-59150000D01*
X68145830Y-59150000D01*
X68039571Y-59171136D01*
X67939477Y-59212597D01*
X67849396Y-59272787D01*
X67772787Y-59349396D01*
X67712597Y-59439477D01*
X67671136Y-59539571D01*
X67650000Y-59645830D01*
X61231767Y-59645830D01*
X61250000Y-59554170D01*
X61250000Y-59445830D01*
X61228864Y-59339571D01*
X61187403Y-59239477D01*
X61127213Y-59149396D01*
X61050604Y-59072787D01*
X60960523Y-59012597D01*
X60930112Y-59000000D01*
X60960523Y-58987403D01*
X61050604Y-58927213D01*
X61127213Y-58850604D01*
X61187403Y-58760523D01*
X61228864Y-58660429D01*
X61250000Y-58554170D01*
X61250000Y-58445830D01*
X61228864Y-58339571D01*
X61187403Y-58239477D01*
X61127213Y-58149396D01*
X61050604Y-58072787D01*
X60960523Y-58012597D01*
X60930112Y-58000000D01*
X60960523Y-57987403D01*
X61022741Y-57945830D01*
X63850000Y-57945830D01*
X63850000Y-58054170D01*
X63871136Y-58160429D01*
X63912597Y-58260523D01*
X63972787Y-58350604D01*
X64049396Y-58427213D01*
X64139477Y-58487403D01*
X64239571Y-58528864D01*
X64345830Y-58550000D01*
X64454170Y-58550000D01*
X64560429Y-58528864D01*
X64660523Y-58487403D01*
X64750604Y-58427213D01*
X64827213Y-58350604D01*
X64887403Y-58260523D01*
X64928864Y-58160429D01*
X64950000Y-58054170D01*
X64950000Y-57945830D01*
X64928864Y-57839571D01*
X64887403Y-57739477D01*
X64827213Y-57649396D01*
X64750604Y-57572787D01*
X64660523Y-57512597D01*
X64608899Y-57491213D01*
X64690523Y-57457403D01*
X64780604Y-57397213D01*
X64857213Y-57320604D01*
X64917403Y-57230523D01*
X64958864Y-57130429D01*
X64980000Y-57024170D01*
X64980000Y-56915830D01*
X64958864Y-56809571D01*
X64917403Y-56709477D01*
X64857213Y-56619396D01*
X64780604Y-56542787D01*
X64690523Y-56482597D01*
X64590429Y-56441136D01*
X64484170Y-56420000D01*
X64375830Y-56420000D01*
X64269571Y-56441136D01*
X64169477Y-56482597D01*
X64079396Y-56542787D01*
X64002787Y-56619396D01*
X63942597Y-56709477D01*
X63901136Y-56809571D01*
X63880000Y-56915830D01*
X63880000Y-57024170D01*
X63901136Y-57130429D01*
X63942597Y-57230523D01*
X64002787Y-57320604D01*
X64079396Y-57397213D01*
X64169477Y-57457403D01*
X64221101Y-57478787D01*
X64139477Y-57512597D01*
X64049396Y-57572787D01*
X63972787Y-57649396D01*
X63912597Y-57739477D01*
X63871136Y-57839571D01*
X63850000Y-57945830D01*
X61022741Y-57945830D01*
X61050604Y-57927213D01*
X61127213Y-57850604D01*
X61187403Y-57760523D01*
X61228864Y-57660429D01*
X61250000Y-57554170D01*
X61250000Y-57445830D01*
X61228864Y-57339571D01*
X61197125Y-57262947D01*
X61250604Y-57227213D01*
X61327213Y-57150604D01*
X61387403Y-57060523D01*
X61428864Y-56960429D01*
X61450000Y-56854170D01*
X61450000Y-56745830D01*
X61428864Y-56639571D01*
X61387403Y-56539477D01*
X61327213Y-56449396D01*
X61250604Y-56372787D01*
X61160523Y-56312597D01*
X61060429Y-56271136D01*
X60954170Y-56250000D01*
X60845830Y-56250000D01*
X60739571Y-56271136D01*
X60639477Y-56312597D01*
X60549396Y-56372787D01*
X60500000Y-56422183D01*
X60500000Y-54945830D01*
X63950000Y-54945830D01*
X63950000Y-55054170D01*
X63971136Y-55160429D01*
X64012597Y-55260523D01*
X64072787Y-55350604D01*
X64149396Y-55427213D01*
X64239477Y-55487403D01*
X64339571Y-55528864D01*
X64445830Y-55550000D01*
X64554170Y-55550000D01*
X64660429Y-55528864D01*
X64760523Y-55487403D01*
X64850604Y-55427213D01*
X64927213Y-55350604D01*
X64950000Y-55316501D01*
X64972787Y-55350604D01*
X65049396Y-55427213D01*
X65139477Y-55487403D01*
X65239571Y-55528864D01*
X65345830Y-55550000D01*
X65454170Y-55550000D01*
X65560429Y-55528864D01*
X65660523Y-55487403D01*
X65750604Y-55427213D01*
X65827213Y-55350604D01*
X65887403Y-55260523D01*
X65893489Y-55245830D01*
X67350000Y-55245830D01*
X67350000Y-55354170D01*
X67371136Y-55460429D01*
X67412597Y-55560523D01*
X67472787Y-55650604D01*
X67549396Y-55727213D01*
X67639477Y-55787403D01*
X67739571Y-55828864D01*
X67845830Y-55850000D01*
X67954170Y-55850000D01*
X68060429Y-55828864D01*
X68160523Y-55787403D01*
X68250604Y-55727213D01*
X68327213Y-55650604D01*
X68387403Y-55560523D01*
X68428864Y-55460429D01*
X68450000Y-55354170D01*
X68450000Y-55245830D01*
X70350000Y-55245830D01*
X70350000Y-55354170D01*
X70371136Y-55460429D01*
X70412597Y-55560523D01*
X70472787Y-55650604D01*
X70549396Y-55727213D01*
X70639477Y-55787403D01*
X70739571Y-55828864D01*
X70845830Y-55850000D01*
X70954170Y-55850000D01*
X70975134Y-55845830D01*
X74650000Y-55845830D01*
X74650000Y-55954170D01*
X74671136Y-56060429D01*
X74712597Y-56160523D01*
X74772787Y-56250604D01*
X74849396Y-56327213D01*
X74939477Y-56387403D01*
X75039571Y-56428864D01*
X75145830Y-56450000D01*
X75254170Y-56450000D01*
X75360429Y-56428864D01*
X75460523Y-56387403D01*
X75550604Y-56327213D01*
X75627213Y-56250604D01*
X75687403Y-56160523D01*
X75728864Y-56060429D01*
X75750000Y-55954170D01*
X75750000Y-55845830D01*
X75728864Y-55739571D01*
X75687403Y-55639477D01*
X75627213Y-55549396D01*
X75550604Y-55472787D01*
X75460523Y-55412597D01*
X75360429Y-55371136D01*
X75254170Y-55350000D01*
X75145830Y-55350000D01*
X75039571Y-55371136D01*
X74939477Y-55412597D01*
X74849396Y-55472787D01*
X74772787Y-55549396D01*
X74712597Y-55639477D01*
X74671136Y-55739571D01*
X74650000Y-55845830D01*
X70975134Y-55845830D01*
X71060429Y-55828864D01*
X71160523Y-55787403D01*
X71250604Y-55727213D01*
X71327213Y-55650604D01*
X71387403Y-55560523D01*
X71428864Y-55460429D01*
X71450000Y-55354170D01*
X71450000Y-55245830D01*
X71428864Y-55139571D01*
X71387403Y-55039477D01*
X71327213Y-54949396D01*
X71250604Y-54872787D01*
X71160523Y-54812597D01*
X71060429Y-54771136D01*
X70954170Y-54750000D01*
X70845830Y-54750000D01*
X70739571Y-54771136D01*
X70639477Y-54812597D01*
X70549396Y-54872787D01*
X70472787Y-54949396D01*
X70412597Y-55039477D01*
X70371136Y-55139571D01*
X70350000Y-55245830D01*
X68450000Y-55245830D01*
X68428864Y-55139571D01*
X68387403Y-55039477D01*
X68327213Y-54949396D01*
X68250604Y-54872787D01*
X68160523Y-54812597D01*
X68060429Y-54771136D01*
X67954170Y-54750000D01*
X67845830Y-54750000D01*
X67739571Y-54771136D01*
X67639477Y-54812597D01*
X67549396Y-54872787D01*
X67472787Y-54949396D01*
X67412597Y-55039477D01*
X67371136Y-55139571D01*
X67350000Y-55245830D01*
X65893489Y-55245830D01*
X65928864Y-55160429D01*
X65950000Y-55054170D01*
X65950000Y-54945830D01*
X65928864Y-54839571D01*
X65887403Y-54739477D01*
X65827213Y-54649396D01*
X65750604Y-54572787D01*
X65660523Y-54512597D01*
X65560429Y-54471136D01*
X65454170Y-54450000D01*
X65345830Y-54450000D01*
X65239571Y-54471136D01*
X65139477Y-54512597D01*
X65049396Y-54572787D01*
X64972787Y-54649396D01*
X64950000Y-54683499D01*
X64927213Y-54649396D01*
X64850604Y-54572787D01*
X64760523Y-54512597D01*
X64660429Y-54471136D01*
X64554170Y-54450000D01*
X64445830Y-54450000D01*
X64339571Y-54471136D01*
X64239477Y-54512597D01*
X64149396Y-54572787D01*
X64072787Y-54649396D01*
X64012597Y-54739477D01*
X63971136Y-54839571D01*
X63950000Y-54945830D01*
X60500000Y-54945830D01*
X60500000Y-53712473D01*
X60539571Y-53728864D01*
X60645830Y-53750000D01*
X60754170Y-53750000D01*
X60860429Y-53728864D01*
X60960523Y-53687403D01*
X61050604Y-53627213D01*
X61127213Y-53550604D01*
X61187403Y-53460523D01*
X61228864Y-53360429D01*
X61250000Y-53254170D01*
X61250000Y-53145830D01*
X61228864Y-53039571D01*
X61187403Y-52939477D01*
X61127213Y-52849396D01*
X61050604Y-52772787D01*
X60960523Y-52712597D01*
X60952575Y-52709305D01*
X61000604Y-52677213D01*
X61077213Y-52600604D01*
X61137403Y-52510523D01*
X61178864Y-52410429D01*
X61200000Y-52304170D01*
X61200000Y-52245830D01*
X67350000Y-52245830D01*
X67350000Y-52354170D01*
X67371136Y-52460429D01*
X67412597Y-52560523D01*
X67472787Y-52650604D01*
X67549396Y-52727213D01*
X67639477Y-52787403D01*
X67739571Y-52828864D01*
X67845830Y-52850000D01*
X67954170Y-52850000D01*
X68060429Y-52828864D01*
X68160523Y-52787403D01*
X68250604Y-52727213D01*
X68327213Y-52650604D01*
X68387403Y-52560523D01*
X68428864Y-52460429D01*
X68450000Y-52354170D01*
X68450000Y-52245830D01*
X70350000Y-52245830D01*
X70350000Y-52354170D01*
X70371136Y-52460429D01*
X70412597Y-52560523D01*
X70472787Y-52650604D01*
X70549396Y-52727213D01*
X70639477Y-52787403D01*
X70739571Y-52828864D01*
X70845830Y-52850000D01*
X70954170Y-52850000D01*
X71060429Y-52828864D01*
X71160523Y-52787403D01*
X71250604Y-52727213D01*
X71327213Y-52650604D01*
X71330402Y-52645830D01*
X72950000Y-52645830D01*
X72950000Y-52754170D01*
X72971136Y-52860429D01*
X73012597Y-52960523D01*
X73072787Y-53050604D01*
X73149396Y-53127213D01*
X73239477Y-53187403D01*
X73339571Y-53228864D01*
X73445830Y-53250000D01*
X73554170Y-53250000D01*
X73660429Y-53228864D01*
X73760523Y-53187403D01*
X73850604Y-53127213D01*
X73927213Y-53050604D01*
X73987403Y-52960523D01*
X74000000Y-52930112D01*
X74012597Y-52960523D01*
X74072787Y-53050604D01*
X74149396Y-53127213D01*
X74239477Y-53187403D01*
X74339571Y-53228864D01*
X74445830Y-53250000D01*
X74554170Y-53250000D01*
X74660429Y-53228864D01*
X74760523Y-53187403D01*
X74850604Y-53127213D01*
X74927213Y-53050604D01*
X74987403Y-52960523D01*
X75028864Y-52860429D01*
X75050000Y-52754170D01*
X75050000Y-52645830D01*
X75028864Y-52539571D01*
X74987403Y-52439477D01*
X74927213Y-52349396D01*
X74850604Y-52272787D01*
X74760523Y-52212597D01*
X74660429Y-52171136D01*
X74554170Y-52150000D01*
X74445830Y-52150000D01*
X74339571Y-52171136D01*
X74239477Y-52212597D01*
X74149396Y-52272787D01*
X74072787Y-52349396D01*
X74012597Y-52439477D01*
X74000000Y-52469888D01*
X73987403Y-52439477D01*
X73927213Y-52349396D01*
X73850604Y-52272787D01*
X73760523Y-52212597D01*
X73660429Y-52171136D01*
X73554170Y-52150000D01*
X73445830Y-52150000D01*
X73339571Y-52171136D01*
X73239477Y-52212597D01*
X73149396Y-52272787D01*
X73072787Y-52349396D01*
X73012597Y-52439477D01*
X72971136Y-52539571D01*
X72950000Y-52645830D01*
X71330402Y-52645830D01*
X71387403Y-52560523D01*
X71428864Y-52460429D01*
X71450000Y-52354170D01*
X71450000Y-52245830D01*
X71428864Y-52139571D01*
X71387403Y-52039477D01*
X71327213Y-51949396D01*
X71250604Y-51872787D01*
X71160523Y-51812597D01*
X71060429Y-51771136D01*
X70954170Y-51750000D01*
X70845830Y-51750000D01*
X70739571Y-51771136D01*
X70639477Y-51812597D01*
X70549396Y-51872787D01*
X70472787Y-51949396D01*
X70412597Y-52039477D01*
X70371136Y-52139571D01*
X70350000Y-52245830D01*
X68450000Y-52245830D01*
X68428864Y-52139571D01*
X68387403Y-52039477D01*
X68327213Y-51949396D01*
X68250604Y-51872787D01*
X68160523Y-51812597D01*
X68060429Y-51771136D01*
X67954170Y-51750000D01*
X67845830Y-51750000D01*
X67739571Y-51771136D01*
X67639477Y-51812597D01*
X67549396Y-51872787D01*
X67472787Y-51949396D01*
X67412597Y-52039477D01*
X67371136Y-52139571D01*
X67350000Y-52245830D01*
X61200000Y-52245830D01*
X61200000Y-52195830D01*
X61178864Y-52089571D01*
X61141762Y-52000000D01*
X61178864Y-51910429D01*
X61200000Y-51804170D01*
X61200000Y-51695830D01*
X61178864Y-51589571D01*
X61137403Y-51489477D01*
X61077213Y-51399396D01*
X61023647Y-51345830D01*
X64650000Y-51345830D01*
X64650000Y-51454170D01*
X64671136Y-51560429D01*
X64712597Y-51660523D01*
X64772787Y-51750604D01*
X64849396Y-51827213D01*
X64939477Y-51887403D01*
X65039571Y-51928864D01*
X65145830Y-51950000D01*
X65254170Y-51950000D01*
X65360429Y-51928864D01*
X65460523Y-51887403D01*
X65550604Y-51827213D01*
X65627213Y-51750604D01*
X65687403Y-51660523D01*
X65728864Y-51560429D01*
X65750000Y-51454170D01*
X65750000Y-51345830D01*
X65728864Y-51239571D01*
X65687403Y-51139477D01*
X65627213Y-51049396D01*
X65550604Y-50972787D01*
X65460523Y-50912597D01*
X65360429Y-50871136D01*
X65254170Y-50850000D01*
X65145830Y-50850000D01*
X65039571Y-50871136D01*
X64939477Y-50912597D01*
X64849396Y-50972787D01*
X64772787Y-51049396D01*
X64712597Y-51139477D01*
X64671136Y-51239571D01*
X64650000Y-51345830D01*
X61023647Y-51345830D01*
X61000604Y-51322787D01*
X60910523Y-51262597D01*
X60810429Y-51221136D01*
X60704170Y-51200000D01*
X60595830Y-51200000D01*
X60500000Y-51219062D01*
X60500000Y-51012473D01*
X60539571Y-51028864D01*
X60645830Y-51050000D01*
X60754170Y-51050000D01*
X60860429Y-51028864D01*
X60960523Y-50987403D01*
X61050604Y-50927213D01*
X61127213Y-50850604D01*
X61130402Y-50845830D01*
X71550000Y-50845830D01*
X71550000Y-50954170D01*
X71571136Y-51060429D01*
X71612597Y-51160523D01*
X71672787Y-51250604D01*
X71749396Y-51327213D01*
X71839477Y-51387403D01*
X71939571Y-51428864D01*
X72045830Y-51450000D01*
X72154170Y-51450000D01*
X72260429Y-51428864D01*
X72360523Y-51387403D01*
X72450604Y-51327213D01*
X72527213Y-51250604D01*
X72587403Y-51160523D01*
X72628864Y-51060429D01*
X72650000Y-50954170D01*
X72650000Y-50845830D01*
X72628864Y-50739571D01*
X72587403Y-50639477D01*
X72527213Y-50549396D01*
X72450604Y-50472787D01*
X72360523Y-50412597D01*
X72260429Y-50371136D01*
X72154170Y-50350000D01*
X72045830Y-50350000D01*
X71939571Y-50371136D01*
X71839477Y-50412597D01*
X71749396Y-50472787D01*
X71672787Y-50549396D01*
X71612597Y-50639477D01*
X71571136Y-50739571D01*
X71550000Y-50845830D01*
X61130402Y-50845830D01*
X61187403Y-50760523D01*
X61228864Y-50660429D01*
X61250000Y-50554170D01*
X61250000Y-50445830D01*
X61228864Y-50339571D01*
X61187403Y-50239477D01*
X61127213Y-50149396D01*
X61050604Y-50072787D01*
X60960523Y-50012597D01*
X60930112Y-50000000D01*
X60960523Y-49987403D01*
X61050604Y-49927213D01*
X61127213Y-49850604D01*
X61187403Y-49760523D01*
X61228864Y-49660429D01*
X61250000Y-49554170D01*
X61250000Y-49445830D01*
X61230109Y-49345830D01*
X62650000Y-49345830D01*
X62650000Y-49454170D01*
X62671136Y-49560429D01*
X62712597Y-49660523D01*
X62772787Y-49750604D01*
X62849396Y-49827213D01*
X62939477Y-49887403D01*
X63039571Y-49928864D01*
X63145830Y-49950000D01*
X63254170Y-49950000D01*
X63360429Y-49928864D01*
X63460523Y-49887403D01*
X63550604Y-49827213D01*
X63627213Y-49750604D01*
X63687403Y-49660523D01*
X63728864Y-49560429D01*
X63750000Y-49454170D01*
X63750000Y-49345830D01*
X63728864Y-49239571D01*
X63687403Y-49139477D01*
X63627213Y-49049396D01*
X63550604Y-48972787D01*
X63460523Y-48912597D01*
X63360429Y-48871136D01*
X63254170Y-48850000D01*
X63145830Y-48850000D01*
X63039571Y-48871136D01*
X62939477Y-48912597D01*
X62849396Y-48972787D01*
X62772787Y-49049396D01*
X62712597Y-49139477D01*
X62671136Y-49239571D01*
X62650000Y-49345830D01*
X61230109Y-49345830D01*
X61228864Y-49339571D01*
X61187403Y-49239477D01*
X61127213Y-49149396D01*
X61050604Y-49072787D01*
X60960523Y-49012597D01*
X60930112Y-49000000D01*
X60960523Y-48987403D01*
X61050604Y-48927213D01*
X61127213Y-48850604D01*
X61187403Y-48760523D01*
X61228864Y-48660429D01*
X61250000Y-48554170D01*
X61250000Y-48445830D01*
X61228864Y-48339571D01*
X61187403Y-48239477D01*
X61127213Y-48149396D01*
X61050604Y-48072787D01*
X60960523Y-48012597D01*
X60930112Y-48000000D01*
X60960523Y-47987403D01*
X61050604Y-47927213D01*
X61127213Y-47850604D01*
X61187403Y-47760523D01*
X61228864Y-47660429D01*
X61250000Y-47554170D01*
X61250000Y-47445830D01*
X61228864Y-47339571D01*
X61187403Y-47239477D01*
X61127213Y-47149396D01*
X61050604Y-47072787D01*
X60960523Y-47012597D01*
X60930112Y-47000000D01*
X60960523Y-46987403D01*
X61050604Y-46927213D01*
X61127213Y-46850604D01*
X61187403Y-46760523D01*
X61228864Y-46660429D01*
X61250000Y-46554170D01*
X61250000Y-46445830D01*
X61230939Y-46350001D01*
X85384417Y-46350001D01*
X86223196Y-46424860D01*
M02*
