G04 #@! TF.GenerationSoftware,KiCad,Pcbnew,(5.1.5-0-10_14)*
G04 #@! TF.CreationDate,2020-05-20T19:47:04+12:00*
G04 #@! TF.ProjectId,bluetooth-tracker,626c7565-746f-46f7-9468-2d747261636b,A*
G04 #@! TF.SameCoordinates,Original*
G04 #@! TF.FileFunction,Copper,L1,Top*
G04 #@! TF.FilePolarity,Positive*
%FSLAX46Y46*%
G04 Gerber Fmt 4.6, Leading zero omitted, Abs format (unit mm)*
G04 Created by KiCad (PCBNEW (5.1.5-0-10_14)) date 2020-05-20 19:47:04*
%MOMM*%
%LPD*%
G04 APERTURE LIST*
%ADD10C,0.100000*%
%ADD11C,0.320000*%
%ADD12R,5.080000X2.790000*%
%ADD13C,17.780000*%
%ADD14R,1.300000X3.400000*%
%ADD15C,1.500000*%
%ADD16C,0.250000*%
%ADD17R,1.300000X0.600000*%
%ADD18R,1.100000X1.900000*%
%ADD19O,0.200000X0.850000*%
%ADD20O,0.850000X0.200000*%
%ADD21R,4.300000X4.300000*%
%ADD22C,0.500000*%
%ADD23C,0.200000*%
%ADD24C,0.500000*%
G04 APERTURE END LIST*
D10*
G36*
X61200000Y-52800000D02*
G01*
X60400000Y-52800000D01*
X60400000Y-51000000D01*
X61200000Y-51000000D01*
X61200000Y-52800000D01*
G37*
X69400000Y-72000000D02*
G75*
G03X69400000Y-72000000I-5000000J0D01*
G01*
X60400000Y-46000001D02*
X85400000Y-46000001D01*
X85399999Y-81000000D02*
X64400000Y-81000000D01*
X90399999Y-76000002D02*
G75*
G02X85399999Y-81000000I-4999999J1D01*
G01*
X90400000Y-51000001D02*
X90400000Y-76000000D01*
X85400000Y-46000001D02*
G75*
G02X90400000Y-51000001I0J-5000000D01*
G01*
X55400001Y-51000001D02*
G75*
G02X60400001Y-46000001I5000000J0D01*
G01*
X55400000Y-71999999D02*
X55400000Y-51000001D01*
X64399999Y-81000000D02*
G75*
G02X55400000Y-71999999I1J9000000D01*
G01*
G36*
X58149251Y-56533039D02*
G01*
X58149251Y-58547434D01*
X55525459Y-58547434D01*
X55525459Y-61230473D01*
X58149251Y-61230473D01*
X58149251Y-63236404D01*
X55525459Y-63236404D01*
X55525459Y-65919443D01*
X59943586Y-65919443D01*
X59943586Y-65437004D01*
X56007898Y-65437004D01*
X56007898Y-63718843D01*
X58640154Y-63718843D01*
X58640154Y-60748034D01*
X56007898Y-60748034D01*
X56007898Y-59029926D01*
X57321910Y-59027784D01*
X58635922Y-59025641D01*
X58635922Y-56054831D01*
X57321910Y-56052689D01*
X56007898Y-56050546D01*
X56007898Y-54332439D01*
X60900000Y-54332439D01*
X60900000Y-53850000D01*
X56007898Y-53850000D01*
X56007898Y-52436537D01*
X60900000Y-52436537D01*
X60900000Y-51556298D01*
X55525459Y-51556298D01*
X55525459Y-56533039D01*
X58149251Y-56533039D01*
G37*
G04 #@! TA.AperFunction,SMDPad,CuDef*
G36*
X74746958Y-55580710D02*
G01*
X74761276Y-55582834D01*
X74775317Y-55586351D01*
X74788946Y-55591228D01*
X74802031Y-55597417D01*
X74814447Y-55604858D01*
X74826073Y-55613481D01*
X74836798Y-55623202D01*
X74846519Y-55633927D01*
X74855142Y-55645553D01*
X74862583Y-55657969D01*
X74868772Y-55671054D01*
X74873649Y-55684683D01*
X74877166Y-55698724D01*
X74879290Y-55713042D01*
X74880000Y-55727500D01*
X74880000Y-56072500D01*
X74879290Y-56086958D01*
X74877166Y-56101276D01*
X74873649Y-56115317D01*
X74868772Y-56128946D01*
X74862583Y-56142031D01*
X74855142Y-56154447D01*
X74846519Y-56166073D01*
X74836798Y-56176798D01*
X74826073Y-56186519D01*
X74814447Y-56195142D01*
X74802031Y-56202583D01*
X74788946Y-56208772D01*
X74775317Y-56213649D01*
X74761276Y-56217166D01*
X74746958Y-56219290D01*
X74732500Y-56220000D01*
X74437500Y-56220000D01*
X74423042Y-56219290D01*
X74408724Y-56217166D01*
X74394683Y-56213649D01*
X74381054Y-56208772D01*
X74367969Y-56202583D01*
X74355553Y-56195142D01*
X74343927Y-56186519D01*
X74333202Y-56176798D01*
X74323481Y-56166073D01*
X74314858Y-56154447D01*
X74307417Y-56142031D01*
X74301228Y-56128946D01*
X74296351Y-56115317D01*
X74292834Y-56101276D01*
X74290710Y-56086958D01*
X74290000Y-56072500D01*
X74290000Y-55727500D01*
X74290710Y-55713042D01*
X74292834Y-55698724D01*
X74296351Y-55684683D01*
X74301228Y-55671054D01*
X74307417Y-55657969D01*
X74314858Y-55645553D01*
X74323481Y-55633927D01*
X74333202Y-55623202D01*
X74343927Y-55613481D01*
X74355553Y-55604858D01*
X74367969Y-55597417D01*
X74381054Y-55591228D01*
X74394683Y-55586351D01*
X74408724Y-55582834D01*
X74423042Y-55580710D01*
X74437500Y-55580000D01*
X74732500Y-55580000D01*
X74746958Y-55580710D01*
G37*
G04 #@! TD.AperFunction*
G04 #@! TA.AperFunction,SMDPad,CuDef*
G36*
X73776958Y-55580710D02*
G01*
X73791276Y-55582834D01*
X73805317Y-55586351D01*
X73818946Y-55591228D01*
X73832031Y-55597417D01*
X73844447Y-55604858D01*
X73856073Y-55613481D01*
X73866798Y-55623202D01*
X73876519Y-55633927D01*
X73885142Y-55645553D01*
X73892583Y-55657969D01*
X73898772Y-55671054D01*
X73903649Y-55684683D01*
X73907166Y-55698724D01*
X73909290Y-55713042D01*
X73910000Y-55727500D01*
X73910000Y-56072500D01*
X73909290Y-56086958D01*
X73907166Y-56101276D01*
X73903649Y-56115317D01*
X73898772Y-56128946D01*
X73892583Y-56142031D01*
X73885142Y-56154447D01*
X73876519Y-56166073D01*
X73866798Y-56176798D01*
X73856073Y-56186519D01*
X73844447Y-56195142D01*
X73832031Y-56202583D01*
X73818946Y-56208772D01*
X73805317Y-56213649D01*
X73791276Y-56217166D01*
X73776958Y-56219290D01*
X73762500Y-56220000D01*
X73467500Y-56220000D01*
X73453042Y-56219290D01*
X73438724Y-56217166D01*
X73424683Y-56213649D01*
X73411054Y-56208772D01*
X73397969Y-56202583D01*
X73385553Y-56195142D01*
X73373927Y-56186519D01*
X73363202Y-56176798D01*
X73353481Y-56166073D01*
X73344858Y-56154447D01*
X73337417Y-56142031D01*
X73331228Y-56128946D01*
X73326351Y-56115317D01*
X73322834Y-56101276D01*
X73320710Y-56086958D01*
X73320000Y-56072500D01*
X73320000Y-55727500D01*
X73320710Y-55713042D01*
X73322834Y-55698724D01*
X73326351Y-55684683D01*
X73331228Y-55671054D01*
X73337417Y-55657969D01*
X73344858Y-55645553D01*
X73353481Y-55633927D01*
X73363202Y-55623202D01*
X73373927Y-55613481D01*
X73385553Y-55604858D01*
X73397969Y-55597417D01*
X73411054Y-55591228D01*
X73424683Y-55586351D01*
X73438724Y-55582834D01*
X73453042Y-55580710D01*
X73467500Y-55580000D01*
X73762500Y-55580000D01*
X73776958Y-55580710D01*
G37*
G04 #@! TD.AperFunction*
G04 #@! TA.AperFunction,SMDPad,CuDef*
G36*
X73776958Y-50280710D02*
G01*
X73791276Y-50282834D01*
X73805317Y-50286351D01*
X73818946Y-50291228D01*
X73832031Y-50297417D01*
X73844447Y-50304858D01*
X73856073Y-50313481D01*
X73866798Y-50323202D01*
X73876519Y-50333927D01*
X73885142Y-50345553D01*
X73892583Y-50357969D01*
X73898772Y-50371054D01*
X73903649Y-50384683D01*
X73907166Y-50398724D01*
X73909290Y-50413042D01*
X73910000Y-50427500D01*
X73910000Y-50772500D01*
X73909290Y-50786958D01*
X73907166Y-50801276D01*
X73903649Y-50815317D01*
X73898772Y-50828946D01*
X73892583Y-50842031D01*
X73885142Y-50854447D01*
X73876519Y-50866073D01*
X73866798Y-50876798D01*
X73856073Y-50886519D01*
X73844447Y-50895142D01*
X73832031Y-50902583D01*
X73818946Y-50908772D01*
X73805317Y-50913649D01*
X73791276Y-50917166D01*
X73776958Y-50919290D01*
X73762500Y-50920000D01*
X73467500Y-50920000D01*
X73453042Y-50919290D01*
X73438724Y-50917166D01*
X73424683Y-50913649D01*
X73411054Y-50908772D01*
X73397969Y-50902583D01*
X73385553Y-50895142D01*
X73373927Y-50886519D01*
X73363202Y-50876798D01*
X73353481Y-50866073D01*
X73344858Y-50854447D01*
X73337417Y-50842031D01*
X73331228Y-50828946D01*
X73326351Y-50815317D01*
X73322834Y-50801276D01*
X73320710Y-50786958D01*
X73320000Y-50772500D01*
X73320000Y-50427500D01*
X73320710Y-50413042D01*
X73322834Y-50398724D01*
X73326351Y-50384683D01*
X73331228Y-50371054D01*
X73337417Y-50357969D01*
X73344858Y-50345553D01*
X73353481Y-50333927D01*
X73363202Y-50323202D01*
X73373927Y-50313481D01*
X73385553Y-50304858D01*
X73397969Y-50297417D01*
X73411054Y-50291228D01*
X73424683Y-50286351D01*
X73438724Y-50282834D01*
X73453042Y-50280710D01*
X73467500Y-50280000D01*
X73762500Y-50280000D01*
X73776958Y-50280710D01*
G37*
G04 #@! TD.AperFunction*
G04 #@! TA.AperFunction,SMDPad,CuDef*
G36*
X74746958Y-50280710D02*
G01*
X74761276Y-50282834D01*
X74775317Y-50286351D01*
X74788946Y-50291228D01*
X74802031Y-50297417D01*
X74814447Y-50304858D01*
X74826073Y-50313481D01*
X74836798Y-50323202D01*
X74846519Y-50333927D01*
X74855142Y-50345553D01*
X74862583Y-50357969D01*
X74868772Y-50371054D01*
X74873649Y-50384683D01*
X74877166Y-50398724D01*
X74879290Y-50413042D01*
X74880000Y-50427500D01*
X74880000Y-50772500D01*
X74879290Y-50786958D01*
X74877166Y-50801276D01*
X74873649Y-50815317D01*
X74868772Y-50828946D01*
X74862583Y-50842031D01*
X74855142Y-50854447D01*
X74846519Y-50866073D01*
X74836798Y-50876798D01*
X74826073Y-50886519D01*
X74814447Y-50895142D01*
X74802031Y-50902583D01*
X74788946Y-50908772D01*
X74775317Y-50913649D01*
X74761276Y-50917166D01*
X74746958Y-50919290D01*
X74732500Y-50920000D01*
X74437500Y-50920000D01*
X74423042Y-50919290D01*
X74408724Y-50917166D01*
X74394683Y-50913649D01*
X74381054Y-50908772D01*
X74367969Y-50902583D01*
X74355553Y-50895142D01*
X74343927Y-50886519D01*
X74333202Y-50876798D01*
X74323481Y-50866073D01*
X74314858Y-50854447D01*
X74307417Y-50842031D01*
X74301228Y-50828946D01*
X74296351Y-50815317D01*
X74292834Y-50801276D01*
X74290710Y-50786958D01*
X74290000Y-50772500D01*
X74290000Y-50427500D01*
X74290710Y-50413042D01*
X74292834Y-50398724D01*
X74296351Y-50384683D01*
X74301228Y-50371054D01*
X74307417Y-50357969D01*
X74314858Y-50345553D01*
X74323481Y-50333927D01*
X74333202Y-50323202D01*
X74343927Y-50313481D01*
X74355553Y-50304858D01*
X74367969Y-50297417D01*
X74381054Y-50291228D01*
X74394683Y-50286351D01*
X74408724Y-50282834D01*
X74423042Y-50280710D01*
X74437500Y-50280000D01*
X74732500Y-50280000D01*
X74746958Y-50280710D01*
G37*
G04 #@! TD.AperFunction*
G04 #@! TA.AperFunction,SMDPad,CuDef*
G36*
X73776958Y-53080710D02*
G01*
X73791276Y-53082834D01*
X73805317Y-53086351D01*
X73818946Y-53091228D01*
X73832031Y-53097417D01*
X73844447Y-53104858D01*
X73856073Y-53113481D01*
X73866798Y-53123202D01*
X73876519Y-53133927D01*
X73885142Y-53145553D01*
X73892583Y-53157969D01*
X73898772Y-53171054D01*
X73903649Y-53184683D01*
X73907166Y-53198724D01*
X73909290Y-53213042D01*
X73910000Y-53227500D01*
X73910000Y-53572500D01*
X73909290Y-53586958D01*
X73907166Y-53601276D01*
X73903649Y-53615317D01*
X73898772Y-53628946D01*
X73892583Y-53642031D01*
X73885142Y-53654447D01*
X73876519Y-53666073D01*
X73866798Y-53676798D01*
X73856073Y-53686519D01*
X73844447Y-53695142D01*
X73832031Y-53702583D01*
X73818946Y-53708772D01*
X73805317Y-53713649D01*
X73791276Y-53717166D01*
X73776958Y-53719290D01*
X73762500Y-53720000D01*
X73467500Y-53720000D01*
X73453042Y-53719290D01*
X73438724Y-53717166D01*
X73424683Y-53713649D01*
X73411054Y-53708772D01*
X73397969Y-53702583D01*
X73385553Y-53695142D01*
X73373927Y-53686519D01*
X73363202Y-53676798D01*
X73353481Y-53666073D01*
X73344858Y-53654447D01*
X73337417Y-53642031D01*
X73331228Y-53628946D01*
X73326351Y-53615317D01*
X73322834Y-53601276D01*
X73320710Y-53586958D01*
X73320000Y-53572500D01*
X73320000Y-53227500D01*
X73320710Y-53213042D01*
X73322834Y-53198724D01*
X73326351Y-53184683D01*
X73331228Y-53171054D01*
X73337417Y-53157969D01*
X73344858Y-53145553D01*
X73353481Y-53133927D01*
X73363202Y-53123202D01*
X73373927Y-53113481D01*
X73385553Y-53104858D01*
X73397969Y-53097417D01*
X73411054Y-53091228D01*
X73424683Y-53086351D01*
X73438724Y-53082834D01*
X73453042Y-53080710D01*
X73467500Y-53080000D01*
X73762500Y-53080000D01*
X73776958Y-53080710D01*
G37*
G04 #@! TD.AperFunction*
G04 #@! TA.AperFunction,SMDPad,CuDef*
G36*
X74746958Y-53080710D02*
G01*
X74761276Y-53082834D01*
X74775317Y-53086351D01*
X74788946Y-53091228D01*
X74802031Y-53097417D01*
X74814447Y-53104858D01*
X74826073Y-53113481D01*
X74836798Y-53123202D01*
X74846519Y-53133927D01*
X74855142Y-53145553D01*
X74862583Y-53157969D01*
X74868772Y-53171054D01*
X74873649Y-53184683D01*
X74877166Y-53198724D01*
X74879290Y-53213042D01*
X74880000Y-53227500D01*
X74880000Y-53572500D01*
X74879290Y-53586958D01*
X74877166Y-53601276D01*
X74873649Y-53615317D01*
X74868772Y-53628946D01*
X74862583Y-53642031D01*
X74855142Y-53654447D01*
X74846519Y-53666073D01*
X74836798Y-53676798D01*
X74826073Y-53686519D01*
X74814447Y-53695142D01*
X74802031Y-53702583D01*
X74788946Y-53708772D01*
X74775317Y-53713649D01*
X74761276Y-53717166D01*
X74746958Y-53719290D01*
X74732500Y-53720000D01*
X74437500Y-53720000D01*
X74423042Y-53719290D01*
X74408724Y-53717166D01*
X74394683Y-53713649D01*
X74381054Y-53708772D01*
X74367969Y-53702583D01*
X74355553Y-53695142D01*
X74343927Y-53686519D01*
X74333202Y-53676798D01*
X74323481Y-53666073D01*
X74314858Y-53654447D01*
X74307417Y-53642031D01*
X74301228Y-53628946D01*
X74296351Y-53615317D01*
X74292834Y-53601276D01*
X74290710Y-53586958D01*
X74290000Y-53572500D01*
X74290000Y-53227500D01*
X74290710Y-53213042D01*
X74292834Y-53198724D01*
X74296351Y-53184683D01*
X74301228Y-53171054D01*
X74307417Y-53157969D01*
X74314858Y-53145553D01*
X74323481Y-53133927D01*
X74333202Y-53123202D01*
X74343927Y-53113481D01*
X74355553Y-53104858D01*
X74367969Y-53097417D01*
X74381054Y-53091228D01*
X74394683Y-53086351D01*
X74408724Y-53082834D01*
X74423042Y-53080710D01*
X74437500Y-53080000D01*
X74732500Y-53080000D01*
X74746958Y-53080710D01*
G37*
G04 #@! TD.AperFunction*
G04 #@! TA.AperFunction,SMDPad,CuDef*
G36*
X73776958Y-54080710D02*
G01*
X73791276Y-54082834D01*
X73805317Y-54086351D01*
X73818946Y-54091228D01*
X73832031Y-54097417D01*
X73844447Y-54104858D01*
X73856073Y-54113481D01*
X73866798Y-54123202D01*
X73876519Y-54133927D01*
X73885142Y-54145553D01*
X73892583Y-54157969D01*
X73898772Y-54171054D01*
X73903649Y-54184683D01*
X73907166Y-54198724D01*
X73909290Y-54213042D01*
X73910000Y-54227500D01*
X73910000Y-54572500D01*
X73909290Y-54586958D01*
X73907166Y-54601276D01*
X73903649Y-54615317D01*
X73898772Y-54628946D01*
X73892583Y-54642031D01*
X73885142Y-54654447D01*
X73876519Y-54666073D01*
X73866798Y-54676798D01*
X73856073Y-54686519D01*
X73844447Y-54695142D01*
X73832031Y-54702583D01*
X73818946Y-54708772D01*
X73805317Y-54713649D01*
X73791276Y-54717166D01*
X73776958Y-54719290D01*
X73762500Y-54720000D01*
X73467500Y-54720000D01*
X73453042Y-54719290D01*
X73438724Y-54717166D01*
X73424683Y-54713649D01*
X73411054Y-54708772D01*
X73397969Y-54702583D01*
X73385553Y-54695142D01*
X73373927Y-54686519D01*
X73363202Y-54676798D01*
X73353481Y-54666073D01*
X73344858Y-54654447D01*
X73337417Y-54642031D01*
X73331228Y-54628946D01*
X73326351Y-54615317D01*
X73322834Y-54601276D01*
X73320710Y-54586958D01*
X73320000Y-54572500D01*
X73320000Y-54227500D01*
X73320710Y-54213042D01*
X73322834Y-54198724D01*
X73326351Y-54184683D01*
X73331228Y-54171054D01*
X73337417Y-54157969D01*
X73344858Y-54145553D01*
X73353481Y-54133927D01*
X73363202Y-54123202D01*
X73373927Y-54113481D01*
X73385553Y-54104858D01*
X73397969Y-54097417D01*
X73411054Y-54091228D01*
X73424683Y-54086351D01*
X73438724Y-54082834D01*
X73453042Y-54080710D01*
X73467500Y-54080000D01*
X73762500Y-54080000D01*
X73776958Y-54080710D01*
G37*
G04 #@! TD.AperFunction*
G04 #@! TA.AperFunction,SMDPad,CuDef*
G36*
X74746958Y-54080710D02*
G01*
X74761276Y-54082834D01*
X74775317Y-54086351D01*
X74788946Y-54091228D01*
X74802031Y-54097417D01*
X74814447Y-54104858D01*
X74826073Y-54113481D01*
X74836798Y-54123202D01*
X74846519Y-54133927D01*
X74855142Y-54145553D01*
X74862583Y-54157969D01*
X74868772Y-54171054D01*
X74873649Y-54184683D01*
X74877166Y-54198724D01*
X74879290Y-54213042D01*
X74880000Y-54227500D01*
X74880000Y-54572500D01*
X74879290Y-54586958D01*
X74877166Y-54601276D01*
X74873649Y-54615317D01*
X74868772Y-54628946D01*
X74862583Y-54642031D01*
X74855142Y-54654447D01*
X74846519Y-54666073D01*
X74836798Y-54676798D01*
X74826073Y-54686519D01*
X74814447Y-54695142D01*
X74802031Y-54702583D01*
X74788946Y-54708772D01*
X74775317Y-54713649D01*
X74761276Y-54717166D01*
X74746958Y-54719290D01*
X74732500Y-54720000D01*
X74437500Y-54720000D01*
X74423042Y-54719290D01*
X74408724Y-54717166D01*
X74394683Y-54713649D01*
X74381054Y-54708772D01*
X74367969Y-54702583D01*
X74355553Y-54695142D01*
X74343927Y-54686519D01*
X74333202Y-54676798D01*
X74323481Y-54666073D01*
X74314858Y-54654447D01*
X74307417Y-54642031D01*
X74301228Y-54628946D01*
X74296351Y-54615317D01*
X74292834Y-54601276D01*
X74290710Y-54586958D01*
X74290000Y-54572500D01*
X74290000Y-54227500D01*
X74290710Y-54213042D01*
X74292834Y-54198724D01*
X74296351Y-54184683D01*
X74301228Y-54171054D01*
X74307417Y-54157969D01*
X74314858Y-54145553D01*
X74323481Y-54133927D01*
X74333202Y-54123202D01*
X74343927Y-54113481D01*
X74355553Y-54104858D01*
X74367969Y-54097417D01*
X74381054Y-54091228D01*
X74394683Y-54086351D01*
X74408724Y-54082834D01*
X74423042Y-54080710D01*
X74437500Y-54080000D01*
X74732500Y-54080000D01*
X74746958Y-54080710D01*
G37*
G04 #@! TD.AperFunction*
G04 #@! TA.AperFunction,SMDPad,CuDef*
G36*
X61076958Y-53780710D02*
G01*
X61091276Y-53782834D01*
X61105317Y-53786351D01*
X61118946Y-53791228D01*
X61132031Y-53797417D01*
X61144447Y-53804858D01*
X61156073Y-53813481D01*
X61166798Y-53823202D01*
X61176519Y-53833927D01*
X61185142Y-53845553D01*
X61192583Y-53857969D01*
X61198772Y-53871054D01*
X61203649Y-53884683D01*
X61207166Y-53898724D01*
X61209290Y-53913042D01*
X61210000Y-53927500D01*
X61210000Y-54272500D01*
X61209290Y-54286958D01*
X61207166Y-54301276D01*
X61203649Y-54315317D01*
X61198772Y-54328946D01*
X61192583Y-54342031D01*
X61185142Y-54354447D01*
X61176519Y-54366073D01*
X61166798Y-54376798D01*
X61156073Y-54386519D01*
X61144447Y-54395142D01*
X61132031Y-54402583D01*
X61118946Y-54408772D01*
X61105317Y-54413649D01*
X61091276Y-54417166D01*
X61076958Y-54419290D01*
X61062500Y-54420000D01*
X60767500Y-54420000D01*
X60753042Y-54419290D01*
X60738724Y-54417166D01*
X60724683Y-54413649D01*
X60711054Y-54408772D01*
X60697969Y-54402583D01*
X60685553Y-54395142D01*
X60673927Y-54386519D01*
X60663202Y-54376798D01*
X60653481Y-54366073D01*
X60644858Y-54354447D01*
X60637417Y-54342031D01*
X60631228Y-54328946D01*
X60626351Y-54315317D01*
X60622834Y-54301276D01*
X60620710Y-54286958D01*
X60620000Y-54272500D01*
X60620000Y-53927500D01*
X60620710Y-53913042D01*
X60622834Y-53898724D01*
X60626351Y-53884683D01*
X60631228Y-53871054D01*
X60637417Y-53857969D01*
X60644858Y-53845553D01*
X60653481Y-53833927D01*
X60663202Y-53823202D01*
X60673927Y-53813481D01*
X60685553Y-53804858D01*
X60697969Y-53797417D01*
X60711054Y-53791228D01*
X60724683Y-53786351D01*
X60738724Y-53782834D01*
X60753042Y-53780710D01*
X60767500Y-53780000D01*
X61062500Y-53780000D01*
X61076958Y-53780710D01*
G37*
G04 #@! TD.AperFunction*
G04 #@! TA.AperFunction,SMDPad,CuDef*
G36*
X62046958Y-53780710D02*
G01*
X62061276Y-53782834D01*
X62075317Y-53786351D01*
X62088946Y-53791228D01*
X62102031Y-53797417D01*
X62114447Y-53804858D01*
X62126073Y-53813481D01*
X62136798Y-53823202D01*
X62146519Y-53833927D01*
X62155142Y-53845553D01*
X62162583Y-53857969D01*
X62168772Y-53871054D01*
X62173649Y-53884683D01*
X62177166Y-53898724D01*
X62179290Y-53913042D01*
X62180000Y-53927500D01*
X62180000Y-54272500D01*
X62179290Y-54286958D01*
X62177166Y-54301276D01*
X62173649Y-54315317D01*
X62168772Y-54328946D01*
X62162583Y-54342031D01*
X62155142Y-54354447D01*
X62146519Y-54366073D01*
X62136798Y-54376798D01*
X62126073Y-54386519D01*
X62114447Y-54395142D01*
X62102031Y-54402583D01*
X62088946Y-54408772D01*
X62075317Y-54413649D01*
X62061276Y-54417166D01*
X62046958Y-54419290D01*
X62032500Y-54420000D01*
X61737500Y-54420000D01*
X61723042Y-54419290D01*
X61708724Y-54417166D01*
X61694683Y-54413649D01*
X61681054Y-54408772D01*
X61667969Y-54402583D01*
X61655553Y-54395142D01*
X61643927Y-54386519D01*
X61633202Y-54376798D01*
X61623481Y-54366073D01*
X61614858Y-54354447D01*
X61607417Y-54342031D01*
X61601228Y-54328946D01*
X61596351Y-54315317D01*
X61592834Y-54301276D01*
X61590710Y-54286958D01*
X61590000Y-54272500D01*
X61590000Y-53927500D01*
X61590710Y-53913042D01*
X61592834Y-53898724D01*
X61596351Y-53884683D01*
X61601228Y-53871054D01*
X61607417Y-53857969D01*
X61614858Y-53845553D01*
X61623481Y-53833927D01*
X61633202Y-53823202D01*
X61643927Y-53813481D01*
X61655553Y-53804858D01*
X61667969Y-53797417D01*
X61681054Y-53791228D01*
X61694683Y-53786351D01*
X61708724Y-53782834D01*
X61723042Y-53780710D01*
X61737500Y-53780000D01*
X62032500Y-53780000D01*
X62046958Y-53780710D01*
G37*
G04 #@! TD.AperFunction*
G04 #@! TA.AperFunction,SMDPad,CuDef*
G36*
X61086958Y-55775710D02*
G01*
X61101276Y-55777834D01*
X61115317Y-55781351D01*
X61128946Y-55786228D01*
X61142031Y-55792417D01*
X61154447Y-55799858D01*
X61166073Y-55808481D01*
X61176798Y-55818202D01*
X61186519Y-55828927D01*
X61195142Y-55840553D01*
X61202583Y-55852969D01*
X61208772Y-55866054D01*
X61213649Y-55879683D01*
X61217166Y-55893724D01*
X61219290Y-55908042D01*
X61220000Y-55922500D01*
X61220000Y-56217500D01*
X61219290Y-56231958D01*
X61217166Y-56246276D01*
X61213649Y-56260317D01*
X61208772Y-56273946D01*
X61202583Y-56287031D01*
X61195142Y-56299447D01*
X61186519Y-56311073D01*
X61176798Y-56321798D01*
X61166073Y-56331519D01*
X61154447Y-56340142D01*
X61142031Y-56347583D01*
X61128946Y-56353772D01*
X61115317Y-56358649D01*
X61101276Y-56362166D01*
X61086958Y-56364290D01*
X61072500Y-56365000D01*
X60727500Y-56365000D01*
X60713042Y-56364290D01*
X60698724Y-56362166D01*
X60684683Y-56358649D01*
X60671054Y-56353772D01*
X60657969Y-56347583D01*
X60645553Y-56340142D01*
X60633927Y-56331519D01*
X60623202Y-56321798D01*
X60613481Y-56311073D01*
X60604858Y-56299447D01*
X60597417Y-56287031D01*
X60591228Y-56273946D01*
X60586351Y-56260317D01*
X60582834Y-56246276D01*
X60580710Y-56231958D01*
X60580000Y-56217500D01*
X60580000Y-55922500D01*
X60580710Y-55908042D01*
X60582834Y-55893724D01*
X60586351Y-55879683D01*
X60591228Y-55866054D01*
X60597417Y-55852969D01*
X60604858Y-55840553D01*
X60613481Y-55828927D01*
X60623202Y-55818202D01*
X60633927Y-55808481D01*
X60645553Y-55799858D01*
X60657969Y-55792417D01*
X60671054Y-55786228D01*
X60684683Y-55781351D01*
X60698724Y-55777834D01*
X60713042Y-55775710D01*
X60727500Y-55775000D01*
X61072500Y-55775000D01*
X61086958Y-55775710D01*
G37*
G04 #@! TD.AperFunction*
G04 #@! TA.AperFunction,SMDPad,CuDef*
G36*
X61086958Y-54805710D02*
G01*
X61101276Y-54807834D01*
X61115317Y-54811351D01*
X61128946Y-54816228D01*
X61142031Y-54822417D01*
X61154447Y-54829858D01*
X61166073Y-54838481D01*
X61176798Y-54848202D01*
X61186519Y-54858927D01*
X61195142Y-54870553D01*
X61202583Y-54882969D01*
X61208772Y-54896054D01*
X61213649Y-54909683D01*
X61217166Y-54923724D01*
X61219290Y-54938042D01*
X61220000Y-54952500D01*
X61220000Y-55247500D01*
X61219290Y-55261958D01*
X61217166Y-55276276D01*
X61213649Y-55290317D01*
X61208772Y-55303946D01*
X61202583Y-55317031D01*
X61195142Y-55329447D01*
X61186519Y-55341073D01*
X61176798Y-55351798D01*
X61166073Y-55361519D01*
X61154447Y-55370142D01*
X61142031Y-55377583D01*
X61128946Y-55383772D01*
X61115317Y-55388649D01*
X61101276Y-55392166D01*
X61086958Y-55394290D01*
X61072500Y-55395000D01*
X60727500Y-55395000D01*
X60713042Y-55394290D01*
X60698724Y-55392166D01*
X60684683Y-55388649D01*
X60671054Y-55383772D01*
X60657969Y-55377583D01*
X60645553Y-55370142D01*
X60633927Y-55361519D01*
X60623202Y-55351798D01*
X60613481Y-55341073D01*
X60604858Y-55329447D01*
X60597417Y-55317031D01*
X60591228Y-55303946D01*
X60586351Y-55290317D01*
X60582834Y-55276276D01*
X60580710Y-55261958D01*
X60580000Y-55247500D01*
X60580000Y-54952500D01*
X60580710Y-54938042D01*
X60582834Y-54923724D01*
X60586351Y-54909683D01*
X60591228Y-54896054D01*
X60597417Y-54882969D01*
X60604858Y-54870553D01*
X60613481Y-54858927D01*
X60623202Y-54848202D01*
X60633927Y-54838481D01*
X60645553Y-54829858D01*
X60657969Y-54822417D01*
X60671054Y-54816228D01*
X60684683Y-54811351D01*
X60698724Y-54807834D01*
X60713042Y-54805710D01*
X60727500Y-54805000D01*
X61072500Y-54805000D01*
X61086958Y-54805710D01*
G37*
G04 #@! TD.AperFunction*
G04 #@! TA.AperFunction,SMDPad,CuDef*
G36*
X62086958Y-51835710D02*
G01*
X62101276Y-51837834D01*
X62115317Y-51841351D01*
X62128946Y-51846228D01*
X62142031Y-51852417D01*
X62154447Y-51859858D01*
X62166073Y-51868481D01*
X62176798Y-51878202D01*
X62186519Y-51888927D01*
X62195142Y-51900553D01*
X62202583Y-51912969D01*
X62208772Y-51926054D01*
X62213649Y-51939683D01*
X62217166Y-51953724D01*
X62219290Y-51968042D01*
X62220000Y-51982500D01*
X62220000Y-52277500D01*
X62219290Y-52291958D01*
X62217166Y-52306276D01*
X62213649Y-52320317D01*
X62208772Y-52333946D01*
X62202583Y-52347031D01*
X62195142Y-52359447D01*
X62186519Y-52371073D01*
X62176798Y-52381798D01*
X62166073Y-52391519D01*
X62154447Y-52400142D01*
X62142031Y-52407583D01*
X62128946Y-52413772D01*
X62115317Y-52418649D01*
X62101276Y-52422166D01*
X62086958Y-52424290D01*
X62072500Y-52425000D01*
X61727500Y-52425000D01*
X61713042Y-52424290D01*
X61698724Y-52422166D01*
X61684683Y-52418649D01*
X61671054Y-52413772D01*
X61657969Y-52407583D01*
X61645553Y-52400142D01*
X61633927Y-52391519D01*
X61623202Y-52381798D01*
X61613481Y-52371073D01*
X61604858Y-52359447D01*
X61597417Y-52347031D01*
X61591228Y-52333946D01*
X61586351Y-52320317D01*
X61582834Y-52306276D01*
X61580710Y-52291958D01*
X61580000Y-52277500D01*
X61580000Y-51982500D01*
X61580710Y-51968042D01*
X61582834Y-51953724D01*
X61586351Y-51939683D01*
X61591228Y-51926054D01*
X61597417Y-51912969D01*
X61604858Y-51900553D01*
X61613481Y-51888927D01*
X61623202Y-51878202D01*
X61633927Y-51868481D01*
X61645553Y-51859858D01*
X61657969Y-51852417D01*
X61671054Y-51846228D01*
X61684683Y-51841351D01*
X61698724Y-51837834D01*
X61713042Y-51835710D01*
X61727500Y-51835000D01*
X62072500Y-51835000D01*
X62086958Y-51835710D01*
G37*
G04 #@! TD.AperFunction*
G04 #@! TA.AperFunction,SMDPad,CuDef*
G36*
X62086958Y-52805710D02*
G01*
X62101276Y-52807834D01*
X62115317Y-52811351D01*
X62128946Y-52816228D01*
X62142031Y-52822417D01*
X62154447Y-52829858D01*
X62166073Y-52838481D01*
X62176798Y-52848202D01*
X62186519Y-52858927D01*
X62195142Y-52870553D01*
X62202583Y-52882969D01*
X62208772Y-52896054D01*
X62213649Y-52909683D01*
X62217166Y-52923724D01*
X62219290Y-52938042D01*
X62220000Y-52952500D01*
X62220000Y-53247500D01*
X62219290Y-53261958D01*
X62217166Y-53276276D01*
X62213649Y-53290317D01*
X62208772Y-53303946D01*
X62202583Y-53317031D01*
X62195142Y-53329447D01*
X62186519Y-53341073D01*
X62176798Y-53351798D01*
X62166073Y-53361519D01*
X62154447Y-53370142D01*
X62142031Y-53377583D01*
X62128946Y-53383772D01*
X62115317Y-53388649D01*
X62101276Y-53392166D01*
X62086958Y-53394290D01*
X62072500Y-53395000D01*
X61727500Y-53395000D01*
X61713042Y-53394290D01*
X61698724Y-53392166D01*
X61684683Y-53388649D01*
X61671054Y-53383772D01*
X61657969Y-53377583D01*
X61645553Y-53370142D01*
X61633927Y-53361519D01*
X61623202Y-53351798D01*
X61613481Y-53341073D01*
X61604858Y-53329447D01*
X61597417Y-53317031D01*
X61591228Y-53303946D01*
X61586351Y-53290317D01*
X61582834Y-53276276D01*
X61580710Y-53261958D01*
X61580000Y-53247500D01*
X61580000Y-52952500D01*
X61580710Y-52938042D01*
X61582834Y-52923724D01*
X61586351Y-52909683D01*
X61591228Y-52896054D01*
X61597417Y-52882969D01*
X61604858Y-52870553D01*
X61613481Y-52858927D01*
X61623202Y-52848202D01*
X61633927Y-52838481D01*
X61645553Y-52829858D01*
X61657969Y-52822417D01*
X61671054Y-52816228D01*
X61684683Y-52811351D01*
X61698724Y-52807834D01*
X61713042Y-52805710D01*
X61727500Y-52805000D01*
X62072500Y-52805000D01*
X62086958Y-52805710D01*
G37*
G04 #@! TD.AperFunction*
G04 #@! TA.AperFunction,SMDPad,CuDef*
G36*
X65386958Y-51820710D02*
G01*
X65401276Y-51822834D01*
X65415317Y-51826351D01*
X65428946Y-51831228D01*
X65442031Y-51837417D01*
X65454447Y-51844858D01*
X65466073Y-51853481D01*
X65476798Y-51863202D01*
X65486519Y-51873927D01*
X65495142Y-51885553D01*
X65502583Y-51897969D01*
X65508772Y-51911054D01*
X65513649Y-51924683D01*
X65517166Y-51938724D01*
X65519290Y-51953042D01*
X65520000Y-51967500D01*
X65520000Y-52262500D01*
X65519290Y-52276958D01*
X65517166Y-52291276D01*
X65513649Y-52305317D01*
X65508772Y-52318946D01*
X65502583Y-52332031D01*
X65495142Y-52344447D01*
X65486519Y-52356073D01*
X65476798Y-52366798D01*
X65466073Y-52376519D01*
X65454447Y-52385142D01*
X65442031Y-52392583D01*
X65428946Y-52398772D01*
X65415317Y-52403649D01*
X65401276Y-52407166D01*
X65386958Y-52409290D01*
X65372500Y-52410000D01*
X65027500Y-52410000D01*
X65013042Y-52409290D01*
X64998724Y-52407166D01*
X64984683Y-52403649D01*
X64971054Y-52398772D01*
X64957969Y-52392583D01*
X64945553Y-52385142D01*
X64933927Y-52376519D01*
X64923202Y-52366798D01*
X64913481Y-52356073D01*
X64904858Y-52344447D01*
X64897417Y-52332031D01*
X64891228Y-52318946D01*
X64886351Y-52305317D01*
X64882834Y-52291276D01*
X64880710Y-52276958D01*
X64880000Y-52262500D01*
X64880000Y-51967500D01*
X64880710Y-51953042D01*
X64882834Y-51938724D01*
X64886351Y-51924683D01*
X64891228Y-51911054D01*
X64897417Y-51897969D01*
X64904858Y-51885553D01*
X64913481Y-51873927D01*
X64923202Y-51863202D01*
X64933927Y-51853481D01*
X64945553Y-51844858D01*
X64957969Y-51837417D01*
X64971054Y-51831228D01*
X64984683Y-51826351D01*
X64998724Y-51822834D01*
X65013042Y-51820710D01*
X65027500Y-51820000D01*
X65372500Y-51820000D01*
X65386958Y-51820710D01*
G37*
G04 #@! TD.AperFunction*
G04 #@! TA.AperFunction,SMDPad,CuDef*
G36*
X65386958Y-52790710D02*
G01*
X65401276Y-52792834D01*
X65415317Y-52796351D01*
X65428946Y-52801228D01*
X65442031Y-52807417D01*
X65454447Y-52814858D01*
X65466073Y-52823481D01*
X65476798Y-52833202D01*
X65486519Y-52843927D01*
X65495142Y-52855553D01*
X65502583Y-52867969D01*
X65508772Y-52881054D01*
X65513649Y-52894683D01*
X65517166Y-52908724D01*
X65519290Y-52923042D01*
X65520000Y-52937500D01*
X65520000Y-53232500D01*
X65519290Y-53246958D01*
X65517166Y-53261276D01*
X65513649Y-53275317D01*
X65508772Y-53288946D01*
X65502583Y-53302031D01*
X65495142Y-53314447D01*
X65486519Y-53326073D01*
X65476798Y-53336798D01*
X65466073Y-53346519D01*
X65454447Y-53355142D01*
X65442031Y-53362583D01*
X65428946Y-53368772D01*
X65415317Y-53373649D01*
X65401276Y-53377166D01*
X65386958Y-53379290D01*
X65372500Y-53380000D01*
X65027500Y-53380000D01*
X65013042Y-53379290D01*
X64998724Y-53377166D01*
X64984683Y-53373649D01*
X64971054Y-53368772D01*
X64957969Y-53362583D01*
X64945553Y-53355142D01*
X64933927Y-53346519D01*
X64923202Y-53336798D01*
X64913481Y-53326073D01*
X64904858Y-53314447D01*
X64897417Y-53302031D01*
X64891228Y-53288946D01*
X64886351Y-53275317D01*
X64882834Y-53261276D01*
X64880710Y-53246958D01*
X64880000Y-53232500D01*
X64880000Y-52937500D01*
X64880710Y-52923042D01*
X64882834Y-52908724D01*
X64886351Y-52894683D01*
X64891228Y-52881054D01*
X64897417Y-52867969D01*
X64904858Y-52855553D01*
X64913481Y-52843927D01*
X64923202Y-52833202D01*
X64933927Y-52823481D01*
X64945553Y-52814858D01*
X64957969Y-52807417D01*
X64971054Y-52801228D01*
X64984683Y-52796351D01*
X64998724Y-52792834D01*
X65013042Y-52790710D01*
X65027500Y-52790000D01*
X65372500Y-52790000D01*
X65386958Y-52790710D01*
G37*
G04 #@! TD.AperFunction*
G04 #@! TA.AperFunction,SMDPad,CuDef*
G36*
X74746958Y-51280710D02*
G01*
X74761276Y-51282834D01*
X74775317Y-51286351D01*
X74788946Y-51291228D01*
X74802031Y-51297417D01*
X74814447Y-51304858D01*
X74826073Y-51313481D01*
X74836798Y-51323202D01*
X74846519Y-51333927D01*
X74855142Y-51345553D01*
X74862583Y-51357969D01*
X74868772Y-51371054D01*
X74873649Y-51384683D01*
X74877166Y-51398724D01*
X74879290Y-51413042D01*
X74880000Y-51427500D01*
X74880000Y-51772500D01*
X74879290Y-51786958D01*
X74877166Y-51801276D01*
X74873649Y-51815317D01*
X74868772Y-51828946D01*
X74862583Y-51842031D01*
X74855142Y-51854447D01*
X74846519Y-51866073D01*
X74836798Y-51876798D01*
X74826073Y-51886519D01*
X74814447Y-51895142D01*
X74802031Y-51902583D01*
X74788946Y-51908772D01*
X74775317Y-51913649D01*
X74761276Y-51917166D01*
X74746958Y-51919290D01*
X74732500Y-51920000D01*
X74437500Y-51920000D01*
X74423042Y-51919290D01*
X74408724Y-51917166D01*
X74394683Y-51913649D01*
X74381054Y-51908772D01*
X74367969Y-51902583D01*
X74355553Y-51895142D01*
X74343927Y-51886519D01*
X74333202Y-51876798D01*
X74323481Y-51866073D01*
X74314858Y-51854447D01*
X74307417Y-51842031D01*
X74301228Y-51828946D01*
X74296351Y-51815317D01*
X74292834Y-51801276D01*
X74290710Y-51786958D01*
X74290000Y-51772500D01*
X74290000Y-51427500D01*
X74290710Y-51413042D01*
X74292834Y-51398724D01*
X74296351Y-51384683D01*
X74301228Y-51371054D01*
X74307417Y-51357969D01*
X74314858Y-51345553D01*
X74323481Y-51333927D01*
X74333202Y-51323202D01*
X74343927Y-51313481D01*
X74355553Y-51304858D01*
X74367969Y-51297417D01*
X74381054Y-51291228D01*
X74394683Y-51286351D01*
X74408724Y-51282834D01*
X74423042Y-51280710D01*
X74437500Y-51280000D01*
X74732500Y-51280000D01*
X74746958Y-51280710D01*
G37*
G04 #@! TD.AperFunction*
G04 #@! TA.AperFunction,SMDPad,CuDef*
G36*
X73776958Y-51280710D02*
G01*
X73791276Y-51282834D01*
X73805317Y-51286351D01*
X73818946Y-51291228D01*
X73832031Y-51297417D01*
X73844447Y-51304858D01*
X73856073Y-51313481D01*
X73866798Y-51323202D01*
X73876519Y-51333927D01*
X73885142Y-51345553D01*
X73892583Y-51357969D01*
X73898772Y-51371054D01*
X73903649Y-51384683D01*
X73907166Y-51398724D01*
X73909290Y-51413042D01*
X73910000Y-51427500D01*
X73910000Y-51772500D01*
X73909290Y-51786958D01*
X73907166Y-51801276D01*
X73903649Y-51815317D01*
X73898772Y-51828946D01*
X73892583Y-51842031D01*
X73885142Y-51854447D01*
X73876519Y-51866073D01*
X73866798Y-51876798D01*
X73856073Y-51886519D01*
X73844447Y-51895142D01*
X73832031Y-51902583D01*
X73818946Y-51908772D01*
X73805317Y-51913649D01*
X73791276Y-51917166D01*
X73776958Y-51919290D01*
X73762500Y-51920000D01*
X73467500Y-51920000D01*
X73453042Y-51919290D01*
X73438724Y-51917166D01*
X73424683Y-51913649D01*
X73411054Y-51908772D01*
X73397969Y-51902583D01*
X73385553Y-51895142D01*
X73373927Y-51886519D01*
X73363202Y-51876798D01*
X73353481Y-51866073D01*
X73344858Y-51854447D01*
X73337417Y-51842031D01*
X73331228Y-51828946D01*
X73326351Y-51815317D01*
X73322834Y-51801276D01*
X73320710Y-51786958D01*
X73320000Y-51772500D01*
X73320000Y-51427500D01*
X73320710Y-51413042D01*
X73322834Y-51398724D01*
X73326351Y-51384683D01*
X73331228Y-51371054D01*
X73337417Y-51357969D01*
X73344858Y-51345553D01*
X73353481Y-51333927D01*
X73363202Y-51323202D01*
X73373927Y-51313481D01*
X73385553Y-51304858D01*
X73397969Y-51297417D01*
X73411054Y-51291228D01*
X73424683Y-51286351D01*
X73438724Y-51282834D01*
X73453042Y-51280710D01*
X73467500Y-51280000D01*
X73762500Y-51280000D01*
X73776958Y-51280710D01*
G37*
G04 #@! TD.AperFunction*
G04 #@! TA.AperFunction,SMDPad,CuDef*
G36*
X65386958Y-56675710D02*
G01*
X65401276Y-56677834D01*
X65415317Y-56681351D01*
X65428946Y-56686228D01*
X65442031Y-56692417D01*
X65454447Y-56699858D01*
X65466073Y-56708481D01*
X65476798Y-56718202D01*
X65486519Y-56728927D01*
X65495142Y-56740553D01*
X65502583Y-56752969D01*
X65508772Y-56766054D01*
X65513649Y-56779683D01*
X65517166Y-56793724D01*
X65519290Y-56808042D01*
X65520000Y-56822500D01*
X65520000Y-57117500D01*
X65519290Y-57131958D01*
X65517166Y-57146276D01*
X65513649Y-57160317D01*
X65508772Y-57173946D01*
X65502583Y-57187031D01*
X65495142Y-57199447D01*
X65486519Y-57211073D01*
X65476798Y-57221798D01*
X65466073Y-57231519D01*
X65454447Y-57240142D01*
X65442031Y-57247583D01*
X65428946Y-57253772D01*
X65415317Y-57258649D01*
X65401276Y-57262166D01*
X65386958Y-57264290D01*
X65372500Y-57265000D01*
X65027500Y-57265000D01*
X65013042Y-57264290D01*
X64998724Y-57262166D01*
X64984683Y-57258649D01*
X64971054Y-57253772D01*
X64957969Y-57247583D01*
X64945553Y-57240142D01*
X64933927Y-57231519D01*
X64923202Y-57221798D01*
X64913481Y-57211073D01*
X64904858Y-57199447D01*
X64897417Y-57187031D01*
X64891228Y-57173946D01*
X64886351Y-57160317D01*
X64882834Y-57146276D01*
X64880710Y-57131958D01*
X64880000Y-57117500D01*
X64880000Y-56822500D01*
X64880710Y-56808042D01*
X64882834Y-56793724D01*
X64886351Y-56779683D01*
X64891228Y-56766054D01*
X64897417Y-56752969D01*
X64904858Y-56740553D01*
X64913481Y-56728927D01*
X64923202Y-56718202D01*
X64933927Y-56708481D01*
X64945553Y-56699858D01*
X64957969Y-56692417D01*
X64971054Y-56686228D01*
X64984683Y-56681351D01*
X64998724Y-56677834D01*
X65013042Y-56675710D01*
X65027500Y-56675000D01*
X65372500Y-56675000D01*
X65386958Y-56675710D01*
G37*
G04 #@! TD.AperFunction*
G04 #@! TA.AperFunction,SMDPad,CuDef*
G36*
X65386958Y-55705710D02*
G01*
X65401276Y-55707834D01*
X65415317Y-55711351D01*
X65428946Y-55716228D01*
X65442031Y-55722417D01*
X65454447Y-55729858D01*
X65466073Y-55738481D01*
X65476798Y-55748202D01*
X65486519Y-55758927D01*
X65495142Y-55770553D01*
X65502583Y-55782969D01*
X65508772Y-55796054D01*
X65513649Y-55809683D01*
X65517166Y-55823724D01*
X65519290Y-55838042D01*
X65520000Y-55852500D01*
X65520000Y-56147500D01*
X65519290Y-56161958D01*
X65517166Y-56176276D01*
X65513649Y-56190317D01*
X65508772Y-56203946D01*
X65502583Y-56217031D01*
X65495142Y-56229447D01*
X65486519Y-56241073D01*
X65476798Y-56251798D01*
X65466073Y-56261519D01*
X65454447Y-56270142D01*
X65442031Y-56277583D01*
X65428946Y-56283772D01*
X65415317Y-56288649D01*
X65401276Y-56292166D01*
X65386958Y-56294290D01*
X65372500Y-56295000D01*
X65027500Y-56295000D01*
X65013042Y-56294290D01*
X64998724Y-56292166D01*
X64984683Y-56288649D01*
X64971054Y-56283772D01*
X64957969Y-56277583D01*
X64945553Y-56270142D01*
X64933927Y-56261519D01*
X64923202Y-56251798D01*
X64913481Y-56241073D01*
X64904858Y-56229447D01*
X64897417Y-56217031D01*
X64891228Y-56203946D01*
X64886351Y-56190317D01*
X64882834Y-56176276D01*
X64880710Y-56161958D01*
X64880000Y-56147500D01*
X64880000Y-55852500D01*
X64880710Y-55838042D01*
X64882834Y-55823724D01*
X64886351Y-55809683D01*
X64891228Y-55796054D01*
X64897417Y-55782969D01*
X64904858Y-55770553D01*
X64913481Y-55758927D01*
X64923202Y-55748202D01*
X64933927Y-55738481D01*
X64945553Y-55729858D01*
X64957969Y-55722417D01*
X64971054Y-55716228D01*
X64984683Y-55711351D01*
X64998724Y-55707834D01*
X65013042Y-55705710D01*
X65027500Y-55705000D01*
X65372500Y-55705000D01*
X65386958Y-55705710D01*
G37*
G04 #@! TD.AperFunction*
G04 #@! TA.AperFunction,SMDPad,CuDef*
G36*
X65361958Y-57680710D02*
G01*
X65376276Y-57682834D01*
X65390317Y-57686351D01*
X65403946Y-57691228D01*
X65417031Y-57697417D01*
X65429447Y-57704858D01*
X65441073Y-57713481D01*
X65451798Y-57723202D01*
X65461519Y-57733927D01*
X65470142Y-57745553D01*
X65477583Y-57757969D01*
X65483772Y-57771054D01*
X65488649Y-57784683D01*
X65492166Y-57798724D01*
X65494290Y-57813042D01*
X65495000Y-57827500D01*
X65495000Y-58172500D01*
X65494290Y-58186958D01*
X65492166Y-58201276D01*
X65488649Y-58215317D01*
X65483772Y-58228946D01*
X65477583Y-58242031D01*
X65470142Y-58254447D01*
X65461519Y-58266073D01*
X65451798Y-58276798D01*
X65441073Y-58286519D01*
X65429447Y-58295142D01*
X65417031Y-58302583D01*
X65403946Y-58308772D01*
X65390317Y-58313649D01*
X65376276Y-58317166D01*
X65361958Y-58319290D01*
X65347500Y-58320000D01*
X65052500Y-58320000D01*
X65038042Y-58319290D01*
X65023724Y-58317166D01*
X65009683Y-58313649D01*
X64996054Y-58308772D01*
X64982969Y-58302583D01*
X64970553Y-58295142D01*
X64958927Y-58286519D01*
X64948202Y-58276798D01*
X64938481Y-58266073D01*
X64929858Y-58254447D01*
X64922417Y-58242031D01*
X64916228Y-58228946D01*
X64911351Y-58215317D01*
X64907834Y-58201276D01*
X64905710Y-58186958D01*
X64905000Y-58172500D01*
X64905000Y-57827500D01*
X64905710Y-57813042D01*
X64907834Y-57798724D01*
X64911351Y-57784683D01*
X64916228Y-57771054D01*
X64922417Y-57757969D01*
X64929858Y-57745553D01*
X64938481Y-57733927D01*
X64948202Y-57723202D01*
X64958927Y-57713481D01*
X64970553Y-57704858D01*
X64982969Y-57697417D01*
X64996054Y-57691228D01*
X65009683Y-57686351D01*
X65023724Y-57682834D01*
X65038042Y-57680710D01*
X65052500Y-57680000D01*
X65347500Y-57680000D01*
X65361958Y-57680710D01*
G37*
G04 #@! TD.AperFunction*
G04 #@! TA.AperFunction,SMDPad,CuDef*
G36*
X66331958Y-57680710D02*
G01*
X66346276Y-57682834D01*
X66360317Y-57686351D01*
X66373946Y-57691228D01*
X66387031Y-57697417D01*
X66399447Y-57704858D01*
X66411073Y-57713481D01*
X66421798Y-57723202D01*
X66431519Y-57733927D01*
X66440142Y-57745553D01*
X66447583Y-57757969D01*
X66453772Y-57771054D01*
X66458649Y-57784683D01*
X66462166Y-57798724D01*
X66464290Y-57813042D01*
X66465000Y-57827500D01*
X66465000Y-58172500D01*
X66464290Y-58186958D01*
X66462166Y-58201276D01*
X66458649Y-58215317D01*
X66453772Y-58228946D01*
X66447583Y-58242031D01*
X66440142Y-58254447D01*
X66431519Y-58266073D01*
X66421798Y-58276798D01*
X66411073Y-58286519D01*
X66399447Y-58295142D01*
X66387031Y-58302583D01*
X66373946Y-58308772D01*
X66360317Y-58313649D01*
X66346276Y-58317166D01*
X66331958Y-58319290D01*
X66317500Y-58320000D01*
X66022500Y-58320000D01*
X66008042Y-58319290D01*
X65993724Y-58317166D01*
X65979683Y-58313649D01*
X65966054Y-58308772D01*
X65952969Y-58302583D01*
X65940553Y-58295142D01*
X65928927Y-58286519D01*
X65918202Y-58276798D01*
X65908481Y-58266073D01*
X65899858Y-58254447D01*
X65892417Y-58242031D01*
X65886228Y-58228946D01*
X65881351Y-58215317D01*
X65877834Y-58201276D01*
X65875710Y-58186958D01*
X65875000Y-58172500D01*
X65875000Y-57827500D01*
X65875710Y-57813042D01*
X65877834Y-57798724D01*
X65881351Y-57784683D01*
X65886228Y-57771054D01*
X65892417Y-57757969D01*
X65899858Y-57745553D01*
X65908481Y-57733927D01*
X65918202Y-57723202D01*
X65928927Y-57713481D01*
X65940553Y-57704858D01*
X65952969Y-57697417D01*
X65966054Y-57691228D01*
X65979683Y-57686351D01*
X65993724Y-57682834D01*
X66008042Y-57680710D01*
X66022500Y-57680000D01*
X66317500Y-57680000D01*
X66331958Y-57680710D01*
G37*
G04 #@! TD.AperFunction*
G04 #@! TA.AperFunction,SMDPad,CuDef*
G36*
X67353833Y-62569883D02*
G01*
X67368151Y-62572007D01*
X67382192Y-62575524D01*
X67395821Y-62580401D01*
X67408906Y-62586590D01*
X67421322Y-62594031D01*
X67432948Y-62602654D01*
X67443673Y-62612375D01*
X67687625Y-62856327D01*
X67697346Y-62867052D01*
X67705969Y-62878678D01*
X67713410Y-62891094D01*
X67719599Y-62904179D01*
X67724476Y-62917808D01*
X67727993Y-62931849D01*
X67730117Y-62946167D01*
X67730827Y-62960625D01*
X67730117Y-62975083D01*
X67727993Y-62989401D01*
X67724476Y-63003442D01*
X67719599Y-63017071D01*
X67713410Y-63030156D01*
X67705969Y-63042572D01*
X67697346Y-63054198D01*
X67687625Y-63064923D01*
X67479029Y-63273519D01*
X67468304Y-63283240D01*
X67456678Y-63291863D01*
X67444262Y-63299304D01*
X67431177Y-63305493D01*
X67417548Y-63310370D01*
X67403507Y-63313887D01*
X67389189Y-63316011D01*
X67374731Y-63316721D01*
X67360273Y-63316011D01*
X67345955Y-63313887D01*
X67331914Y-63310370D01*
X67318285Y-63305493D01*
X67305200Y-63299304D01*
X67292784Y-63291863D01*
X67281158Y-63283240D01*
X67270433Y-63273519D01*
X67026481Y-63029567D01*
X67016760Y-63018842D01*
X67008137Y-63007216D01*
X67000696Y-62994800D01*
X66994507Y-62981715D01*
X66989630Y-62968086D01*
X66986113Y-62954045D01*
X66983989Y-62939727D01*
X66983279Y-62925269D01*
X66983989Y-62910811D01*
X66986113Y-62896493D01*
X66989630Y-62882452D01*
X66994507Y-62868823D01*
X67000696Y-62855738D01*
X67008137Y-62843322D01*
X67016760Y-62831696D01*
X67026481Y-62820971D01*
X67235077Y-62612375D01*
X67245802Y-62602654D01*
X67257428Y-62594031D01*
X67269844Y-62586590D01*
X67282929Y-62580401D01*
X67296558Y-62575524D01*
X67310599Y-62572007D01*
X67324917Y-62569883D01*
X67339375Y-62569173D01*
X67353833Y-62569883D01*
G37*
G04 #@! TD.AperFunction*
G04 #@! TA.AperFunction,SMDPad,CuDef*
G36*
X68039727Y-61883989D02*
G01*
X68054045Y-61886113D01*
X68068086Y-61889630D01*
X68081715Y-61894507D01*
X68094800Y-61900696D01*
X68107216Y-61908137D01*
X68118842Y-61916760D01*
X68129567Y-61926481D01*
X68373519Y-62170433D01*
X68383240Y-62181158D01*
X68391863Y-62192784D01*
X68399304Y-62205200D01*
X68405493Y-62218285D01*
X68410370Y-62231914D01*
X68413887Y-62245955D01*
X68416011Y-62260273D01*
X68416721Y-62274731D01*
X68416011Y-62289189D01*
X68413887Y-62303507D01*
X68410370Y-62317548D01*
X68405493Y-62331177D01*
X68399304Y-62344262D01*
X68391863Y-62356678D01*
X68383240Y-62368304D01*
X68373519Y-62379029D01*
X68164923Y-62587625D01*
X68154198Y-62597346D01*
X68142572Y-62605969D01*
X68130156Y-62613410D01*
X68117071Y-62619599D01*
X68103442Y-62624476D01*
X68089401Y-62627993D01*
X68075083Y-62630117D01*
X68060625Y-62630827D01*
X68046167Y-62630117D01*
X68031849Y-62627993D01*
X68017808Y-62624476D01*
X68004179Y-62619599D01*
X67991094Y-62613410D01*
X67978678Y-62605969D01*
X67967052Y-62597346D01*
X67956327Y-62587625D01*
X67712375Y-62343673D01*
X67702654Y-62332948D01*
X67694031Y-62321322D01*
X67686590Y-62308906D01*
X67680401Y-62295821D01*
X67675524Y-62282192D01*
X67672007Y-62268151D01*
X67669883Y-62253833D01*
X67669173Y-62239375D01*
X67669883Y-62224917D01*
X67672007Y-62210599D01*
X67675524Y-62196558D01*
X67680401Y-62182929D01*
X67686590Y-62169844D01*
X67694031Y-62157428D01*
X67702654Y-62145802D01*
X67712375Y-62135077D01*
X67920971Y-61926481D01*
X67931696Y-61916760D01*
X67943322Y-61908137D01*
X67955738Y-61900696D01*
X67968823Y-61894507D01*
X67982452Y-61889630D01*
X67996493Y-61886113D01*
X68010811Y-61883989D01*
X68025269Y-61883279D01*
X68039727Y-61883989D01*
G37*
G04 #@! TD.AperFunction*
G04 #@! TA.AperFunction,SMDPad,CuDef*
G36*
X70586958Y-61090710D02*
G01*
X70601276Y-61092834D01*
X70615317Y-61096351D01*
X70628946Y-61101228D01*
X70642031Y-61107417D01*
X70654447Y-61114858D01*
X70666073Y-61123481D01*
X70676798Y-61133202D01*
X70686519Y-61143927D01*
X70695142Y-61155553D01*
X70702583Y-61167969D01*
X70708772Y-61181054D01*
X70713649Y-61194683D01*
X70717166Y-61208724D01*
X70719290Y-61223042D01*
X70720000Y-61237500D01*
X70720000Y-61532500D01*
X70719290Y-61546958D01*
X70717166Y-61561276D01*
X70713649Y-61575317D01*
X70708772Y-61588946D01*
X70702583Y-61602031D01*
X70695142Y-61614447D01*
X70686519Y-61626073D01*
X70676798Y-61636798D01*
X70666073Y-61646519D01*
X70654447Y-61655142D01*
X70642031Y-61662583D01*
X70628946Y-61668772D01*
X70615317Y-61673649D01*
X70601276Y-61677166D01*
X70586958Y-61679290D01*
X70572500Y-61680000D01*
X70227500Y-61680000D01*
X70213042Y-61679290D01*
X70198724Y-61677166D01*
X70184683Y-61673649D01*
X70171054Y-61668772D01*
X70157969Y-61662583D01*
X70145553Y-61655142D01*
X70133927Y-61646519D01*
X70123202Y-61636798D01*
X70113481Y-61626073D01*
X70104858Y-61614447D01*
X70097417Y-61602031D01*
X70091228Y-61588946D01*
X70086351Y-61575317D01*
X70082834Y-61561276D01*
X70080710Y-61546958D01*
X70080000Y-61532500D01*
X70080000Y-61237500D01*
X70080710Y-61223042D01*
X70082834Y-61208724D01*
X70086351Y-61194683D01*
X70091228Y-61181054D01*
X70097417Y-61167969D01*
X70104858Y-61155553D01*
X70113481Y-61143927D01*
X70123202Y-61133202D01*
X70133927Y-61123481D01*
X70145553Y-61114858D01*
X70157969Y-61107417D01*
X70171054Y-61101228D01*
X70184683Y-61096351D01*
X70198724Y-61092834D01*
X70213042Y-61090710D01*
X70227500Y-61090000D01*
X70572500Y-61090000D01*
X70586958Y-61090710D01*
G37*
G04 #@! TD.AperFunction*
G04 #@! TA.AperFunction,SMDPad,CuDef*
G36*
X70586958Y-60120710D02*
G01*
X70601276Y-60122834D01*
X70615317Y-60126351D01*
X70628946Y-60131228D01*
X70642031Y-60137417D01*
X70654447Y-60144858D01*
X70666073Y-60153481D01*
X70676798Y-60163202D01*
X70686519Y-60173927D01*
X70695142Y-60185553D01*
X70702583Y-60197969D01*
X70708772Y-60211054D01*
X70713649Y-60224683D01*
X70717166Y-60238724D01*
X70719290Y-60253042D01*
X70720000Y-60267500D01*
X70720000Y-60562500D01*
X70719290Y-60576958D01*
X70717166Y-60591276D01*
X70713649Y-60605317D01*
X70708772Y-60618946D01*
X70702583Y-60632031D01*
X70695142Y-60644447D01*
X70686519Y-60656073D01*
X70676798Y-60666798D01*
X70666073Y-60676519D01*
X70654447Y-60685142D01*
X70642031Y-60692583D01*
X70628946Y-60698772D01*
X70615317Y-60703649D01*
X70601276Y-60707166D01*
X70586958Y-60709290D01*
X70572500Y-60710000D01*
X70227500Y-60710000D01*
X70213042Y-60709290D01*
X70198724Y-60707166D01*
X70184683Y-60703649D01*
X70171054Y-60698772D01*
X70157969Y-60692583D01*
X70145553Y-60685142D01*
X70133927Y-60676519D01*
X70123202Y-60666798D01*
X70113481Y-60656073D01*
X70104858Y-60644447D01*
X70097417Y-60632031D01*
X70091228Y-60618946D01*
X70086351Y-60605317D01*
X70082834Y-60591276D01*
X70080710Y-60576958D01*
X70080000Y-60562500D01*
X70080000Y-60267500D01*
X70080710Y-60253042D01*
X70082834Y-60238724D01*
X70086351Y-60224683D01*
X70091228Y-60211054D01*
X70097417Y-60197969D01*
X70104858Y-60185553D01*
X70113481Y-60173927D01*
X70123202Y-60163202D01*
X70133927Y-60153481D01*
X70145553Y-60144858D01*
X70157969Y-60137417D01*
X70171054Y-60131228D01*
X70184683Y-60126351D01*
X70198724Y-60122834D01*
X70213042Y-60120710D01*
X70227500Y-60120000D01*
X70572500Y-60120000D01*
X70586958Y-60120710D01*
G37*
G04 #@! TD.AperFunction*
G04 #@! TA.AperFunction,SMDPad,CuDef*
G36*
X64675083Y-62169883D02*
G01*
X64689401Y-62172007D01*
X64703442Y-62175524D01*
X64717071Y-62180401D01*
X64730156Y-62186590D01*
X64742572Y-62194031D01*
X64754198Y-62202654D01*
X64764923Y-62212375D01*
X64973519Y-62420971D01*
X64983240Y-62431696D01*
X64991863Y-62443322D01*
X64999304Y-62455738D01*
X65005493Y-62468823D01*
X65010370Y-62482452D01*
X65013887Y-62496493D01*
X65016011Y-62510811D01*
X65016721Y-62525269D01*
X65016011Y-62539727D01*
X65013887Y-62554045D01*
X65010370Y-62568086D01*
X65005493Y-62581715D01*
X64999304Y-62594800D01*
X64991863Y-62607216D01*
X64983240Y-62618842D01*
X64973519Y-62629567D01*
X64729567Y-62873519D01*
X64718842Y-62883240D01*
X64707216Y-62891863D01*
X64694800Y-62899304D01*
X64681715Y-62905493D01*
X64668086Y-62910370D01*
X64654045Y-62913887D01*
X64639727Y-62916011D01*
X64625269Y-62916721D01*
X64610811Y-62916011D01*
X64596493Y-62913887D01*
X64582452Y-62910370D01*
X64568823Y-62905493D01*
X64555738Y-62899304D01*
X64543322Y-62891863D01*
X64531696Y-62883240D01*
X64520971Y-62873519D01*
X64312375Y-62664923D01*
X64302654Y-62654198D01*
X64294031Y-62642572D01*
X64286590Y-62630156D01*
X64280401Y-62617071D01*
X64275524Y-62603442D01*
X64272007Y-62589401D01*
X64269883Y-62575083D01*
X64269173Y-62560625D01*
X64269883Y-62546167D01*
X64272007Y-62531849D01*
X64275524Y-62517808D01*
X64280401Y-62504179D01*
X64286590Y-62491094D01*
X64294031Y-62478678D01*
X64302654Y-62467052D01*
X64312375Y-62456327D01*
X64556327Y-62212375D01*
X64567052Y-62202654D01*
X64578678Y-62194031D01*
X64591094Y-62186590D01*
X64604179Y-62180401D01*
X64617808Y-62175524D01*
X64631849Y-62172007D01*
X64646167Y-62169883D01*
X64660625Y-62169173D01*
X64675083Y-62169883D01*
G37*
G04 #@! TD.AperFunction*
G04 #@! TA.AperFunction,SMDPad,CuDef*
G36*
X63989189Y-61483989D02*
G01*
X64003507Y-61486113D01*
X64017548Y-61489630D01*
X64031177Y-61494507D01*
X64044262Y-61500696D01*
X64056678Y-61508137D01*
X64068304Y-61516760D01*
X64079029Y-61526481D01*
X64287625Y-61735077D01*
X64297346Y-61745802D01*
X64305969Y-61757428D01*
X64313410Y-61769844D01*
X64319599Y-61782929D01*
X64324476Y-61796558D01*
X64327993Y-61810599D01*
X64330117Y-61824917D01*
X64330827Y-61839375D01*
X64330117Y-61853833D01*
X64327993Y-61868151D01*
X64324476Y-61882192D01*
X64319599Y-61895821D01*
X64313410Y-61908906D01*
X64305969Y-61921322D01*
X64297346Y-61932948D01*
X64287625Y-61943673D01*
X64043673Y-62187625D01*
X64032948Y-62197346D01*
X64021322Y-62205969D01*
X64008906Y-62213410D01*
X63995821Y-62219599D01*
X63982192Y-62224476D01*
X63968151Y-62227993D01*
X63953833Y-62230117D01*
X63939375Y-62230827D01*
X63924917Y-62230117D01*
X63910599Y-62227993D01*
X63896558Y-62224476D01*
X63882929Y-62219599D01*
X63869844Y-62213410D01*
X63857428Y-62205969D01*
X63845802Y-62197346D01*
X63835077Y-62187625D01*
X63626481Y-61979029D01*
X63616760Y-61968304D01*
X63608137Y-61956678D01*
X63600696Y-61944262D01*
X63594507Y-61931177D01*
X63589630Y-61917548D01*
X63586113Y-61903507D01*
X63583989Y-61889189D01*
X63583279Y-61874731D01*
X63583989Y-61860273D01*
X63586113Y-61845955D01*
X63589630Y-61831914D01*
X63594507Y-61818285D01*
X63600696Y-61805200D01*
X63608137Y-61792784D01*
X63616760Y-61781158D01*
X63626481Y-61770433D01*
X63870433Y-61526481D01*
X63881158Y-61516760D01*
X63892784Y-61508137D01*
X63905200Y-61500696D01*
X63918285Y-61494507D01*
X63931914Y-61489630D01*
X63945955Y-61486113D01*
X63960273Y-61483989D01*
X63974731Y-61483279D01*
X63989189Y-61483989D01*
G37*
G04 #@! TD.AperFunction*
G04 #@! TA.AperFunction,SMDPad,CuDef*
G36*
X71586958Y-61090710D02*
G01*
X71601276Y-61092834D01*
X71615317Y-61096351D01*
X71628946Y-61101228D01*
X71642031Y-61107417D01*
X71654447Y-61114858D01*
X71666073Y-61123481D01*
X71676798Y-61133202D01*
X71686519Y-61143927D01*
X71695142Y-61155553D01*
X71702583Y-61167969D01*
X71708772Y-61181054D01*
X71713649Y-61194683D01*
X71717166Y-61208724D01*
X71719290Y-61223042D01*
X71720000Y-61237500D01*
X71720000Y-61532500D01*
X71719290Y-61546958D01*
X71717166Y-61561276D01*
X71713649Y-61575317D01*
X71708772Y-61588946D01*
X71702583Y-61602031D01*
X71695142Y-61614447D01*
X71686519Y-61626073D01*
X71676798Y-61636798D01*
X71666073Y-61646519D01*
X71654447Y-61655142D01*
X71642031Y-61662583D01*
X71628946Y-61668772D01*
X71615317Y-61673649D01*
X71601276Y-61677166D01*
X71586958Y-61679290D01*
X71572500Y-61680000D01*
X71227500Y-61680000D01*
X71213042Y-61679290D01*
X71198724Y-61677166D01*
X71184683Y-61673649D01*
X71171054Y-61668772D01*
X71157969Y-61662583D01*
X71145553Y-61655142D01*
X71133927Y-61646519D01*
X71123202Y-61636798D01*
X71113481Y-61626073D01*
X71104858Y-61614447D01*
X71097417Y-61602031D01*
X71091228Y-61588946D01*
X71086351Y-61575317D01*
X71082834Y-61561276D01*
X71080710Y-61546958D01*
X71080000Y-61532500D01*
X71080000Y-61237500D01*
X71080710Y-61223042D01*
X71082834Y-61208724D01*
X71086351Y-61194683D01*
X71091228Y-61181054D01*
X71097417Y-61167969D01*
X71104858Y-61155553D01*
X71113481Y-61143927D01*
X71123202Y-61133202D01*
X71133927Y-61123481D01*
X71145553Y-61114858D01*
X71157969Y-61107417D01*
X71171054Y-61101228D01*
X71184683Y-61096351D01*
X71198724Y-61092834D01*
X71213042Y-61090710D01*
X71227500Y-61090000D01*
X71572500Y-61090000D01*
X71586958Y-61090710D01*
G37*
G04 #@! TD.AperFunction*
G04 #@! TA.AperFunction,SMDPad,CuDef*
G36*
X71586958Y-60120710D02*
G01*
X71601276Y-60122834D01*
X71615317Y-60126351D01*
X71628946Y-60131228D01*
X71642031Y-60137417D01*
X71654447Y-60144858D01*
X71666073Y-60153481D01*
X71676798Y-60163202D01*
X71686519Y-60173927D01*
X71695142Y-60185553D01*
X71702583Y-60197969D01*
X71708772Y-60211054D01*
X71713649Y-60224683D01*
X71717166Y-60238724D01*
X71719290Y-60253042D01*
X71720000Y-60267500D01*
X71720000Y-60562500D01*
X71719290Y-60576958D01*
X71717166Y-60591276D01*
X71713649Y-60605317D01*
X71708772Y-60618946D01*
X71702583Y-60632031D01*
X71695142Y-60644447D01*
X71686519Y-60656073D01*
X71676798Y-60666798D01*
X71666073Y-60676519D01*
X71654447Y-60685142D01*
X71642031Y-60692583D01*
X71628946Y-60698772D01*
X71615317Y-60703649D01*
X71601276Y-60707166D01*
X71586958Y-60709290D01*
X71572500Y-60710000D01*
X71227500Y-60710000D01*
X71213042Y-60709290D01*
X71198724Y-60707166D01*
X71184683Y-60703649D01*
X71171054Y-60698772D01*
X71157969Y-60692583D01*
X71145553Y-60685142D01*
X71133927Y-60676519D01*
X71123202Y-60666798D01*
X71113481Y-60656073D01*
X71104858Y-60644447D01*
X71097417Y-60632031D01*
X71091228Y-60618946D01*
X71086351Y-60605317D01*
X71082834Y-60591276D01*
X71080710Y-60576958D01*
X71080000Y-60562500D01*
X71080000Y-60267500D01*
X71080710Y-60253042D01*
X71082834Y-60238724D01*
X71086351Y-60224683D01*
X71091228Y-60211054D01*
X71097417Y-60197969D01*
X71104858Y-60185553D01*
X71113481Y-60173927D01*
X71123202Y-60163202D01*
X71133927Y-60153481D01*
X71145553Y-60144858D01*
X71157969Y-60137417D01*
X71171054Y-60131228D01*
X71184683Y-60126351D01*
X71198724Y-60122834D01*
X71213042Y-60120710D01*
X71227500Y-60120000D01*
X71572500Y-60120000D01*
X71586958Y-60120710D01*
G37*
G04 #@! TD.AperFunction*
G04 #@! TA.AperFunction,SMDPad,CuDef*
G36*
X68386958Y-58690710D02*
G01*
X68401276Y-58692834D01*
X68415317Y-58696351D01*
X68428946Y-58701228D01*
X68442031Y-58707417D01*
X68454447Y-58714858D01*
X68466073Y-58723481D01*
X68476798Y-58733202D01*
X68486519Y-58743927D01*
X68495142Y-58755553D01*
X68502583Y-58767969D01*
X68508772Y-58781054D01*
X68513649Y-58794683D01*
X68517166Y-58808724D01*
X68519290Y-58823042D01*
X68520000Y-58837500D01*
X68520000Y-59132500D01*
X68519290Y-59146958D01*
X68517166Y-59161276D01*
X68513649Y-59175317D01*
X68508772Y-59188946D01*
X68502583Y-59202031D01*
X68495142Y-59214447D01*
X68486519Y-59226073D01*
X68476798Y-59236798D01*
X68466073Y-59246519D01*
X68454447Y-59255142D01*
X68442031Y-59262583D01*
X68428946Y-59268772D01*
X68415317Y-59273649D01*
X68401276Y-59277166D01*
X68386958Y-59279290D01*
X68372500Y-59280000D01*
X68027500Y-59280000D01*
X68013042Y-59279290D01*
X67998724Y-59277166D01*
X67984683Y-59273649D01*
X67971054Y-59268772D01*
X67957969Y-59262583D01*
X67945553Y-59255142D01*
X67933927Y-59246519D01*
X67923202Y-59236798D01*
X67913481Y-59226073D01*
X67904858Y-59214447D01*
X67897417Y-59202031D01*
X67891228Y-59188946D01*
X67886351Y-59175317D01*
X67882834Y-59161276D01*
X67880710Y-59146958D01*
X67880000Y-59132500D01*
X67880000Y-58837500D01*
X67880710Y-58823042D01*
X67882834Y-58808724D01*
X67886351Y-58794683D01*
X67891228Y-58781054D01*
X67897417Y-58767969D01*
X67904858Y-58755553D01*
X67913481Y-58743927D01*
X67923202Y-58733202D01*
X67933927Y-58723481D01*
X67945553Y-58714858D01*
X67957969Y-58707417D01*
X67971054Y-58701228D01*
X67984683Y-58696351D01*
X67998724Y-58692834D01*
X68013042Y-58690710D01*
X68027500Y-58690000D01*
X68372500Y-58690000D01*
X68386958Y-58690710D01*
G37*
G04 #@! TD.AperFunction*
G04 #@! TA.AperFunction,SMDPad,CuDef*
G36*
X68386958Y-57720710D02*
G01*
X68401276Y-57722834D01*
X68415317Y-57726351D01*
X68428946Y-57731228D01*
X68442031Y-57737417D01*
X68454447Y-57744858D01*
X68466073Y-57753481D01*
X68476798Y-57763202D01*
X68486519Y-57773927D01*
X68495142Y-57785553D01*
X68502583Y-57797969D01*
X68508772Y-57811054D01*
X68513649Y-57824683D01*
X68517166Y-57838724D01*
X68519290Y-57853042D01*
X68520000Y-57867500D01*
X68520000Y-58162500D01*
X68519290Y-58176958D01*
X68517166Y-58191276D01*
X68513649Y-58205317D01*
X68508772Y-58218946D01*
X68502583Y-58232031D01*
X68495142Y-58244447D01*
X68486519Y-58256073D01*
X68476798Y-58266798D01*
X68466073Y-58276519D01*
X68454447Y-58285142D01*
X68442031Y-58292583D01*
X68428946Y-58298772D01*
X68415317Y-58303649D01*
X68401276Y-58307166D01*
X68386958Y-58309290D01*
X68372500Y-58310000D01*
X68027500Y-58310000D01*
X68013042Y-58309290D01*
X67998724Y-58307166D01*
X67984683Y-58303649D01*
X67971054Y-58298772D01*
X67957969Y-58292583D01*
X67945553Y-58285142D01*
X67933927Y-58276519D01*
X67923202Y-58266798D01*
X67913481Y-58256073D01*
X67904858Y-58244447D01*
X67897417Y-58232031D01*
X67891228Y-58218946D01*
X67886351Y-58205317D01*
X67882834Y-58191276D01*
X67880710Y-58176958D01*
X67880000Y-58162500D01*
X67880000Y-57867500D01*
X67880710Y-57853042D01*
X67882834Y-57838724D01*
X67886351Y-57824683D01*
X67891228Y-57811054D01*
X67897417Y-57797969D01*
X67904858Y-57785553D01*
X67913481Y-57773927D01*
X67923202Y-57763202D01*
X67933927Y-57753481D01*
X67945553Y-57744858D01*
X67957969Y-57737417D01*
X67971054Y-57731228D01*
X67984683Y-57726351D01*
X67998724Y-57722834D01*
X68013042Y-57720710D01*
X68027500Y-57720000D01*
X68372500Y-57720000D01*
X68386958Y-57720710D01*
G37*
G04 #@! TD.AperFunction*
D11*
X65457300Y-54449400D03*
X64857300Y-54449400D03*
X65457300Y-53950600D03*
X64857300Y-53950600D03*
X64342300Y-54200000D03*
D12*
X79900000Y-79285000D03*
X79900000Y-57315000D03*
D13*
X79900000Y-68300000D03*
G04 #@! TA.AperFunction,SMDPad,CuDef*
D10*
G36*
X65363604Y-62189949D02*
G01*
X66070710Y-61482843D01*
X66919238Y-62331371D01*
X66212132Y-63038477D01*
X65363604Y-62189949D01*
G37*
G04 #@! TD.AperFunction*
G04 #@! TA.AperFunction,SMDPad,CuDef*
G36*
X66282843Y-61270710D02*
G01*
X66989949Y-60563604D01*
X67838477Y-61412132D01*
X67131371Y-62119238D01*
X66282843Y-61270710D01*
G37*
G04 #@! TD.AperFunction*
G04 #@! TA.AperFunction,SMDPad,CuDef*
G36*
X65080762Y-60068629D02*
G01*
X65787868Y-59361523D01*
X66636396Y-60210051D01*
X65929290Y-60917157D01*
X65080762Y-60068629D01*
G37*
G04 #@! TD.AperFunction*
G04 #@! TA.AperFunction,SMDPad,CuDef*
G36*
X64161523Y-60987868D02*
G01*
X64868629Y-60280762D01*
X65717157Y-61129290D01*
X65010051Y-61836396D01*
X64161523Y-60987868D01*
G37*
G04 #@! TD.AperFunction*
D14*
X84750000Y-50700000D03*
X76050000Y-50700000D03*
D15*
X62390000Y-47800000D03*
X70010000Y-47800000D03*
X64930000Y-47800000D03*
X67470000Y-47800000D03*
D16*
X60650000Y-52000000D03*
X60650000Y-54100000D03*
D17*
X71950000Y-47050000D03*
X71950000Y-48950000D03*
X74050000Y-48000000D03*
D18*
X72068628Y-58700000D03*
X69568628Y-58700000D03*
D19*
X71600000Y-56750000D03*
X71200000Y-56750000D03*
X70800000Y-56750000D03*
X70400000Y-56750000D03*
X70000000Y-56750000D03*
X69600000Y-56750000D03*
X69200000Y-56750000D03*
X68800000Y-56750000D03*
X68400000Y-56750000D03*
X68000000Y-56750000D03*
X67600000Y-56750000D03*
D20*
X66450000Y-56000000D03*
X66450000Y-55600000D03*
X66450000Y-55200000D03*
X66450000Y-54800000D03*
X66450000Y-54400000D03*
X66450000Y-54000000D03*
X66450000Y-53600000D03*
X66450000Y-53200000D03*
X66450000Y-52800000D03*
X66450000Y-52400000D03*
X66450000Y-52000000D03*
D19*
X67200000Y-50850000D03*
X67600000Y-50850000D03*
X68000000Y-50850000D03*
X68400000Y-50850000D03*
X68800000Y-50850000D03*
X69200000Y-50850000D03*
X69600000Y-50850000D03*
X70000000Y-50850000D03*
X70400000Y-50850000D03*
X70800000Y-50850000D03*
X71200000Y-50850000D03*
D20*
X72350000Y-51600000D03*
X72350000Y-52000000D03*
X72350000Y-52400000D03*
X72350000Y-52800000D03*
X72350000Y-53200000D03*
X72350000Y-53600000D03*
X72350000Y-54000000D03*
X72350000Y-54400000D03*
X72350000Y-54800000D03*
X72350000Y-55200000D03*
X72350000Y-55600000D03*
D21*
X69400000Y-53800000D03*
D19*
X67200000Y-56750000D03*
D20*
X66450000Y-51600000D03*
X72350000Y-56000000D03*
D19*
X71600000Y-50850000D03*
D22*
X60650000Y-52250000D03*
X60650000Y-51750000D03*
X65200000Y-63100000D03*
X60700000Y-50500000D03*
X67900000Y-55300000D03*
X70900000Y-55300000D03*
X70900000Y-52300000D03*
X67900000Y-52300000D03*
X63200000Y-49400000D03*
X65200000Y-51400000D03*
X72100000Y-50900000D03*
X75200000Y-55900000D03*
X66800000Y-63400000D03*
X64430000Y-56970000D03*
X64400000Y-58000000D03*
X64500000Y-55000000D03*
X73500000Y-52700000D03*
X74500000Y-52700000D03*
X65400000Y-55000000D03*
X60900000Y-56800000D03*
X60700000Y-46500000D03*
X60700000Y-47500000D03*
X60700000Y-48500000D03*
X60700000Y-49500000D03*
X60700000Y-53200000D03*
X60700000Y-57500000D03*
X60700000Y-58500000D03*
X60700000Y-59500000D03*
X60700000Y-60500000D03*
X60700000Y-61500000D03*
X60700000Y-62500000D03*
X60700000Y-63500000D03*
X60700000Y-64500000D03*
X60700000Y-65500000D03*
X60700000Y-66500000D03*
X60700000Y-67500000D03*
X58200000Y-72000000D03*
X57200000Y-72000000D03*
X56200000Y-72000000D03*
X70400000Y-62100000D03*
X71400000Y-62100000D03*
X68200000Y-59700000D03*
X83100000Y-57300000D03*
X85900000Y-51000000D03*
X69800000Y-49000000D03*
X64500000Y-53300000D03*
X64400000Y-56000000D03*
X66800000Y-58000000D03*
X73500000Y-56800000D03*
X74000000Y-52200000D03*
X83000000Y-79300000D03*
X73400000Y-49100000D03*
D23*
X65200000Y-52115000D02*
X65200000Y-51410000D01*
X63200000Y-48610000D02*
X63200000Y-49400000D01*
X62390000Y-47800000D02*
X63200000Y-48610000D01*
X65200000Y-51410000D02*
X65200000Y-51400000D01*
X71600000Y-50850000D02*
X71600000Y-50500000D01*
X65200000Y-56970000D02*
X64430000Y-56970000D01*
X65200000Y-58000000D02*
X64400000Y-58000000D01*
X74470000Y-52670000D02*
X74500000Y-52700000D01*
X65500000Y-54900000D02*
X65400000Y-55000000D01*
X71600000Y-50850000D02*
X72050000Y-50850000D01*
X71950000Y-48950000D02*
X71550000Y-48950000D01*
X71550000Y-48950000D02*
X71500000Y-49000000D01*
X72050000Y-50850000D02*
X72100000Y-50900000D01*
X68400000Y-54800000D02*
X69400000Y-53800000D01*
X66450000Y-54800000D02*
X68400000Y-54800000D01*
X68000000Y-55200000D02*
X69400000Y-53800000D01*
X66450000Y-55200000D02*
X68000000Y-55200000D01*
X71600000Y-50850000D02*
X71600000Y-50225000D01*
X71950000Y-49875000D02*
X71600000Y-50225000D01*
X71950000Y-48950000D02*
X71950000Y-49875000D01*
X70400000Y-61385000D02*
X70400000Y-62100000D01*
X71400000Y-61385000D02*
X71400000Y-62100000D01*
X68200000Y-58985000D02*
X68200000Y-59700000D01*
X67257053Y-62942947D02*
X66800000Y-63400000D01*
X67357053Y-62942947D02*
X67257053Y-62942947D01*
X64642947Y-62542947D02*
X65200000Y-63100000D01*
X74585000Y-52615000D02*
X74500000Y-52700000D01*
X74585000Y-51600000D02*
X74585000Y-52615000D01*
X65700000Y-55000000D02*
X65400000Y-55000000D01*
X65900000Y-54800000D02*
X65700000Y-55000000D01*
X66450000Y-54800000D02*
X65900000Y-54800000D01*
X74585000Y-55900000D02*
X75200000Y-55900000D01*
X73615000Y-52815000D02*
X73500000Y-52700000D01*
X73615000Y-53400000D02*
X73615000Y-52815000D01*
X64857300Y-54642700D02*
X64500000Y-55000000D01*
X64857300Y-54449400D02*
X64857300Y-54642700D01*
X60900000Y-54085000D02*
X60915000Y-54100000D01*
X60915000Y-54615000D02*
X60915000Y-54100000D01*
X60900000Y-54630000D02*
X60900000Y-55100000D01*
X60915000Y-54615000D02*
X60900000Y-54630000D01*
X75550000Y-50600000D02*
X75950000Y-51000000D01*
X74585000Y-50600000D02*
X75550000Y-50600000D01*
X76050000Y-48450000D02*
X76050000Y-50700000D01*
X75600000Y-48000000D02*
X76050000Y-48450000D01*
X74050000Y-48000000D02*
X75600000Y-48000000D01*
X65600000Y-55600000D02*
X65200000Y-56000000D01*
X66450000Y-55600000D02*
X65600000Y-55600000D01*
X66450000Y-56000000D02*
X66450000Y-56550000D01*
X66170000Y-56830000D02*
X66170000Y-58000000D01*
X66450000Y-56550000D02*
X66170000Y-56830000D01*
X83085000Y-57315000D02*
X83100000Y-57300000D01*
X79900000Y-57315000D02*
X83085000Y-57315000D01*
X70010000Y-48790000D02*
X69800000Y-49000000D01*
X70010000Y-47800000D02*
X70010000Y-48790000D01*
X64857300Y-53657300D02*
X64500000Y-53300000D01*
X64857300Y-53950600D02*
X64857300Y-53657300D01*
X65200000Y-56000000D02*
X64400000Y-56000000D01*
X73515000Y-56785000D02*
X73500000Y-56800000D01*
X73530000Y-51600000D02*
X72350000Y-51600000D01*
X82985000Y-79285000D02*
X83000000Y-79300000D01*
X79900000Y-79285000D02*
X82985000Y-79285000D01*
X73400000Y-50385000D02*
X73615000Y-50600000D01*
X73415000Y-49115000D02*
X73400000Y-49100000D01*
X66170000Y-58000000D02*
X66800000Y-58000000D01*
X73000000Y-56000000D02*
X72350000Y-56000000D01*
X73100000Y-55900000D02*
X73000000Y-56000000D01*
X73615000Y-55900000D02*
X73100000Y-55900000D01*
X73615000Y-55900000D02*
X73615000Y-56385000D01*
X73615000Y-56385000D02*
X73500000Y-56500000D01*
X73500000Y-56500000D02*
X73500000Y-56800000D01*
X74000000Y-51985000D02*
X73615000Y-51600000D01*
X74000000Y-52200000D02*
X74000000Y-51985000D01*
X73615000Y-50015000D02*
X73615000Y-50600000D01*
X73400000Y-49100000D02*
X73400000Y-49600000D01*
X73615000Y-49815000D02*
X73615000Y-50600000D01*
X73400000Y-49600000D02*
X73615000Y-49815000D01*
X85600000Y-50700000D02*
X85900000Y-51000000D01*
X84750000Y-50700000D02*
X85600000Y-50700000D01*
X72068628Y-57568628D02*
X72068628Y-58700000D01*
X71900000Y-57400000D02*
X72068628Y-57568628D01*
X71000000Y-57400000D02*
X71900000Y-57400000D01*
X70800000Y-57200000D02*
X71000000Y-57400000D01*
X70800000Y-56750000D02*
X70800000Y-57200000D01*
X72068628Y-60231372D02*
X72068628Y-58700000D01*
X71885000Y-60415000D02*
X72068628Y-60231372D01*
X71400000Y-60415000D02*
X71885000Y-60415000D01*
X63835000Y-61850000D02*
X63800000Y-61815000D01*
X63600000Y-61500000D02*
X63600000Y-61100000D01*
X63957053Y-61857053D02*
X63600000Y-61500000D01*
X64350000Y-60469239D02*
X64939340Y-61058579D01*
X63600000Y-61100000D02*
X64350000Y-60350000D01*
X65300000Y-59400000D02*
X65600000Y-59100000D01*
X64350000Y-60350000D02*
X65300000Y-59400000D01*
X67200000Y-56750000D02*
X67200000Y-57733998D01*
X67200000Y-57733998D02*
X67250001Y-57783999D01*
X66800000Y-58800000D02*
X65900000Y-58800000D01*
X67250001Y-58349999D02*
X66800000Y-58800000D01*
X65900000Y-58800000D02*
X65300000Y-59400000D01*
X67250001Y-57783999D02*
X67250001Y-58349999D01*
X70200000Y-57400000D02*
X70400000Y-57200000D01*
X70400000Y-57200000D02*
X70400000Y-56750000D01*
X69718628Y-57400000D02*
X70200000Y-57400000D01*
X69568628Y-57550000D02*
X69718628Y-57400000D01*
X69568628Y-58700000D02*
X69568628Y-57550000D01*
X70400000Y-60415000D02*
X69715000Y-60415000D01*
X69568628Y-60268628D02*
X69568628Y-58700000D01*
X69715000Y-60415000D02*
X69568628Y-60268628D01*
X67600000Y-56750000D02*
X67600000Y-58780000D01*
X67600000Y-58780000D02*
X67600000Y-58800000D01*
X68400000Y-61400000D02*
X68400000Y-61900000D01*
X68400000Y-61900000D02*
X68042947Y-62257053D01*
X67600000Y-58780000D02*
X67600000Y-60600000D01*
X67700000Y-60700000D02*
X67700000Y-60702081D01*
X67700000Y-60702081D02*
X67060660Y-61341421D01*
X67600000Y-60600000D02*
X67700000Y-60700000D01*
X67700000Y-60700000D02*
X68400000Y-61400000D01*
X68200000Y-58015000D02*
X68200000Y-57500000D01*
X68200000Y-57500000D02*
X68000000Y-57300000D01*
X68000000Y-57300000D02*
X68000000Y-56750000D01*
X65685000Y-53085000D02*
X65200000Y-53085000D01*
X65800000Y-53200000D02*
X65685000Y-53085000D01*
X66450000Y-53200000D02*
X65800000Y-53200000D01*
X65800000Y-54400000D02*
X66450000Y-54400000D01*
X65750600Y-54449400D02*
X65800000Y-54400000D01*
X65457300Y-54449400D02*
X65750600Y-54449400D01*
X67470000Y-49370000D02*
X67600000Y-49500000D01*
X67600000Y-49500000D02*
X67600000Y-50850000D01*
X67470000Y-47800000D02*
X67470000Y-49370000D01*
X67200000Y-50070000D02*
X64930000Y-47800000D01*
X67200000Y-50850000D02*
X67200000Y-50070000D01*
X65800000Y-54000000D02*
X66450000Y-54000000D01*
X65750600Y-53950600D02*
X65800000Y-54000000D01*
X65457300Y-53950600D02*
X65750600Y-53950600D01*
X77500000Y-48400000D02*
X76150000Y-47050000D01*
X76150000Y-47050000D02*
X71950000Y-47050000D01*
X77500000Y-51960002D02*
X77500000Y-51900000D01*
X76060002Y-53400000D02*
X77500000Y-51960002D01*
X74585000Y-53400000D02*
X76060002Y-53400000D01*
X77500000Y-51900000D02*
X77500000Y-48400000D01*
X74585000Y-53400000D02*
X74585000Y-54400000D01*
X72350000Y-54400000D02*
X73530000Y-54400000D01*
X61900000Y-54085000D02*
X61885000Y-54100000D01*
X61900000Y-53100000D02*
X61900000Y-54085000D01*
D24*
X63300000Y-54200000D02*
X64342300Y-54200000D01*
X63200000Y-54100000D02*
X63300000Y-54200000D01*
X61885000Y-54100000D02*
X63200000Y-54100000D01*
D23*
G36*
X86223196Y-46424860D02*
G01*
X87020374Y-46642943D01*
X87766337Y-46998750D01*
X88437496Y-47481027D01*
X89012649Y-48074538D01*
X89473606Y-48760515D01*
X89805806Y-49517287D01*
X89999387Y-50323609D01*
X90050000Y-51012834D01*
X90050001Y-75984396D01*
X89975140Y-76823199D01*
X89757057Y-77620376D01*
X89401250Y-78366338D01*
X88918975Y-79037495D01*
X88325462Y-79612650D01*
X87639483Y-80073608D01*
X86882719Y-80405803D01*
X86076391Y-80599387D01*
X85387166Y-80650000D01*
X82741451Y-80650000D01*
X82741451Y-79788221D01*
X82839571Y-79828864D01*
X82945830Y-79850000D01*
X83054170Y-79850000D01*
X83160429Y-79828864D01*
X83260523Y-79787403D01*
X83350604Y-79727213D01*
X83427213Y-79650604D01*
X83487403Y-79560523D01*
X83528864Y-79460429D01*
X83550000Y-79354170D01*
X83550000Y-79245830D01*
X83528864Y-79139571D01*
X83487403Y-79039477D01*
X83427213Y-78949396D01*
X83350604Y-78872787D01*
X83260523Y-78812597D01*
X83160429Y-78771136D01*
X83054170Y-78750000D01*
X82945830Y-78750000D01*
X82839571Y-78771136D01*
X82741451Y-78811779D01*
X82741451Y-77890000D01*
X82735659Y-77831190D01*
X82718504Y-77774640D01*
X82690647Y-77722523D01*
X82653158Y-77676842D01*
X82607477Y-77639353D01*
X82555360Y-77611496D01*
X82498810Y-77594341D01*
X82440000Y-77588549D01*
X77360000Y-77588549D01*
X77301190Y-77594341D01*
X77244640Y-77611496D01*
X77192523Y-77639353D01*
X77146842Y-77676842D01*
X77109353Y-77722523D01*
X77081496Y-77774640D01*
X77064341Y-77831190D01*
X77058549Y-77890000D01*
X77058549Y-80650000D01*
X64411602Y-80650000D01*
X63256080Y-80573249D01*
X62132261Y-80346647D01*
X61048289Y-79973406D01*
X60023194Y-79460077D01*
X59075004Y-78815686D01*
X58220361Y-78051547D01*
X57474292Y-77181094D01*
X56849895Y-76219606D01*
X56358151Y-75183995D01*
X56007689Y-74092437D01*
X55804348Y-72962302D01*
X55750000Y-71990227D01*
X55750000Y-71800000D01*
X59048000Y-71800000D01*
X59030000Y-72000000D01*
X59116298Y-72958851D01*
X59372419Y-73886883D01*
X59790130Y-74754269D01*
X60356006Y-75533131D01*
X61051860Y-76198435D01*
X61855325Y-76728798D01*
X62740579Y-77107173D01*
X63679167Y-77321400D01*
X64640924Y-77364593D01*
X65594937Y-77235363D01*
X66510544Y-76937864D01*
X67358317Y-76481658D01*
X68111006Y-75881408D01*
X68744421Y-75156407D01*
X68908420Y-74881918D01*
X73530214Y-74881918D01*
X74594185Y-75858022D01*
X76170632Y-76747910D01*
X77890396Y-77313150D01*
X79687389Y-77532019D01*
X81492551Y-77396106D01*
X83236513Y-76910636D01*
X84852254Y-76094263D01*
X85205815Y-75858022D01*
X86269786Y-74881918D01*
X79900000Y-68512132D01*
X73530214Y-74881918D01*
X68908420Y-74881918D01*
X69238203Y-74329956D01*
X69576481Y-73428618D01*
X69748382Y-72481363D01*
X69748382Y-71518637D01*
X69576481Y-70571382D01*
X69238203Y-69670044D01*
X68744421Y-68843593D01*
X68111006Y-68118592D01*
X68071879Y-68087389D01*
X70667981Y-68087389D01*
X70803894Y-69892551D01*
X71289364Y-71636513D01*
X72105737Y-73252254D01*
X72341978Y-73605815D01*
X73318082Y-74669786D01*
X79687868Y-68300000D01*
X80112132Y-68300000D01*
X86481918Y-74669786D01*
X87458022Y-73605815D01*
X88347910Y-72029368D01*
X88913150Y-70309604D01*
X89132019Y-68512611D01*
X88996106Y-66707449D01*
X88510636Y-64963487D01*
X87694263Y-63347746D01*
X87458022Y-62994185D01*
X86481918Y-61930214D01*
X80112132Y-68300000D01*
X79687868Y-68300000D01*
X73318082Y-61930214D01*
X72341978Y-62994185D01*
X71452090Y-64570632D01*
X70886850Y-66290396D01*
X70667981Y-68087389D01*
X68071879Y-68087389D01*
X67358317Y-67518342D01*
X66510544Y-67062136D01*
X65594937Y-66764637D01*
X64640924Y-66635407D01*
X63679167Y-66678600D01*
X62740579Y-66892827D01*
X61855325Y-67271202D01*
X61051860Y-67801565D01*
X60500000Y-68329197D01*
X60500000Y-63416709D01*
X67095423Y-63416709D01*
X67095423Y-63522775D01*
X67161572Y-63590976D01*
X67207252Y-63628466D01*
X67259370Y-63656323D01*
X67315921Y-63673477D01*
X67374731Y-63679270D01*
X67433541Y-63673477D01*
X67490091Y-63656323D01*
X67542209Y-63628466D01*
X67587889Y-63590976D01*
X67636360Y-63540452D01*
X67636360Y-63434386D01*
X67357053Y-63155079D01*
X67095423Y-63416709D01*
X60500000Y-63416709D01*
X60500000Y-63034386D01*
X64363640Y-63034386D01*
X64363640Y-63140452D01*
X64412111Y-63190976D01*
X64457791Y-63228466D01*
X64509909Y-63256323D01*
X64566459Y-63273477D01*
X64625269Y-63279270D01*
X64684079Y-63273477D01*
X64740630Y-63256323D01*
X64792748Y-63228466D01*
X64838428Y-63190976D01*
X64904577Y-63122775D01*
X64904577Y-63016709D01*
X64642947Y-62755079D01*
X64363640Y-63034386D01*
X60500000Y-63034386D01*
X60500000Y-58320000D01*
X64603548Y-58320000D01*
X64609340Y-58378810D01*
X64626495Y-58435361D01*
X64654352Y-58487478D01*
X64691841Y-58533159D01*
X64737522Y-58570648D01*
X64789639Y-58598505D01*
X64846190Y-58615660D01*
X64905000Y-58621452D01*
X64975000Y-58620000D01*
X65050000Y-58545000D01*
X65050000Y-58150000D01*
X64680000Y-58150000D01*
X64605000Y-58225000D01*
X64603548Y-58320000D01*
X60500000Y-58320000D01*
X60500000Y-57265000D01*
X64578548Y-57265000D01*
X64584340Y-57323810D01*
X64601495Y-57380361D01*
X64629352Y-57432478D01*
X64666841Y-57478159D01*
X64676230Y-57485864D01*
X64654352Y-57512522D01*
X64626495Y-57564639D01*
X64609340Y-57621190D01*
X64603548Y-57680000D01*
X64605000Y-57775000D01*
X64680000Y-57850000D01*
X65050000Y-57850000D01*
X65050000Y-57120000D01*
X64655000Y-57120000D01*
X64580000Y-57195000D01*
X64578548Y-57265000D01*
X60500000Y-57265000D01*
X60500000Y-56654232D01*
X60521190Y-56660660D01*
X60580000Y-56666452D01*
X60675000Y-56665000D01*
X60750000Y-56590000D01*
X60750000Y-56220000D01*
X61050000Y-56220000D01*
X61050000Y-56590000D01*
X61125000Y-56665000D01*
X61220000Y-56666452D01*
X61278810Y-56660660D01*
X61335361Y-56643505D01*
X61387478Y-56615648D01*
X61433159Y-56578159D01*
X61470648Y-56532478D01*
X61498505Y-56480361D01*
X61515660Y-56423810D01*
X61521452Y-56365000D01*
X61520000Y-56295000D01*
X61445000Y-56220000D01*
X61050000Y-56220000D01*
X60750000Y-56220000D01*
X60730000Y-56220000D01*
X60730000Y-55920000D01*
X60750000Y-55920000D01*
X60750000Y-55900000D01*
X61050000Y-55900000D01*
X61050000Y-55920000D01*
X61445000Y-55920000D01*
X61520000Y-55845000D01*
X61521452Y-55775000D01*
X61515660Y-55716190D01*
X61498505Y-55659639D01*
X61470648Y-55607522D01*
X61433159Y-55561841D01*
X61408871Y-55541908D01*
X61445789Y-55496924D01*
X61487277Y-55419306D01*
X61512825Y-55335086D01*
X61521451Y-55247500D01*
X61521451Y-54952500D01*
X61512825Y-54864914D01*
X61487277Y-54780694D01*
X61445789Y-54703076D01*
X61389956Y-54635044D01*
X61357486Y-54608397D01*
X61379956Y-54589956D01*
X61400000Y-54565533D01*
X61420044Y-54589956D01*
X61488076Y-54645789D01*
X61565694Y-54687277D01*
X61649914Y-54712825D01*
X61737500Y-54721451D01*
X62032500Y-54721451D01*
X62120086Y-54712825D01*
X62204306Y-54687277D01*
X62274046Y-54650000D01*
X62981357Y-54650000D01*
X62992958Y-54659521D01*
X63088506Y-54710592D01*
X63192181Y-54742042D01*
X63272982Y-54750000D01*
X63272991Y-54750000D01*
X63299999Y-54752660D01*
X63327007Y-54750000D01*
X64369318Y-54750000D01*
X64450119Y-54742042D01*
X64553794Y-54710592D01*
X64649342Y-54659521D01*
X64733090Y-54590790D01*
X64801821Y-54507042D01*
X64852892Y-54411494D01*
X64853163Y-54410600D01*
X64902606Y-54410600D01*
X64991477Y-54392923D01*
X65000244Y-54389291D01*
X64999744Y-54391809D01*
X64942153Y-54449400D01*
X64999744Y-54506991D01*
X65004097Y-54528878D01*
X64928011Y-54604964D01*
X64857300Y-54534253D01*
X64629223Y-54762329D01*
X64636451Y-54855452D01*
X64719911Y-54890735D01*
X64808650Y-54909058D01*
X64899260Y-54909717D01*
X64988258Y-54892687D01*
X65059534Y-54863769D01*
X65077733Y-54881968D01*
X65158531Y-54801170D01*
X65164067Y-54806706D01*
X65239408Y-54857047D01*
X65323123Y-54891723D01*
X65411994Y-54909400D01*
X65502606Y-54909400D01*
X65591477Y-54891723D01*
X65675192Y-54857047D01*
X65686637Y-54849400D01*
X65725000Y-54849400D01*
X65725000Y-54950002D01*
X65734646Y-54950002D01*
X65736092Y-54976777D01*
X65749537Y-55000000D01*
X65736092Y-55023223D01*
X65734646Y-55049998D01*
X65725000Y-55049998D01*
X65725000Y-55200000D01*
X65619635Y-55200000D01*
X65599999Y-55198066D01*
X65580363Y-55200000D01*
X65580353Y-55200000D01*
X65521586Y-55205788D01*
X65446186Y-55228660D01*
X65376697Y-55265803D01*
X65315789Y-55315789D01*
X65303263Y-55331052D01*
X65230766Y-55403549D01*
X65027500Y-55403549D01*
X64939914Y-55412175D01*
X64855694Y-55437723D01*
X64778076Y-55479211D01*
X64710044Y-55535044D01*
X64704403Y-55541917D01*
X64660523Y-55512597D01*
X64560429Y-55471136D01*
X64454170Y-55450000D01*
X64345830Y-55450000D01*
X64239571Y-55471136D01*
X64139477Y-55512597D01*
X64049396Y-55572787D01*
X63972787Y-55649396D01*
X63912597Y-55739477D01*
X63871136Y-55839571D01*
X63850000Y-55945830D01*
X63850000Y-56054170D01*
X63871136Y-56160429D01*
X63912597Y-56260523D01*
X63972787Y-56350604D01*
X64049396Y-56427213D01*
X64139477Y-56487403D01*
X64239571Y-56528864D01*
X64345830Y-56550000D01*
X64454170Y-56550000D01*
X64560429Y-56528864D01*
X64638313Y-56496603D01*
X64629352Y-56507522D01*
X64601495Y-56559639D01*
X64584340Y-56616190D01*
X64578548Y-56675000D01*
X64580000Y-56745000D01*
X64655000Y-56820000D01*
X65050000Y-56820000D01*
X65050000Y-56800000D01*
X65350000Y-56800000D01*
X65350000Y-56820000D01*
X65370000Y-56820000D01*
X65370000Y-57120000D01*
X65350000Y-57120000D01*
X65350000Y-57850000D01*
X65370000Y-57850000D01*
X65370000Y-58150000D01*
X65350000Y-58150000D01*
X65350000Y-58545000D01*
X65425000Y-58620000D01*
X65495000Y-58621452D01*
X65514814Y-58619501D01*
X65331052Y-58803263D01*
X65331049Y-58803265D01*
X65166763Y-58967552D01*
X65031054Y-59103261D01*
X65031049Y-59103265D01*
X64081054Y-60053261D01*
X64081049Y-60053265D01*
X63331047Y-60803267D01*
X63315790Y-60815789D01*
X63303268Y-60831047D01*
X63303265Y-60831050D01*
X63265803Y-60876698D01*
X63228661Y-60946186D01*
X63205788Y-61021587D01*
X63198065Y-61100000D01*
X63200000Y-61119646D01*
X63200000Y-61480349D01*
X63198065Y-61500000D01*
X63201066Y-61530466D01*
X63205788Y-61578413D01*
X63228660Y-61653813D01*
X63265803Y-61723302D01*
X63297941Y-61762463D01*
X63290454Y-61787145D01*
X63281828Y-61874731D01*
X63290454Y-61962317D01*
X63316002Y-62046537D01*
X63357490Y-62124155D01*
X63413323Y-62192187D01*
X63621919Y-62400783D01*
X63689951Y-62456616D01*
X63767569Y-62498104D01*
X63851789Y-62523652D01*
X63909704Y-62529356D01*
X63906624Y-62560625D01*
X63912417Y-62619435D01*
X63929571Y-62675985D01*
X63957428Y-62728103D01*
X63994918Y-62773783D01*
X64045442Y-62822254D01*
X64151508Y-62822254D01*
X64430815Y-62542947D01*
X64416673Y-62528805D01*
X64628805Y-62316673D01*
X64642947Y-62330815D01*
X64657090Y-62316673D01*
X64869222Y-62528805D01*
X64855079Y-62542947D01*
X65116709Y-62804577D01*
X65222775Y-62804577D01*
X65290976Y-62738428D01*
X65328466Y-62692748D01*
X65356323Y-62640630D01*
X65363688Y-62616349D01*
X65998974Y-63251635D01*
X66044655Y-63289124D01*
X66096772Y-63316981D01*
X66153322Y-63334136D01*
X66212132Y-63339928D01*
X66270942Y-63334136D01*
X66327492Y-63316981D01*
X66379609Y-63289124D01*
X66425290Y-63251635D01*
X66641959Y-63034966D01*
X66643677Y-63040630D01*
X66671534Y-63092748D01*
X66709024Y-63138428D01*
X66777225Y-63204577D01*
X66883291Y-63204577D01*
X67144921Y-62942947D01*
X67130779Y-62928805D01*
X67342911Y-62716673D01*
X67357053Y-62730815D01*
X67371196Y-62716673D01*
X67583328Y-62928805D01*
X67569185Y-62942947D01*
X67848492Y-63222254D01*
X67954558Y-63222254D01*
X68005082Y-63173783D01*
X68042572Y-63128103D01*
X68070429Y-63075985D01*
X68087583Y-63019435D01*
X68093376Y-62960625D01*
X68090296Y-62929356D01*
X68148211Y-62923652D01*
X68232431Y-62898104D01*
X68310049Y-62856616D01*
X68378081Y-62800783D01*
X68586677Y-62592187D01*
X68642510Y-62524155D01*
X68683998Y-62446537D01*
X68709546Y-62362317D01*
X68718172Y-62274731D01*
X68709546Y-62187145D01*
X68702059Y-62162463D01*
X68734197Y-62123303D01*
X68771340Y-62053814D01*
X68794212Y-61978414D01*
X68800000Y-61919647D01*
X68800000Y-61919637D01*
X68801934Y-61900001D01*
X68800000Y-61880365D01*
X68800000Y-61680000D01*
X69778548Y-61680000D01*
X69784340Y-61738810D01*
X69801495Y-61795361D01*
X69829352Y-61847478D01*
X69866841Y-61893159D01*
X69912522Y-61930648D01*
X69964639Y-61958505D01*
X70021190Y-61975660D01*
X70080000Y-61981452D01*
X70175000Y-61980000D01*
X70250000Y-61905000D01*
X70250000Y-61535000D01*
X70550000Y-61535000D01*
X70550000Y-61905000D01*
X70625000Y-61980000D01*
X70720000Y-61981452D01*
X70778810Y-61975660D01*
X70835361Y-61958505D01*
X70887478Y-61930648D01*
X70900000Y-61920372D01*
X70912522Y-61930648D01*
X70964639Y-61958505D01*
X71021190Y-61975660D01*
X71080000Y-61981452D01*
X71175000Y-61980000D01*
X71250000Y-61905000D01*
X71250000Y-61535000D01*
X71550000Y-61535000D01*
X71550000Y-61905000D01*
X71625000Y-61980000D01*
X71720000Y-61981452D01*
X71778810Y-61975660D01*
X71835361Y-61958505D01*
X71887478Y-61930648D01*
X71933159Y-61893159D01*
X71970648Y-61847478D01*
X71998505Y-61795361D01*
X72015660Y-61738810D01*
X72017701Y-61718082D01*
X73530214Y-61718082D01*
X79900000Y-68087868D01*
X86269786Y-61718082D01*
X85205815Y-60741978D01*
X83629368Y-59852090D01*
X81909604Y-59286850D01*
X80112611Y-59067981D01*
X78307449Y-59203894D01*
X76563487Y-59689364D01*
X74947746Y-60505737D01*
X74594185Y-60741978D01*
X73530214Y-61718082D01*
X72017701Y-61718082D01*
X72021452Y-61680000D01*
X72020000Y-61610000D01*
X71945000Y-61535000D01*
X71550000Y-61535000D01*
X71250000Y-61535000D01*
X70550000Y-61535000D01*
X70250000Y-61535000D01*
X69855000Y-61535000D01*
X69780000Y-61610000D01*
X69778548Y-61680000D01*
X68800000Y-61680000D01*
X68800000Y-61419635D01*
X68801934Y-61399999D01*
X68800000Y-61380363D01*
X68800000Y-61380353D01*
X68794212Y-61321586D01*
X68771340Y-61246186D01*
X68734197Y-61176697D01*
X68684211Y-61115789D01*
X68668949Y-61103264D01*
X68000000Y-60434315D01*
X68000000Y-59555000D01*
X68050000Y-59505000D01*
X68050000Y-59135000D01*
X68030000Y-59135000D01*
X68030000Y-58835000D01*
X68050000Y-58835000D01*
X68050000Y-58815000D01*
X68350000Y-58815000D01*
X68350000Y-58835000D01*
X68370000Y-58835000D01*
X68370000Y-59135000D01*
X68350000Y-59135000D01*
X68350000Y-59505000D01*
X68425000Y-59580000D01*
X68520000Y-59581452D01*
X68578810Y-59575660D01*
X68635361Y-59558505D01*
X68687478Y-59530648D01*
X68717177Y-59506275D01*
X68717177Y-59650000D01*
X68722969Y-59708810D01*
X68740124Y-59765360D01*
X68767981Y-59817477D01*
X68805470Y-59863158D01*
X68851151Y-59900647D01*
X68903268Y-59928504D01*
X68959818Y-59945659D01*
X69018628Y-59951451D01*
X69168628Y-59951451D01*
X69168628Y-60248981D01*
X69166693Y-60268628D01*
X69168628Y-60288274D01*
X69174416Y-60347041D01*
X69197288Y-60422441D01*
X69234431Y-60491930D01*
X69284417Y-60552839D01*
X69299680Y-60565365D01*
X69418263Y-60683948D01*
X69430789Y-60699211D01*
X69491697Y-60749197D01*
X69561186Y-60786340D01*
X69636586Y-60809212D01*
X69695353Y-60815000D01*
X69695363Y-60815000D01*
X69714999Y-60816934D01*
X69734635Y-60815000D01*
X69856735Y-60815000D01*
X69891129Y-60856908D01*
X69866841Y-60876841D01*
X69829352Y-60922522D01*
X69801495Y-60974639D01*
X69784340Y-61031190D01*
X69778548Y-61090000D01*
X69780000Y-61160000D01*
X69855000Y-61235000D01*
X70250000Y-61235000D01*
X70250000Y-61215000D01*
X70550000Y-61215000D01*
X70550000Y-61235000D01*
X71250000Y-61235000D01*
X71250000Y-61215000D01*
X71550000Y-61215000D01*
X71550000Y-61235000D01*
X71945000Y-61235000D01*
X72020000Y-61160000D01*
X72021452Y-61090000D01*
X72015660Y-61031190D01*
X71998505Y-60974639D01*
X71970648Y-60922522D01*
X71933159Y-60876841D01*
X71908871Y-60856908D01*
X71945789Y-60811924D01*
X71946340Y-60810894D01*
X71963414Y-60809212D01*
X72038814Y-60786340D01*
X72108303Y-60749197D01*
X72169211Y-60699211D01*
X72181737Y-60683948D01*
X72337577Y-60528108D01*
X72352839Y-60515583D01*
X72402825Y-60454675D01*
X72439968Y-60385186D01*
X72462840Y-60309786D01*
X72468628Y-60251019D01*
X72468628Y-60251009D01*
X72470562Y-60231373D01*
X72468628Y-60211737D01*
X72468628Y-59951451D01*
X72618628Y-59951451D01*
X72677438Y-59945659D01*
X72733988Y-59928504D01*
X72786105Y-59900647D01*
X72831786Y-59863158D01*
X72869275Y-59817477D01*
X72897132Y-59765360D01*
X72914287Y-59708810D01*
X72920079Y-59650000D01*
X72920079Y-57750000D01*
X72914287Y-57691190D01*
X72897132Y-57634640D01*
X72869275Y-57582523D01*
X72831786Y-57536842D01*
X72786105Y-57499353D01*
X72733988Y-57471496D01*
X72677438Y-57454341D01*
X72618628Y-57448549D01*
X72450201Y-57448549D01*
X72439968Y-57414814D01*
X72402825Y-57345325D01*
X72352839Y-57284417D01*
X72337577Y-57271892D01*
X72196735Y-57131050D01*
X72184211Y-57115789D01*
X72123303Y-57065803D01*
X72053814Y-57028660D01*
X72000000Y-57012336D01*
X72000000Y-56405353D01*
X71999415Y-56399415D01*
X72005353Y-56400000D01*
X72980354Y-56400000D01*
X73000000Y-56401935D01*
X73019646Y-56400000D01*
X73019647Y-56400000D01*
X73078414Y-56394212D01*
X73117708Y-56382293D01*
X73108192Y-56413661D01*
X73108049Y-56414134D01*
X73072787Y-56449396D01*
X73012597Y-56539477D01*
X72971136Y-56639571D01*
X72950000Y-56745830D01*
X72950000Y-56854170D01*
X72971136Y-56960429D01*
X73012597Y-57060523D01*
X73072787Y-57150604D01*
X73149396Y-57227213D01*
X73239477Y-57287403D01*
X73339571Y-57328864D01*
X73445830Y-57350000D01*
X73554170Y-57350000D01*
X73660429Y-57328864D01*
X73760523Y-57287403D01*
X73850604Y-57227213D01*
X73927213Y-57150604D01*
X73987403Y-57060523D01*
X74028864Y-56960429D01*
X74050000Y-56854170D01*
X74050000Y-56745830D01*
X74028864Y-56639571D01*
X73987403Y-56539477D01*
X73986534Y-56538176D01*
X74009212Y-56463414D01*
X74010894Y-56446340D01*
X74011924Y-56445789D01*
X74056908Y-56408871D01*
X74076841Y-56433159D01*
X74122522Y-56470648D01*
X74174639Y-56498505D01*
X74231190Y-56515660D01*
X74290000Y-56521452D01*
X74360000Y-56520000D01*
X74435000Y-56445000D01*
X74435000Y-56050000D01*
X74735000Y-56050000D01*
X74735000Y-56445000D01*
X74810000Y-56520000D01*
X74880000Y-56521452D01*
X74938810Y-56515660D01*
X74995361Y-56498505D01*
X75047478Y-56470648D01*
X75093159Y-56433159D01*
X75130648Y-56387478D01*
X75158505Y-56335361D01*
X75175660Y-56278810D01*
X75181452Y-56220000D01*
X75180000Y-56125000D01*
X75105000Y-56050000D01*
X74735000Y-56050000D01*
X74435000Y-56050000D01*
X74415000Y-56050000D01*
X74415000Y-55920000D01*
X77058549Y-55920000D01*
X77058549Y-58710000D01*
X77064341Y-58768810D01*
X77081496Y-58825360D01*
X77109353Y-58877477D01*
X77146842Y-58923158D01*
X77192523Y-58960647D01*
X77244640Y-58988504D01*
X77301190Y-59005659D01*
X77360000Y-59011451D01*
X82440000Y-59011451D01*
X82498810Y-59005659D01*
X82555360Y-58988504D01*
X82607477Y-58960647D01*
X82653158Y-58923158D01*
X82690647Y-58877477D01*
X82718504Y-58825360D01*
X82735659Y-58768810D01*
X82741451Y-58710000D01*
X82741451Y-57719268D01*
X82749396Y-57727213D01*
X82839477Y-57787403D01*
X82939571Y-57828864D01*
X83045830Y-57850000D01*
X83154170Y-57850000D01*
X83260429Y-57828864D01*
X83360523Y-57787403D01*
X83450604Y-57727213D01*
X83527213Y-57650604D01*
X83587403Y-57560523D01*
X83628864Y-57460429D01*
X83650000Y-57354170D01*
X83650000Y-57245830D01*
X83628864Y-57139571D01*
X83587403Y-57039477D01*
X83527213Y-56949396D01*
X83450604Y-56872787D01*
X83360523Y-56812597D01*
X83260429Y-56771136D01*
X83154170Y-56750000D01*
X83045830Y-56750000D01*
X82939571Y-56771136D01*
X82839477Y-56812597D01*
X82749396Y-56872787D01*
X82741451Y-56880732D01*
X82741451Y-55920000D01*
X82735659Y-55861190D01*
X82718504Y-55804640D01*
X82690647Y-55752523D01*
X82653158Y-55706842D01*
X82607477Y-55669353D01*
X82555360Y-55641496D01*
X82498810Y-55624341D01*
X82440000Y-55618549D01*
X77360000Y-55618549D01*
X77301190Y-55624341D01*
X77244640Y-55641496D01*
X77192523Y-55669353D01*
X77146842Y-55706842D01*
X77109353Y-55752523D01*
X77081496Y-55804640D01*
X77064341Y-55861190D01*
X77058549Y-55920000D01*
X74415000Y-55920000D01*
X74415000Y-55750000D01*
X74435000Y-55750000D01*
X74435000Y-55355000D01*
X74735000Y-55355000D01*
X74735000Y-55750000D01*
X75105000Y-55750000D01*
X75180000Y-55675000D01*
X75181452Y-55580000D01*
X75175660Y-55521190D01*
X75158505Y-55464639D01*
X75130648Y-55412522D01*
X75093159Y-55366841D01*
X75047478Y-55329352D01*
X74995361Y-55301495D01*
X74938810Y-55284340D01*
X74880000Y-55278548D01*
X74810000Y-55280000D01*
X74735000Y-55355000D01*
X74435000Y-55355000D01*
X74360000Y-55280000D01*
X74290000Y-55278548D01*
X74231190Y-55284340D01*
X74174639Y-55301495D01*
X74122522Y-55329352D01*
X74076841Y-55366841D01*
X74056908Y-55391129D01*
X74011924Y-55354211D01*
X73934306Y-55312723D01*
X73850086Y-55287175D01*
X73762500Y-55278549D01*
X73467500Y-55278549D01*
X73379914Y-55287175D01*
X73295694Y-55312723D01*
X73218076Y-55354211D01*
X73150044Y-55410044D01*
X73094211Y-55478076D01*
X73082611Y-55499779D01*
X73080363Y-55500000D01*
X73080353Y-55500000D01*
X73063177Y-55501692D01*
X73046340Y-55446186D01*
X73021653Y-55400000D01*
X73046340Y-55353814D01*
X73069212Y-55278414D01*
X73076935Y-55200000D01*
X73069212Y-55121586D01*
X73046340Y-55046186D01*
X73021653Y-55000000D01*
X73046340Y-54953814D01*
X73069212Y-54878414D01*
X73076935Y-54800000D01*
X73082492Y-54800000D01*
X73094211Y-54821924D01*
X73150044Y-54889956D01*
X73218076Y-54945789D01*
X73295694Y-54987277D01*
X73379914Y-55012825D01*
X73467500Y-55021451D01*
X73762500Y-55021451D01*
X73850086Y-55012825D01*
X73934306Y-54987277D01*
X74011924Y-54945789D01*
X74079956Y-54889956D01*
X74100000Y-54865533D01*
X74120044Y-54889956D01*
X74188076Y-54945789D01*
X74265694Y-54987277D01*
X74349914Y-55012825D01*
X74437500Y-55021451D01*
X74732500Y-55021451D01*
X74820086Y-55012825D01*
X74904306Y-54987277D01*
X74981924Y-54945789D01*
X75049956Y-54889956D01*
X75105789Y-54821924D01*
X75147277Y-54744306D01*
X75172825Y-54660086D01*
X75181451Y-54572500D01*
X75181451Y-54227500D01*
X75172825Y-54139914D01*
X75147277Y-54055694D01*
X75105789Y-53978076D01*
X75049956Y-53910044D01*
X75037717Y-53900000D01*
X75049956Y-53889956D01*
X75105789Y-53821924D01*
X75117508Y-53800000D01*
X76040356Y-53800000D01*
X76060002Y-53801935D01*
X76079648Y-53800000D01*
X76079649Y-53800000D01*
X76138416Y-53794212D01*
X76213816Y-53771340D01*
X76283305Y-53734197D01*
X76344213Y-53684211D01*
X76356739Y-53668948D01*
X77768949Y-52256738D01*
X77784211Y-52244213D01*
X77834197Y-52183305D01*
X77871340Y-52113816D01*
X77894212Y-52038416D01*
X77900000Y-51979649D01*
X77900000Y-51979648D01*
X77901935Y-51960002D01*
X77900000Y-51940355D01*
X77900000Y-49000000D01*
X83798549Y-49000000D01*
X83798549Y-52400000D01*
X83804341Y-52458810D01*
X83821496Y-52515360D01*
X83849353Y-52567477D01*
X83886842Y-52613158D01*
X83932523Y-52650647D01*
X83984640Y-52678504D01*
X84041190Y-52695659D01*
X84100000Y-52701451D01*
X85400000Y-52701451D01*
X85458810Y-52695659D01*
X85515360Y-52678504D01*
X85567477Y-52650647D01*
X85613158Y-52613158D01*
X85650647Y-52567477D01*
X85678504Y-52515360D01*
X85695659Y-52458810D01*
X85701451Y-52400000D01*
X85701451Y-51513074D01*
X85739571Y-51528864D01*
X85845830Y-51550000D01*
X85954170Y-51550000D01*
X86060429Y-51528864D01*
X86160523Y-51487403D01*
X86250604Y-51427213D01*
X86327213Y-51350604D01*
X86387403Y-51260523D01*
X86428864Y-51160429D01*
X86450000Y-51054170D01*
X86450000Y-50945830D01*
X86428864Y-50839571D01*
X86387403Y-50739477D01*
X86327213Y-50649396D01*
X86250604Y-50572787D01*
X86160523Y-50512597D01*
X86060429Y-50471136D01*
X85954170Y-50450000D01*
X85915685Y-50450000D01*
X85896737Y-50431052D01*
X85884211Y-50415789D01*
X85823303Y-50365803D01*
X85753814Y-50328660D01*
X85701451Y-50312776D01*
X85701451Y-49000000D01*
X85695659Y-48941190D01*
X85678504Y-48884640D01*
X85650647Y-48832523D01*
X85613158Y-48786842D01*
X85567477Y-48749353D01*
X85515360Y-48721496D01*
X85458810Y-48704341D01*
X85400000Y-48698549D01*
X84100000Y-48698549D01*
X84041190Y-48704341D01*
X83984640Y-48721496D01*
X83932523Y-48749353D01*
X83886842Y-48786842D01*
X83849353Y-48832523D01*
X83821496Y-48884640D01*
X83804341Y-48941190D01*
X83798549Y-49000000D01*
X77900000Y-49000000D01*
X77900000Y-48419635D01*
X77901934Y-48399999D01*
X77900000Y-48380363D01*
X77900000Y-48380353D01*
X77894212Y-48321586D01*
X77871340Y-48246186D01*
X77834197Y-48176697D01*
X77802134Y-48137628D01*
X77796735Y-48131049D01*
X77796733Y-48131047D01*
X77784211Y-48115789D01*
X77768953Y-48103267D01*
X76446737Y-46781052D01*
X76434211Y-46765789D01*
X76373303Y-46715803D01*
X76303814Y-46678660D01*
X76228414Y-46655788D01*
X76169647Y-46650000D01*
X76169646Y-46650000D01*
X76150000Y-46648065D01*
X76130354Y-46650000D01*
X72883164Y-46650000D01*
X72878504Y-46634640D01*
X72850647Y-46582523D01*
X72813158Y-46536842D01*
X72767477Y-46499353D01*
X72715360Y-46471496D01*
X72658810Y-46454341D01*
X72600000Y-46448549D01*
X71300000Y-46448549D01*
X71241190Y-46454341D01*
X71184640Y-46471496D01*
X71132523Y-46499353D01*
X71086842Y-46536842D01*
X71049353Y-46582523D01*
X71021496Y-46634640D01*
X71004341Y-46691190D01*
X70998549Y-46750000D01*
X70998549Y-47350000D01*
X71004341Y-47408810D01*
X71021496Y-47465360D01*
X71049353Y-47517477D01*
X71086842Y-47563158D01*
X71132523Y-47600647D01*
X71184640Y-47628504D01*
X71241190Y-47645659D01*
X71300000Y-47651451D01*
X72600000Y-47651451D01*
X72658810Y-47645659D01*
X72715360Y-47628504D01*
X72767477Y-47600647D01*
X72813158Y-47563158D01*
X72850647Y-47517477D01*
X72878504Y-47465360D01*
X72883164Y-47450000D01*
X73231735Y-47450000D01*
X73186842Y-47486842D01*
X73149353Y-47532523D01*
X73121496Y-47584640D01*
X73104341Y-47641190D01*
X73098549Y-47700000D01*
X73098549Y-48300000D01*
X73104341Y-48358810D01*
X73121496Y-48415360D01*
X73149353Y-48467477D01*
X73186842Y-48513158D01*
X73232523Y-48550647D01*
X73262371Y-48566601D01*
X73239571Y-48571136D01*
X73139477Y-48612597D01*
X73049396Y-48672787D01*
X72972787Y-48749396D01*
X72912597Y-48839477D01*
X72900000Y-48869888D01*
X72900000Y-48799998D01*
X72825002Y-48799998D01*
X72900000Y-48725000D01*
X72901452Y-48650000D01*
X72895660Y-48591190D01*
X72878505Y-48534639D01*
X72850648Y-48482522D01*
X72813159Y-48436841D01*
X72767478Y-48399352D01*
X72715361Y-48371495D01*
X72658810Y-48354340D01*
X72600000Y-48348548D01*
X72175000Y-48350000D01*
X72100000Y-48425000D01*
X72100000Y-48800000D01*
X72120000Y-48800000D01*
X72120000Y-49100000D01*
X72100000Y-49100000D01*
X72100000Y-49475000D01*
X72175000Y-49550000D01*
X72600000Y-49551452D01*
X72658810Y-49545660D01*
X72715361Y-49528505D01*
X72767478Y-49500648D01*
X72813159Y-49463159D01*
X72850648Y-49417478D01*
X72878505Y-49365361D01*
X72893765Y-49315058D01*
X72912597Y-49360523D01*
X72972787Y-49450604D01*
X73000001Y-49477818D01*
X73000001Y-49580344D01*
X72998065Y-49600000D01*
X73005788Y-49678413D01*
X73028661Y-49753814D01*
X73065803Y-49823302D01*
X73103265Y-49868950D01*
X73103268Y-49868953D01*
X73115790Y-49884211D01*
X73131048Y-49896733D01*
X73215000Y-49980685D01*
X73215000Y-50030330D01*
X73176698Y-50050803D01*
X73115790Y-50100790D01*
X73065803Y-50161698D01*
X73028661Y-50231186D01*
X73005788Y-50306587D01*
X72998065Y-50385000D01*
X73005788Y-50463413D01*
X73018549Y-50505480D01*
X73018549Y-50772500D01*
X73027175Y-50860086D01*
X73052723Y-50944306D01*
X73094211Y-51021924D01*
X73150044Y-51089956D01*
X73162283Y-51100000D01*
X73150044Y-51110044D01*
X73094211Y-51178076D01*
X73082492Y-51200000D01*
X72005353Y-51200000D01*
X72000000Y-51200527D01*
X72000000Y-51000000D01*
X71600000Y-51000000D01*
X71600000Y-50700000D01*
X72000000Y-50700000D01*
X72000000Y-50375000D01*
X71963051Y-50299846D01*
X71912150Y-50233345D01*
X71849253Y-50178052D01*
X71776777Y-50136092D01*
X71662574Y-50129925D01*
X71600000Y-50200000D01*
X71537426Y-50129925D01*
X71423223Y-50136092D01*
X71374126Y-50164517D01*
X71353814Y-50153660D01*
X71278414Y-50130788D01*
X71200000Y-50123065D01*
X71121587Y-50130788D01*
X71046187Y-50153660D01*
X71000001Y-50178347D01*
X70953814Y-50153660D01*
X70878414Y-50130788D01*
X70800000Y-50123065D01*
X70721587Y-50130788D01*
X70646187Y-50153660D01*
X70600001Y-50178347D01*
X70553814Y-50153660D01*
X70478414Y-50130788D01*
X70400000Y-50123065D01*
X70321587Y-50130788D01*
X70246187Y-50153660D01*
X70200001Y-50178347D01*
X70153814Y-50153660D01*
X70078414Y-50130788D01*
X70000000Y-50123065D01*
X69921587Y-50130788D01*
X69846187Y-50153660D01*
X69800001Y-50178347D01*
X69753814Y-50153660D01*
X69678414Y-50130788D01*
X69600000Y-50123065D01*
X69521587Y-50130788D01*
X69446187Y-50153660D01*
X69400001Y-50178347D01*
X69353814Y-50153660D01*
X69278414Y-50130788D01*
X69200000Y-50123065D01*
X69121587Y-50130788D01*
X69046187Y-50153660D01*
X69000001Y-50178347D01*
X68953814Y-50153660D01*
X68878414Y-50130788D01*
X68800000Y-50123065D01*
X68721587Y-50130788D01*
X68646187Y-50153660D01*
X68600001Y-50178347D01*
X68553814Y-50153660D01*
X68478414Y-50130788D01*
X68400000Y-50123065D01*
X68321587Y-50130788D01*
X68246187Y-50153660D01*
X68200001Y-50178347D01*
X68153814Y-50153660D01*
X68078414Y-50130788D01*
X68000000Y-50123065D01*
X68000000Y-49519647D01*
X68001935Y-49500000D01*
X67994212Y-49421586D01*
X67985908Y-49394212D01*
X67971340Y-49346186D01*
X67934197Y-49276697D01*
X67884211Y-49215789D01*
X67870000Y-49204127D01*
X67870000Y-48770827D01*
X67967362Y-48730498D01*
X68139336Y-48615589D01*
X68285589Y-48469336D01*
X68400498Y-48297362D01*
X68479650Y-48106274D01*
X68520000Y-47903416D01*
X68520000Y-47696584D01*
X68960000Y-47696584D01*
X68960000Y-47903416D01*
X69000350Y-48106274D01*
X69079502Y-48297362D01*
X69194411Y-48469336D01*
X69340664Y-48615589D01*
X69380186Y-48641997D01*
X69372787Y-48649396D01*
X69312597Y-48739477D01*
X69271136Y-48839571D01*
X69250000Y-48945830D01*
X69250000Y-49054170D01*
X69271136Y-49160429D01*
X69312597Y-49260523D01*
X69372787Y-49350604D01*
X69449396Y-49427213D01*
X69539477Y-49487403D01*
X69639571Y-49528864D01*
X69745830Y-49550000D01*
X69854170Y-49550000D01*
X69960429Y-49528864D01*
X70060523Y-49487403D01*
X70150604Y-49427213D01*
X70227213Y-49350604D01*
X70287403Y-49260523D01*
X70291761Y-49250000D01*
X70998548Y-49250000D01*
X71004340Y-49308810D01*
X71021495Y-49365361D01*
X71049352Y-49417478D01*
X71086841Y-49463159D01*
X71132522Y-49500648D01*
X71184639Y-49528505D01*
X71241190Y-49545660D01*
X71300000Y-49551452D01*
X71725000Y-49550000D01*
X71800000Y-49475000D01*
X71800000Y-49100000D01*
X71075000Y-49100000D01*
X71000000Y-49175000D01*
X70998548Y-49250000D01*
X70291761Y-49250000D01*
X70328864Y-49160429D01*
X70350000Y-49054170D01*
X70350000Y-49002446D01*
X70364249Y-48975788D01*
X70381340Y-48943815D01*
X70404212Y-48868414D01*
X70411935Y-48790000D01*
X70410045Y-48770808D01*
X70507362Y-48730498D01*
X70627836Y-48650000D01*
X70998548Y-48650000D01*
X71000000Y-48725000D01*
X71075000Y-48800000D01*
X71800000Y-48800000D01*
X71800000Y-48425000D01*
X71725000Y-48350000D01*
X71300000Y-48348548D01*
X71241190Y-48354340D01*
X71184639Y-48371495D01*
X71132522Y-48399352D01*
X71086841Y-48436841D01*
X71049352Y-48482522D01*
X71021495Y-48534639D01*
X71004340Y-48591190D01*
X70998548Y-48650000D01*
X70627836Y-48650000D01*
X70679336Y-48615589D01*
X70825589Y-48469336D01*
X70940498Y-48297362D01*
X71019650Y-48106274D01*
X71060000Y-47903416D01*
X71060000Y-47696584D01*
X71019650Y-47493726D01*
X70940498Y-47302638D01*
X70825589Y-47130664D01*
X70679336Y-46984411D01*
X70507362Y-46869502D01*
X70316274Y-46790350D01*
X70113416Y-46750000D01*
X69906584Y-46750000D01*
X69703726Y-46790350D01*
X69512638Y-46869502D01*
X69340664Y-46984411D01*
X69194411Y-47130664D01*
X69079502Y-47302638D01*
X69000350Y-47493726D01*
X68960000Y-47696584D01*
X68520000Y-47696584D01*
X68479650Y-47493726D01*
X68400498Y-47302638D01*
X68285589Y-47130664D01*
X68139336Y-46984411D01*
X67967362Y-46869502D01*
X67776274Y-46790350D01*
X67573416Y-46750000D01*
X67366584Y-46750000D01*
X67163726Y-46790350D01*
X66972638Y-46869502D01*
X66800664Y-46984411D01*
X66654411Y-47130664D01*
X66539502Y-47302638D01*
X66460350Y-47493726D01*
X66420000Y-47696584D01*
X66420000Y-47903416D01*
X66460350Y-48106274D01*
X66539502Y-48297362D01*
X66654411Y-48469336D01*
X66800664Y-48615589D01*
X66972638Y-48730498D01*
X67070001Y-48770827D01*
X67070001Y-49350344D01*
X67068065Y-49370000D01*
X67068325Y-49372639D01*
X65899321Y-48203636D01*
X65939650Y-48106274D01*
X65980000Y-47903416D01*
X65980000Y-47696584D01*
X65939650Y-47493726D01*
X65860498Y-47302638D01*
X65745589Y-47130664D01*
X65599336Y-46984411D01*
X65427362Y-46869502D01*
X65236274Y-46790350D01*
X65033416Y-46750000D01*
X64826584Y-46750000D01*
X64623726Y-46790350D01*
X64432638Y-46869502D01*
X64260664Y-46984411D01*
X64114411Y-47130664D01*
X63999502Y-47302638D01*
X63920350Y-47493726D01*
X63880000Y-47696584D01*
X63880000Y-47903416D01*
X63920350Y-48106274D01*
X63999502Y-48297362D01*
X64114411Y-48469336D01*
X64260664Y-48615589D01*
X64432638Y-48730498D01*
X64623726Y-48809650D01*
X64826584Y-48850000D01*
X65033416Y-48850000D01*
X65236274Y-48809650D01*
X65333636Y-48769321D01*
X66800001Y-50235687D01*
X66800000Y-50853814D01*
X66800000Y-51194646D01*
X66800585Y-51200585D01*
X66794647Y-51200000D01*
X66105353Y-51200000D01*
X66046586Y-51205788D01*
X65971186Y-51228660D01*
X65901697Y-51265803D01*
X65840789Y-51315789D01*
X65790803Y-51376697D01*
X65753660Y-51446186D01*
X65730788Y-51521586D01*
X65723196Y-51598665D01*
X65687478Y-51569352D01*
X65635361Y-51541495D01*
X65578810Y-51524340D01*
X65520000Y-51518548D01*
X65425000Y-51520000D01*
X65350000Y-51595000D01*
X65350000Y-51965000D01*
X65370000Y-51965000D01*
X65370000Y-52265000D01*
X65350000Y-52265000D01*
X65350000Y-52285000D01*
X65050000Y-52285000D01*
X65050000Y-52265000D01*
X64655000Y-52265000D01*
X64580000Y-52340000D01*
X64578548Y-52410000D01*
X64584340Y-52468810D01*
X64601495Y-52525361D01*
X64629352Y-52577478D01*
X64666841Y-52623159D01*
X64691129Y-52643092D01*
X64654211Y-52688076D01*
X64614678Y-52762036D01*
X64554170Y-52750000D01*
X64445830Y-52750000D01*
X64339571Y-52771136D01*
X64239477Y-52812597D01*
X64149396Y-52872787D01*
X64072787Y-52949396D01*
X64012597Y-53039477D01*
X63971136Y-53139571D01*
X63950000Y-53245830D01*
X63950000Y-53354170D01*
X63971136Y-53460429D01*
X64012597Y-53560523D01*
X64072383Y-53650000D01*
X63518643Y-53650000D01*
X63507042Y-53640479D01*
X63501755Y-53637653D01*
X63411494Y-53589408D01*
X63307819Y-53557958D01*
X63227018Y-53550000D01*
X63227008Y-53550000D01*
X63200000Y-53547340D01*
X63172992Y-53550000D01*
X62402230Y-53550000D01*
X62445789Y-53496924D01*
X62487277Y-53419306D01*
X62512825Y-53335086D01*
X62521451Y-53247500D01*
X62521451Y-52952500D01*
X62512825Y-52864914D01*
X62487277Y-52780694D01*
X62445789Y-52703076D01*
X62408871Y-52658092D01*
X62433159Y-52638159D01*
X62470648Y-52592478D01*
X62498505Y-52540361D01*
X62515660Y-52483810D01*
X62521452Y-52425000D01*
X62520000Y-52355000D01*
X62445000Y-52280000D01*
X62050000Y-52280000D01*
X62050000Y-52300000D01*
X61750000Y-52300000D01*
X61750000Y-52280000D01*
X61355000Y-52280000D01*
X61280000Y-52355000D01*
X61278548Y-52425000D01*
X61284340Y-52483810D01*
X61301495Y-52540361D01*
X61329352Y-52592478D01*
X61366841Y-52638159D01*
X61391129Y-52658092D01*
X61354211Y-52703076D01*
X61312723Y-52780694D01*
X61287175Y-52864914D01*
X61278549Y-52952500D01*
X61278549Y-53247500D01*
X61287175Y-53335086D01*
X61312723Y-53419306D01*
X61354211Y-53496924D01*
X61410044Y-53564956D01*
X61442514Y-53591603D01*
X61420044Y-53610044D01*
X61400000Y-53634467D01*
X61379956Y-53610044D01*
X61311924Y-53554211D01*
X61234306Y-53512723D01*
X61150086Y-53487175D01*
X61062500Y-53478549D01*
X60767500Y-53478549D01*
X60679914Y-53487175D01*
X60595694Y-53512723D01*
X60525954Y-53550000D01*
X60500000Y-53550000D01*
X60500000Y-52736537D01*
X60900000Y-52736537D01*
X60928119Y-52733780D01*
X60956214Y-52731223D01*
X60957220Y-52730927D01*
X60958270Y-52730824D01*
X60985361Y-52722645D01*
X61012382Y-52714692D01*
X61013313Y-52714205D01*
X61014321Y-52713901D01*
X61039247Y-52700647D01*
X61064269Y-52687566D01*
X61065090Y-52686906D01*
X61066017Y-52686413D01*
X61087847Y-52668609D01*
X61109899Y-52650879D01*
X61110577Y-52650071D01*
X61111390Y-52649408D01*
X61129364Y-52627682D01*
X61147534Y-52606027D01*
X61148041Y-52605105D01*
X61148711Y-52604295D01*
X61162123Y-52579490D01*
X61175741Y-52554720D01*
X61176060Y-52553716D01*
X61176559Y-52552792D01*
X61184909Y-52525817D01*
X61193444Y-52498911D01*
X61193561Y-52497868D01*
X61193873Y-52496860D01*
X61196828Y-52468741D01*
X61199971Y-52440726D01*
X61199985Y-52438707D01*
X61199993Y-52438631D01*
X61199986Y-52438554D01*
X61200000Y-52436537D01*
X61200000Y-51835000D01*
X61278548Y-51835000D01*
X61280000Y-51905000D01*
X61355000Y-51980000D01*
X61750000Y-51980000D01*
X61750000Y-51610000D01*
X62050000Y-51610000D01*
X62050000Y-51980000D01*
X62445000Y-51980000D01*
X62520000Y-51905000D01*
X62521452Y-51835000D01*
X62519975Y-51820000D01*
X64578548Y-51820000D01*
X64580000Y-51890000D01*
X64655000Y-51965000D01*
X65050000Y-51965000D01*
X65050000Y-51595000D01*
X64975000Y-51520000D01*
X64880000Y-51518548D01*
X64821190Y-51524340D01*
X64764639Y-51541495D01*
X64712522Y-51569352D01*
X64666841Y-51606841D01*
X64629352Y-51652522D01*
X64601495Y-51704639D01*
X64584340Y-51761190D01*
X64578548Y-51820000D01*
X62519975Y-51820000D01*
X62515660Y-51776190D01*
X62498505Y-51719639D01*
X62470648Y-51667522D01*
X62433159Y-51621841D01*
X62387478Y-51584352D01*
X62335361Y-51556495D01*
X62278810Y-51539340D01*
X62220000Y-51533548D01*
X62125000Y-51535000D01*
X62050000Y-51610000D01*
X61750000Y-51610000D01*
X61675000Y-51535000D01*
X61580000Y-51533548D01*
X61521190Y-51539340D01*
X61464639Y-51556495D01*
X61412522Y-51584352D01*
X61366841Y-51621841D01*
X61329352Y-51667522D01*
X61301495Y-51719639D01*
X61284340Y-51776190D01*
X61278548Y-51835000D01*
X61200000Y-51835000D01*
X61200000Y-51556298D01*
X61197243Y-51528179D01*
X61194686Y-51500084D01*
X61194390Y-51499078D01*
X61194287Y-51498028D01*
X61186108Y-51470937D01*
X61178155Y-51443916D01*
X61177668Y-51442985D01*
X61177364Y-51441977D01*
X61164110Y-51417051D01*
X61151029Y-51392029D01*
X61150369Y-51391208D01*
X61149876Y-51390281D01*
X61132072Y-51368451D01*
X61114342Y-51346399D01*
X61113534Y-51345721D01*
X61112871Y-51344908D01*
X61091145Y-51326934D01*
X61069490Y-51308764D01*
X61068568Y-51308257D01*
X61067758Y-51307587D01*
X61042953Y-51294175D01*
X61018183Y-51280557D01*
X61017179Y-51280238D01*
X61016255Y-51279739D01*
X60989280Y-51271389D01*
X60962374Y-51262854D01*
X60961331Y-51262737D01*
X60960323Y-51262425D01*
X60932204Y-51259470D01*
X60904189Y-51256327D01*
X60902170Y-51256313D01*
X60902094Y-51256305D01*
X60902017Y-51256312D01*
X60900000Y-51256298D01*
X60500000Y-51256298D01*
X60500000Y-48590923D01*
X61811209Y-48590923D01*
X61897491Y-48733076D01*
X62088988Y-48811231D01*
X62292054Y-48850525D01*
X62498883Y-48849448D01*
X62701529Y-48808042D01*
X62882509Y-48733076D01*
X62968791Y-48590923D01*
X62390000Y-48012132D01*
X61811209Y-48590923D01*
X60500000Y-48590923D01*
X60500000Y-47702054D01*
X61339475Y-47702054D01*
X61340552Y-47908883D01*
X61381958Y-48111529D01*
X61456924Y-48292509D01*
X61599077Y-48378791D01*
X62177868Y-47800000D01*
X62602132Y-47800000D01*
X63180923Y-48378791D01*
X63323076Y-48292509D01*
X63401231Y-48101012D01*
X63440525Y-47897946D01*
X63439448Y-47691117D01*
X63398042Y-47488471D01*
X63323076Y-47307491D01*
X63180923Y-47221209D01*
X62602132Y-47800000D01*
X62177868Y-47800000D01*
X61599077Y-47221209D01*
X61456924Y-47307491D01*
X61378769Y-47498988D01*
X61339475Y-47702054D01*
X60500000Y-47702054D01*
X60500000Y-47009077D01*
X61811209Y-47009077D01*
X62390000Y-47587868D01*
X62968791Y-47009077D01*
X62882509Y-46866924D01*
X62691012Y-46788769D01*
X62487946Y-46749475D01*
X62281117Y-46750552D01*
X62078471Y-46791958D01*
X61897491Y-46866924D01*
X61811209Y-47009077D01*
X60500000Y-47009077D01*
X60500000Y-46350001D01*
X85384417Y-46350001D01*
X86223196Y-46424860D01*
G37*
X86223196Y-46424860D02*
X87020374Y-46642943D01*
X87766337Y-46998750D01*
X88437496Y-47481027D01*
X89012649Y-48074538D01*
X89473606Y-48760515D01*
X89805806Y-49517287D01*
X89999387Y-50323609D01*
X90050000Y-51012834D01*
X90050001Y-75984396D01*
X89975140Y-76823199D01*
X89757057Y-77620376D01*
X89401250Y-78366338D01*
X88918975Y-79037495D01*
X88325462Y-79612650D01*
X87639483Y-80073608D01*
X86882719Y-80405803D01*
X86076391Y-80599387D01*
X85387166Y-80650000D01*
X82741451Y-80650000D01*
X82741451Y-79788221D01*
X82839571Y-79828864D01*
X82945830Y-79850000D01*
X83054170Y-79850000D01*
X83160429Y-79828864D01*
X83260523Y-79787403D01*
X83350604Y-79727213D01*
X83427213Y-79650604D01*
X83487403Y-79560523D01*
X83528864Y-79460429D01*
X83550000Y-79354170D01*
X83550000Y-79245830D01*
X83528864Y-79139571D01*
X83487403Y-79039477D01*
X83427213Y-78949396D01*
X83350604Y-78872787D01*
X83260523Y-78812597D01*
X83160429Y-78771136D01*
X83054170Y-78750000D01*
X82945830Y-78750000D01*
X82839571Y-78771136D01*
X82741451Y-78811779D01*
X82741451Y-77890000D01*
X82735659Y-77831190D01*
X82718504Y-77774640D01*
X82690647Y-77722523D01*
X82653158Y-77676842D01*
X82607477Y-77639353D01*
X82555360Y-77611496D01*
X82498810Y-77594341D01*
X82440000Y-77588549D01*
X77360000Y-77588549D01*
X77301190Y-77594341D01*
X77244640Y-77611496D01*
X77192523Y-77639353D01*
X77146842Y-77676842D01*
X77109353Y-77722523D01*
X77081496Y-77774640D01*
X77064341Y-77831190D01*
X77058549Y-77890000D01*
X77058549Y-80650000D01*
X64411602Y-80650000D01*
X63256080Y-80573249D01*
X62132261Y-80346647D01*
X61048289Y-79973406D01*
X60023194Y-79460077D01*
X59075004Y-78815686D01*
X58220361Y-78051547D01*
X57474292Y-77181094D01*
X56849895Y-76219606D01*
X56358151Y-75183995D01*
X56007689Y-74092437D01*
X55804348Y-72962302D01*
X55750000Y-71990227D01*
X55750000Y-71800000D01*
X59048000Y-71800000D01*
X59030000Y-72000000D01*
X59116298Y-72958851D01*
X59372419Y-73886883D01*
X59790130Y-74754269D01*
X60356006Y-75533131D01*
X61051860Y-76198435D01*
X61855325Y-76728798D01*
X62740579Y-77107173D01*
X63679167Y-77321400D01*
X64640924Y-77364593D01*
X65594937Y-77235363D01*
X66510544Y-76937864D01*
X67358317Y-76481658D01*
X68111006Y-75881408D01*
X68744421Y-75156407D01*
X68908420Y-74881918D01*
X73530214Y-74881918D01*
X74594185Y-75858022D01*
X76170632Y-76747910D01*
X77890396Y-77313150D01*
X79687389Y-77532019D01*
X81492551Y-77396106D01*
X83236513Y-76910636D01*
X84852254Y-76094263D01*
X85205815Y-75858022D01*
X86269786Y-74881918D01*
X79900000Y-68512132D01*
X73530214Y-74881918D01*
X68908420Y-74881918D01*
X69238203Y-74329956D01*
X69576481Y-73428618D01*
X69748382Y-72481363D01*
X69748382Y-71518637D01*
X69576481Y-70571382D01*
X69238203Y-69670044D01*
X68744421Y-68843593D01*
X68111006Y-68118592D01*
X68071879Y-68087389D01*
X70667981Y-68087389D01*
X70803894Y-69892551D01*
X71289364Y-71636513D01*
X72105737Y-73252254D01*
X72341978Y-73605815D01*
X73318082Y-74669786D01*
X79687868Y-68300000D01*
X80112132Y-68300000D01*
X86481918Y-74669786D01*
X87458022Y-73605815D01*
X88347910Y-72029368D01*
X88913150Y-70309604D01*
X89132019Y-68512611D01*
X88996106Y-66707449D01*
X88510636Y-64963487D01*
X87694263Y-63347746D01*
X87458022Y-62994185D01*
X86481918Y-61930214D01*
X80112132Y-68300000D01*
X79687868Y-68300000D01*
X73318082Y-61930214D01*
X72341978Y-62994185D01*
X71452090Y-64570632D01*
X70886850Y-66290396D01*
X70667981Y-68087389D01*
X68071879Y-68087389D01*
X67358317Y-67518342D01*
X66510544Y-67062136D01*
X65594937Y-66764637D01*
X64640924Y-66635407D01*
X63679167Y-66678600D01*
X62740579Y-66892827D01*
X61855325Y-67271202D01*
X61051860Y-67801565D01*
X60500000Y-68329197D01*
X60500000Y-63416709D01*
X67095423Y-63416709D01*
X67095423Y-63522775D01*
X67161572Y-63590976D01*
X67207252Y-63628466D01*
X67259370Y-63656323D01*
X67315921Y-63673477D01*
X67374731Y-63679270D01*
X67433541Y-63673477D01*
X67490091Y-63656323D01*
X67542209Y-63628466D01*
X67587889Y-63590976D01*
X67636360Y-63540452D01*
X67636360Y-63434386D01*
X67357053Y-63155079D01*
X67095423Y-63416709D01*
X60500000Y-63416709D01*
X60500000Y-63034386D01*
X64363640Y-63034386D01*
X64363640Y-63140452D01*
X64412111Y-63190976D01*
X64457791Y-63228466D01*
X64509909Y-63256323D01*
X64566459Y-63273477D01*
X64625269Y-63279270D01*
X64684079Y-63273477D01*
X64740630Y-63256323D01*
X64792748Y-63228466D01*
X64838428Y-63190976D01*
X64904577Y-63122775D01*
X64904577Y-63016709D01*
X64642947Y-62755079D01*
X64363640Y-63034386D01*
X60500000Y-63034386D01*
X60500000Y-58320000D01*
X64603548Y-58320000D01*
X64609340Y-58378810D01*
X64626495Y-58435361D01*
X64654352Y-58487478D01*
X64691841Y-58533159D01*
X64737522Y-58570648D01*
X64789639Y-58598505D01*
X64846190Y-58615660D01*
X64905000Y-58621452D01*
X64975000Y-58620000D01*
X65050000Y-58545000D01*
X65050000Y-58150000D01*
X64680000Y-58150000D01*
X64605000Y-58225000D01*
X64603548Y-58320000D01*
X60500000Y-58320000D01*
X60500000Y-57265000D01*
X64578548Y-57265000D01*
X64584340Y-57323810D01*
X64601495Y-57380361D01*
X64629352Y-57432478D01*
X64666841Y-57478159D01*
X64676230Y-57485864D01*
X64654352Y-57512522D01*
X64626495Y-57564639D01*
X64609340Y-57621190D01*
X64603548Y-57680000D01*
X64605000Y-57775000D01*
X64680000Y-57850000D01*
X65050000Y-57850000D01*
X65050000Y-57120000D01*
X64655000Y-57120000D01*
X64580000Y-57195000D01*
X64578548Y-57265000D01*
X60500000Y-57265000D01*
X60500000Y-56654232D01*
X60521190Y-56660660D01*
X60580000Y-56666452D01*
X60675000Y-56665000D01*
X60750000Y-56590000D01*
X60750000Y-56220000D01*
X61050000Y-56220000D01*
X61050000Y-56590000D01*
X61125000Y-56665000D01*
X61220000Y-56666452D01*
X61278810Y-56660660D01*
X61335361Y-56643505D01*
X61387478Y-56615648D01*
X61433159Y-56578159D01*
X61470648Y-56532478D01*
X61498505Y-56480361D01*
X61515660Y-56423810D01*
X61521452Y-56365000D01*
X61520000Y-56295000D01*
X61445000Y-56220000D01*
X61050000Y-56220000D01*
X60750000Y-56220000D01*
X60730000Y-56220000D01*
X60730000Y-55920000D01*
X60750000Y-55920000D01*
X60750000Y-55900000D01*
X61050000Y-55900000D01*
X61050000Y-55920000D01*
X61445000Y-55920000D01*
X61520000Y-55845000D01*
X61521452Y-55775000D01*
X61515660Y-55716190D01*
X61498505Y-55659639D01*
X61470648Y-55607522D01*
X61433159Y-55561841D01*
X61408871Y-55541908D01*
X61445789Y-55496924D01*
X61487277Y-55419306D01*
X61512825Y-55335086D01*
X61521451Y-55247500D01*
X61521451Y-54952500D01*
X61512825Y-54864914D01*
X61487277Y-54780694D01*
X61445789Y-54703076D01*
X61389956Y-54635044D01*
X61357486Y-54608397D01*
X61379956Y-54589956D01*
X61400000Y-54565533D01*
X61420044Y-54589956D01*
X61488076Y-54645789D01*
X61565694Y-54687277D01*
X61649914Y-54712825D01*
X61737500Y-54721451D01*
X62032500Y-54721451D01*
X62120086Y-54712825D01*
X62204306Y-54687277D01*
X62274046Y-54650000D01*
X62981357Y-54650000D01*
X62992958Y-54659521D01*
X63088506Y-54710592D01*
X63192181Y-54742042D01*
X63272982Y-54750000D01*
X63272991Y-54750000D01*
X63299999Y-54752660D01*
X63327007Y-54750000D01*
X64369318Y-54750000D01*
X64450119Y-54742042D01*
X64553794Y-54710592D01*
X64649342Y-54659521D01*
X64733090Y-54590790D01*
X64801821Y-54507042D01*
X64852892Y-54411494D01*
X64853163Y-54410600D01*
X64902606Y-54410600D01*
X64991477Y-54392923D01*
X65000244Y-54389291D01*
X64999744Y-54391809D01*
X64942153Y-54449400D01*
X64999744Y-54506991D01*
X65004097Y-54528878D01*
X64928011Y-54604964D01*
X64857300Y-54534253D01*
X64629223Y-54762329D01*
X64636451Y-54855452D01*
X64719911Y-54890735D01*
X64808650Y-54909058D01*
X64899260Y-54909717D01*
X64988258Y-54892687D01*
X65059534Y-54863769D01*
X65077733Y-54881968D01*
X65158531Y-54801170D01*
X65164067Y-54806706D01*
X65239408Y-54857047D01*
X65323123Y-54891723D01*
X65411994Y-54909400D01*
X65502606Y-54909400D01*
X65591477Y-54891723D01*
X65675192Y-54857047D01*
X65686637Y-54849400D01*
X65725000Y-54849400D01*
X65725000Y-54950002D01*
X65734646Y-54950002D01*
X65736092Y-54976777D01*
X65749537Y-55000000D01*
X65736092Y-55023223D01*
X65734646Y-55049998D01*
X65725000Y-55049998D01*
X65725000Y-55200000D01*
X65619635Y-55200000D01*
X65599999Y-55198066D01*
X65580363Y-55200000D01*
X65580353Y-55200000D01*
X65521586Y-55205788D01*
X65446186Y-55228660D01*
X65376697Y-55265803D01*
X65315789Y-55315789D01*
X65303263Y-55331052D01*
X65230766Y-55403549D01*
X65027500Y-55403549D01*
X64939914Y-55412175D01*
X64855694Y-55437723D01*
X64778076Y-55479211D01*
X64710044Y-55535044D01*
X64704403Y-55541917D01*
X64660523Y-55512597D01*
X64560429Y-55471136D01*
X64454170Y-55450000D01*
X64345830Y-55450000D01*
X64239571Y-55471136D01*
X64139477Y-55512597D01*
X64049396Y-55572787D01*
X63972787Y-55649396D01*
X63912597Y-55739477D01*
X63871136Y-55839571D01*
X63850000Y-55945830D01*
X63850000Y-56054170D01*
X63871136Y-56160429D01*
X63912597Y-56260523D01*
X63972787Y-56350604D01*
X64049396Y-56427213D01*
X64139477Y-56487403D01*
X64239571Y-56528864D01*
X64345830Y-56550000D01*
X64454170Y-56550000D01*
X64560429Y-56528864D01*
X64638313Y-56496603D01*
X64629352Y-56507522D01*
X64601495Y-56559639D01*
X64584340Y-56616190D01*
X64578548Y-56675000D01*
X64580000Y-56745000D01*
X64655000Y-56820000D01*
X65050000Y-56820000D01*
X65050000Y-56800000D01*
X65350000Y-56800000D01*
X65350000Y-56820000D01*
X65370000Y-56820000D01*
X65370000Y-57120000D01*
X65350000Y-57120000D01*
X65350000Y-57850000D01*
X65370000Y-57850000D01*
X65370000Y-58150000D01*
X65350000Y-58150000D01*
X65350000Y-58545000D01*
X65425000Y-58620000D01*
X65495000Y-58621452D01*
X65514814Y-58619501D01*
X65331052Y-58803263D01*
X65331049Y-58803265D01*
X65166763Y-58967552D01*
X65031054Y-59103261D01*
X65031049Y-59103265D01*
X64081054Y-60053261D01*
X64081049Y-60053265D01*
X63331047Y-60803267D01*
X63315790Y-60815789D01*
X63303268Y-60831047D01*
X63303265Y-60831050D01*
X63265803Y-60876698D01*
X63228661Y-60946186D01*
X63205788Y-61021587D01*
X63198065Y-61100000D01*
X63200000Y-61119646D01*
X63200000Y-61480349D01*
X63198065Y-61500000D01*
X63201066Y-61530466D01*
X63205788Y-61578413D01*
X63228660Y-61653813D01*
X63265803Y-61723302D01*
X63297941Y-61762463D01*
X63290454Y-61787145D01*
X63281828Y-61874731D01*
X63290454Y-61962317D01*
X63316002Y-62046537D01*
X63357490Y-62124155D01*
X63413323Y-62192187D01*
X63621919Y-62400783D01*
X63689951Y-62456616D01*
X63767569Y-62498104D01*
X63851789Y-62523652D01*
X63909704Y-62529356D01*
X63906624Y-62560625D01*
X63912417Y-62619435D01*
X63929571Y-62675985D01*
X63957428Y-62728103D01*
X63994918Y-62773783D01*
X64045442Y-62822254D01*
X64151508Y-62822254D01*
X64430815Y-62542947D01*
X64416673Y-62528805D01*
X64628805Y-62316673D01*
X64642947Y-62330815D01*
X64657090Y-62316673D01*
X64869222Y-62528805D01*
X64855079Y-62542947D01*
X65116709Y-62804577D01*
X65222775Y-62804577D01*
X65290976Y-62738428D01*
X65328466Y-62692748D01*
X65356323Y-62640630D01*
X65363688Y-62616349D01*
X65998974Y-63251635D01*
X66044655Y-63289124D01*
X66096772Y-63316981D01*
X66153322Y-63334136D01*
X66212132Y-63339928D01*
X66270942Y-63334136D01*
X66327492Y-63316981D01*
X66379609Y-63289124D01*
X66425290Y-63251635D01*
X66641959Y-63034966D01*
X66643677Y-63040630D01*
X66671534Y-63092748D01*
X66709024Y-63138428D01*
X66777225Y-63204577D01*
X66883291Y-63204577D01*
X67144921Y-62942947D01*
X67130779Y-62928805D01*
X67342911Y-62716673D01*
X67357053Y-62730815D01*
X67371196Y-62716673D01*
X67583328Y-62928805D01*
X67569185Y-62942947D01*
X67848492Y-63222254D01*
X67954558Y-63222254D01*
X68005082Y-63173783D01*
X68042572Y-63128103D01*
X68070429Y-63075985D01*
X68087583Y-63019435D01*
X68093376Y-62960625D01*
X68090296Y-62929356D01*
X68148211Y-62923652D01*
X68232431Y-62898104D01*
X68310049Y-62856616D01*
X68378081Y-62800783D01*
X68586677Y-62592187D01*
X68642510Y-62524155D01*
X68683998Y-62446537D01*
X68709546Y-62362317D01*
X68718172Y-62274731D01*
X68709546Y-62187145D01*
X68702059Y-62162463D01*
X68734197Y-62123303D01*
X68771340Y-62053814D01*
X68794212Y-61978414D01*
X68800000Y-61919647D01*
X68800000Y-61919637D01*
X68801934Y-61900001D01*
X68800000Y-61880365D01*
X68800000Y-61680000D01*
X69778548Y-61680000D01*
X69784340Y-61738810D01*
X69801495Y-61795361D01*
X69829352Y-61847478D01*
X69866841Y-61893159D01*
X69912522Y-61930648D01*
X69964639Y-61958505D01*
X70021190Y-61975660D01*
X70080000Y-61981452D01*
X70175000Y-61980000D01*
X70250000Y-61905000D01*
X70250000Y-61535000D01*
X70550000Y-61535000D01*
X70550000Y-61905000D01*
X70625000Y-61980000D01*
X70720000Y-61981452D01*
X70778810Y-61975660D01*
X70835361Y-61958505D01*
X70887478Y-61930648D01*
X70900000Y-61920372D01*
X70912522Y-61930648D01*
X70964639Y-61958505D01*
X71021190Y-61975660D01*
X71080000Y-61981452D01*
X71175000Y-61980000D01*
X71250000Y-61905000D01*
X71250000Y-61535000D01*
X71550000Y-61535000D01*
X71550000Y-61905000D01*
X71625000Y-61980000D01*
X71720000Y-61981452D01*
X71778810Y-61975660D01*
X71835361Y-61958505D01*
X71887478Y-61930648D01*
X71933159Y-61893159D01*
X71970648Y-61847478D01*
X71998505Y-61795361D01*
X72015660Y-61738810D01*
X72017701Y-61718082D01*
X73530214Y-61718082D01*
X79900000Y-68087868D01*
X86269786Y-61718082D01*
X85205815Y-60741978D01*
X83629368Y-59852090D01*
X81909604Y-59286850D01*
X80112611Y-59067981D01*
X78307449Y-59203894D01*
X76563487Y-59689364D01*
X74947746Y-60505737D01*
X74594185Y-60741978D01*
X73530214Y-61718082D01*
X72017701Y-61718082D01*
X72021452Y-61680000D01*
X72020000Y-61610000D01*
X71945000Y-61535000D01*
X71550000Y-61535000D01*
X71250000Y-61535000D01*
X70550000Y-61535000D01*
X70250000Y-61535000D01*
X69855000Y-61535000D01*
X69780000Y-61610000D01*
X69778548Y-61680000D01*
X68800000Y-61680000D01*
X68800000Y-61419635D01*
X68801934Y-61399999D01*
X68800000Y-61380363D01*
X68800000Y-61380353D01*
X68794212Y-61321586D01*
X68771340Y-61246186D01*
X68734197Y-61176697D01*
X68684211Y-61115789D01*
X68668949Y-61103264D01*
X68000000Y-60434315D01*
X68000000Y-59555000D01*
X68050000Y-59505000D01*
X68050000Y-59135000D01*
X68030000Y-59135000D01*
X68030000Y-58835000D01*
X68050000Y-58835000D01*
X68050000Y-58815000D01*
X68350000Y-58815000D01*
X68350000Y-58835000D01*
X68370000Y-58835000D01*
X68370000Y-59135000D01*
X68350000Y-59135000D01*
X68350000Y-59505000D01*
X68425000Y-59580000D01*
X68520000Y-59581452D01*
X68578810Y-59575660D01*
X68635361Y-59558505D01*
X68687478Y-59530648D01*
X68717177Y-59506275D01*
X68717177Y-59650000D01*
X68722969Y-59708810D01*
X68740124Y-59765360D01*
X68767981Y-59817477D01*
X68805470Y-59863158D01*
X68851151Y-59900647D01*
X68903268Y-59928504D01*
X68959818Y-59945659D01*
X69018628Y-59951451D01*
X69168628Y-59951451D01*
X69168628Y-60248981D01*
X69166693Y-60268628D01*
X69168628Y-60288274D01*
X69174416Y-60347041D01*
X69197288Y-60422441D01*
X69234431Y-60491930D01*
X69284417Y-60552839D01*
X69299680Y-60565365D01*
X69418263Y-60683948D01*
X69430789Y-60699211D01*
X69491697Y-60749197D01*
X69561186Y-60786340D01*
X69636586Y-60809212D01*
X69695353Y-60815000D01*
X69695363Y-60815000D01*
X69714999Y-60816934D01*
X69734635Y-60815000D01*
X69856735Y-60815000D01*
X69891129Y-60856908D01*
X69866841Y-60876841D01*
X69829352Y-60922522D01*
X69801495Y-60974639D01*
X69784340Y-61031190D01*
X69778548Y-61090000D01*
X69780000Y-61160000D01*
X69855000Y-61235000D01*
X70250000Y-61235000D01*
X70250000Y-61215000D01*
X70550000Y-61215000D01*
X70550000Y-61235000D01*
X71250000Y-61235000D01*
X71250000Y-61215000D01*
X71550000Y-61215000D01*
X71550000Y-61235000D01*
X71945000Y-61235000D01*
X72020000Y-61160000D01*
X72021452Y-61090000D01*
X72015660Y-61031190D01*
X71998505Y-60974639D01*
X71970648Y-60922522D01*
X71933159Y-60876841D01*
X71908871Y-60856908D01*
X71945789Y-60811924D01*
X71946340Y-60810894D01*
X71963414Y-60809212D01*
X72038814Y-60786340D01*
X72108303Y-60749197D01*
X72169211Y-60699211D01*
X72181737Y-60683948D01*
X72337577Y-60528108D01*
X72352839Y-60515583D01*
X72402825Y-60454675D01*
X72439968Y-60385186D01*
X72462840Y-60309786D01*
X72468628Y-60251019D01*
X72468628Y-60251009D01*
X72470562Y-60231373D01*
X72468628Y-60211737D01*
X72468628Y-59951451D01*
X72618628Y-59951451D01*
X72677438Y-59945659D01*
X72733988Y-59928504D01*
X72786105Y-59900647D01*
X72831786Y-59863158D01*
X72869275Y-59817477D01*
X72897132Y-59765360D01*
X72914287Y-59708810D01*
X72920079Y-59650000D01*
X72920079Y-57750000D01*
X72914287Y-57691190D01*
X72897132Y-57634640D01*
X72869275Y-57582523D01*
X72831786Y-57536842D01*
X72786105Y-57499353D01*
X72733988Y-57471496D01*
X72677438Y-57454341D01*
X72618628Y-57448549D01*
X72450201Y-57448549D01*
X72439968Y-57414814D01*
X72402825Y-57345325D01*
X72352839Y-57284417D01*
X72337577Y-57271892D01*
X72196735Y-57131050D01*
X72184211Y-57115789D01*
X72123303Y-57065803D01*
X72053814Y-57028660D01*
X72000000Y-57012336D01*
X72000000Y-56405353D01*
X71999415Y-56399415D01*
X72005353Y-56400000D01*
X72980354Y-56400000D01*
X73000000Y-56401935D01*
X73019646Y-56400000D01*
X73019647Y-56400000D01*
X73078414Y-56394212D01*
X73117708Y-56382293D01*
X73108192Y-56413661D01*
X73108049Y-56414134D01*
X73072787Y-56449396D01*
X73012597Y-56539477D01*
X72971136Y-56639571D01*
X72950000Y-56745830D01*
X72950000Y-56854170D01*
X72971136Y-56960429D01*
X73012597Y-57060523D01*
X73072787Y-57150604D01*
X73149396Y-57227213D01*
X73239477Y-57287403D01*
X73339571Y-57328864D01*
X73445830Y-57350000D01*
X73554170Y-57350000D01*
X73660429Y-57328864D01*
X73760523Y-57287403D01*
X73850604Y-57227213D01*
X73927213Y-57150604D01*
X73987403Y-57060523D01*
X74028864Y-56960429D01*
X74050000Y-56854170D01*
X74050000Y-56745830D01*
X74028864Y-56639571D01*
X73987403Y-56539477D01*
X73986534Y-56538176D01*
X74009212Y-56463414D01*
X74010894Y-56446340D01*
X74011924Y-56445789D01*
X74056908Y-56408871D01*
X74076841Y-56433159D01*
X74122522Y-56470648D01*
X74174639Y-56498505D01*
X74231190Y-56515660D01*
X74290000Y-56521452D01*
X74360000Y-56520000D01*
X74435000Y-56445000D01*
X74435000Y-56050000D01*
X74735000Y-56050000D01*
X74735000Y-56445000D01*
X74810000Y-56520000D01*
X74880000Y-56521452D01*
X74938810Y-56515660D01*
X74995361Y-56498505D01*
X75047478Y-56470648D01*
X75093159Y-56433159D01*
X75130648Y-56387478D01*
X75158505Y-56335361D01*
X75175660Y-56278810D01*
X75181452Y-56220000D01*
X75180000Y-56125000D01*
X75105000Y-56050000D01*
X74735000Y-56050000D01*
X74435000Y-56050000D01*
X74415000Y-56050000D01*
X74415000Y-55920000D01*
X77058549Y-55920000D01*
X77058549Y-58710000D01*
X77064341Y-58768810D01*
X77081496Y-58825360D01*
X77109353Y-58877477D01*
X77146842Y-58923158D01*
X77192523Y-58960647D01*
X77244640Y-58988504D01*
X77301190Y-59005659D01*
X77360000Y-59011451D01*
X82440000Y-59011451D01*
X82498810Y-59005659D01*
X82555360Y-58988504D01*
X82607477Y-58960647D01*
X82653158Y-58923158D01*
X82690647Y-58877477D01*
X82718504Y-58825360D01*
X82735659Y-58768810D01*
X82741451Y-58710000D01*
X82741451Y-57719268D01*
X82749396Y-57727213D01*
X82839477Y-57787403D01*
X82939571Y-57828864D01*
X83045830Y-57850000D01*
X83154170Y-57850000D01*
X83260429Y-57828864D01*
X83360523Y-57787403D01*
X83450604Y-57727213D01*
X83527213Y-57650604D01*
X83587403Y-57560523D01*
X83628864Y-57460429D01*
X83650000Y-57354170D01*
X83650000Y-57245830D01*
X83628864Y-57139571D01*
X83587403Y-57039477D01*
X83527213Y-56949396D01*
X83450604Y-56872787D01*
X83360523Y-56812597D01*
X83260429Y-56771136D01*
X83154170Y-56750000D01*
X83045830Y-56750000D01*
X82939571Y-56771136D01*
X82839477Y-56812597D01*
X82749396Y-56872787D01*
X82741451Y-56880732D01*
X82741451Y-55920000D01*
X82735659Y-55861190D01*
X82718504Y-55804640D01*
X82690647Y-55752523D01*
X82653158Y-55706842D01*
X82607477Y-55669353D01*
X82555360Y-55641496D01*
X82498810Y-55624341D01*
X82440000Y-55618549D01*
X77360000Y-55618549D01*
X77301190Y-55624341D01*
X77244640Y-55641496D01*
X77192523Y-55669353D01*
X77146842Y-55706842D01*
X77109353Y-55752523D01*
X77081496Y-55804640D01*
X77064341Y-55861190D01*
X77058549Y-55920000D01*
X74415000Y-55920000D01*
X74415000Y-55750000D01*
X74435000Y-55750000D01*
X74435000Y-55355000D01*
X74735000Y-55355000D01*
X74735000Y-55750000D01*
X75105000Y-55750000D01*
X75180000Y-55675000D01*
X75181452Y-55580000D01*
X75175660Y-55521190D01*
X75158505Y-55464639D01*
X75130648Y-55412522D01*
X75093159Y-55366841D01*
X75047478Y-55329352D01*
X74995361Y-55301495D01*
X74938810Y-55284340D01*
X74880000Y-55278548D01*
X74810000Y-55280000D01*
X74735000Y-55355000D01*
X74435000Y-55355000D01*
X74360000Y-55280000D01*
X74290000Y-55278548D01*
X74231190Y-55284340D01*
X74174639Y-55301495D01*
X74122522Y-55329352D01*
X74076841Y-55366841D01*
X74056908Y-55391129D01*
X74011924Y-55354211D01*
X73934306Y-55312723D01*
X73850086Y-55287175D01*
X73762500Y-55278549D01*
X73467500Y-55278549D01*
X73379914Y-55287175D01*
X73295694Y-55312723D01*
X73218076Y-55354211D01*
X73150044Y-55410044D01*
X73094211Y-55478076D01*
X73082611Y-55499779D01*
X73080363Y-55500000D01*
X73080353Y-55500000D01*
X73063177Y-55501692D01*
X73046340Y-55446186D01*
X73021653Y-55400000D01*
X73046340Y-55353814D01*
X73069212Y-55278414D01*
X73076935Y-55200000D01*
X73069212Y-55121586D01*
X73046340Y-55046186D01*
X73021653Y-55000000D01*
X73046340Y-54953814D01*
X73069212Y-54878414D01*
X73076935Y-54800000D01*
X73082492Y-54800000D01*
X73094211Y-54821924D01*
X73150044Y-54889956D01*
X73218076Y-54945789D01*
X73295694Y-54987277D01*
X73379914Y-55012825D01*
X73467500Y-55021451D01*
X73762500Y-55021451D01*
X73850086Y-55012825D01*
X73934306Y-54987277D01*
X74011924Y-54945789D01*
X74079956Y-54889956D01*
X74100000Y-54865533D01*
X74120044Y-54889956D01*
X74188076Y-54945789D01*
X74265694Y-54987277D01*
X74349914Y-55012825D01*
X74437500Y-55021451D01*
X74732500Y-55021451D01*
X74820086Y-55012825D01*
X74904306Y-54987277D01*
X74981924Y-54945789D01*
X75049956Y-54889956D01*
X75105789Y-54821924D01*
X75147277Y-54744306D01*
X75172825Y-54660086D01*
X75181451Y-54572500D01*
X75181451Y-54227500D01*
X75172825Y-54139914D01*
X75147277Y-54055694D01*
X75105789Y-53978076D01*
X75049956Y-53910044D01*
X75037717Y-53900000D01*
X75049956Y-53889956D01*
X75105789Y-53821924D01*
X75117508Y-53800000D01*
X76040356Y-53800000D01*
X76060002Y-53801935D01*
X76079648Y-53800000D01*
X76079649Y-53800000D01*
X76138416Y-53794212D01*
X76213816Y-53771340D01*
X76283305Y-53734197D01*
X76344213Y-53684211D01*
X76356739Y-53668948D01*
X77768949Y-52256738D01*
X77784211Y-52244213D01*
X77834197Y-52183305D01*
X77871340Y-52113816D01*
X77894212Y-52038416D01*
X77900000Y-51979649D01*
X77900000Y-51979648D01*
X77901935Y-51960002D01*
X77900000Y-51940355D01*
X77900000Y-49000000D01*
X83798549Y-49000000D01*
X83798549Y-52400000D01*
X83804341Y-52458810D01*
X83821496Y-52515360D01*
X83849353Y-52567477D01*
X83886842Y-52613158D01*
X83932523Y-52650647D01*
X83984640Y-52678504D01*
X84041190Y-52695659D01*
X84100000Y-52701451D01*
X85400000Y-52701451D01*
X85458810Y-52695659D01*
X85515360Y-52678504D01*
X85567477Y-52650647D01*
X85613158Y-52613158D01*
X85650647Y-52567477D01*
X85678504Y-52515360D01*
X85695659Y-52458810D01*
X85701451Y-52400000D01*
X85701451Y-51513074D01*
X85739571Y-51528864D01*
X85845830Y-51550000D01*
X85954170Y-51550000D01*
X86060429Y-51528864D01*
X86160523Y-51487403D01*
X86250604Y-51427213D01*
X86327213Y-51350604D01*
X86387403Y-51260523D01*
X86428864Y-51160429D01*
X86450000Y-51054170D01*
X86450000Y-50945830D01*
X86428864Y-50839571D01*
X86387403Y-50739477D01*
X86327213Y-50649396D01*
X86250604Y-50572787D01*
X86160523Y-50512597D01*
X86060429Y-50471136D01*
X85954170Y-50450000D01*
X85915685Y-50450000D01*
X85896737Y-50431052D01*
X85884211Y-50415789D01*
X85823303Y-50365803D01*
X85753814Y-50328660D01*
X85701451Y-50312776D01*
X85701451Y-49000000D01*
X85695659Y-48941190D01*
X85678504Y-48884640D01*
X85650647Y-48832523D01*
X85613158Y-48786842D01*
X85567477Y-48749353D01*
X85515360Y-48721496D01*
X85458810Y-48704341D01*
X85400000Y-48698549D01*
X84100000Y-48698549D01*
X84041190Y-48704341D01*
X83984640Y-48721496D01*
X83932523Y-48749353D01*
X83886842Y-48786842D01*
X83849353Y-48832523D01*
X83821496Y-48884640D01*
X83804341Y-48941190D01*
X83798549Y-49000000D01*
X77900000Y-49000000D01*
X77900000Y-48419635D01*
X77901934Y-48399999D01*
X77900000Y-48380363D01*
X77900000Y-48380353D01*
X77894212Y-48321586D01*
X77871340Y-48246186D01*
X77834197Y-48176697D01*
X77802134Y-48137628D01*
X77796735Y-48131049D01*
X77796733Y-48131047D01*
X77784211Y-48115789D01*
X77768953Y-48103267D01*
X76446737Y-46781052D01*
X76434211Y-46765789D01*
X76373303Y-46715803D01*
X76303814Y-46678660D01*
X76228414Y-46655788D01*
X76169647Y-46650000D01*
X76169646Y-46650000D01*
X76150000Y-46648065D01*
X76130354Y-46650000D01*
X72883164Y-46650000D01*
X72878504Y-46634640D01*
X72850647Y-46582523D01*
X72813158Y-46536842D01*
X72767477Y-46499353D01*
X72715360Y-46471496D01*
X72658810Y-46454341D01*
X72600000Y-46448549D01*
X71300000Y-46448549D01*
X71241190Y-46454341D01*
X71184640Y-46471496D01*
X71132523Y-46499353D01*
X71086842Y-46536842D01*
X71049353Y-46582523D01*
X71021496Y-46634640D01*
X71004341Y-46691190D01*
X70998549Y-46750000D01*
X70998549Y-47350000D01*
X71004341Y-47408810D01*
X71021496Y-47465360D01*
X71049353Y-47517477D01*
X71086842Y-47563158D01*
X71132523Y-47600647D01*
X71184640Y-47628504D01*
X71241190Y-47645659D01*
X71300000Y-47651451D01*
X72600000Y-47651451D01*
X72658810Y-47645659D01*
X72715360Y-47628504D01*
X72767477Y-47600647D01*
X72813158Y-47563158D01*
X72850647Y-47517477D01*
X72878504Y-47465360D01*
X72883164Y-47450000D01*
X73231735Y-47450000D01*
X73186842Y-47486842D01*
X73149353Y-47532523D01*
X73121496Y-47584640D01*
X73104341Y-47641190D01*
X73098549Y-47700000D01*
X73098549Y-48300000D01*
X73104341Y-48358810D01*
X73121496Y-48415360D01*
X73149353Y-48467477D01*
X73186842Y-48513158D01*
X73232523Y-48550647D01*
X73262371Y-48566601D01*
X73239571Y-48571136D01*
X73139477Y-48612597D01*
X73049396Y-48672787D01*
X72972787Y-48749396D01*
X72912597Y-48839477D01*
X72900000Y-48869888D01*
X72900000Y-48799998D01*
X72825002Y-48799998D01*
X72900000Y-48725000D01*
X72901452Y-48650000D01*
X72895660Y-48591190D01*
X72878505Y-48534639D01*
X72850648Y-48482522D01*
X72813159Y-48436841D01*
X72767478Y-48399352D01*
X72715361Y-48371495D01*
X72658810Y-48354340D01*
X72600000Y-48348548D01*
X72175000Y-48350000D01*
X72100000Y-48425000D01*
X72100000Y-48800000D01*
X72120000Y-48800000D01*
X72120000Y-49100000D01*
X72100000Y-49100000D01*
X72100000Y-49475000D01*
X72175000Y-49550000D01*
X72600000Y-49551452D01*
X72658810Y-49545660D01*
X72715361Y-49528505D01*
X72767478Y-49500648D01*
X72813159Y-49463159D01*
X72850648Y-49417478D01*
X72878505Y-49365361D01*
X72893765Y-49315058D01*
X72912597Y-49360523D01*
X72972787Y-49450604D01*
X73000001Y-49477818D01*
X73000001Y-49580344D01*
X72998065Y-49600000D01*
X73005788Y-49678413D01*
X73028661Y-49753814D01*
X73065803Y-49823302D01*
X73103265Y-49868950D01*
X73103268Y-49868953D01*
X73115790Y-49884211D01*
X73131048Y-49896733D01*
X73215000Y-49980685D01*
X73215000Y-50030330D01*
X73176698Y-50050803D01*
X73115790Y-50100790D01*
X73065803Y-50161698D01*
X73028661Y-50231186D01*
X73005788Y-50306587D01*
X72998065Y-50385000D01*
X73005788Y-50463413D01*
X73018549Y-50505480D01*
X73018549Y-50772500D01*
X73027175Y-50860086D01*
X73052723Y-50944306D01*
X73094211Y-51021924D01*
X73150044Y-51089956D01*
X73162283Y-51100000D01*
X73150044Y-51110044D01*
X73094211Y-51178076D01*
X73082492Y-51200000D01*
X72005353Y-51200000D01*
X72000000Y-51200527D01*
X72000000Y-51000000D01*
X71600000Y-51000000D01*
X71600000Y-50700000D01*
X72000000Y-50700000D01*
X72000000Y-50375000D01*
X71963051Y-50299846D01*
X71912150Y-50233345D01*
X71849253Y-50178052D01*
X71776777Y-50136092D01*
X71662574Y-50129925D01*
X71600000Y-50200000D01*
X71537426Y-50129925D01*
X71423223Y-50136092D01*
X71374126Y-50164517D01*
X71353814Y-50153660D01*
X71278414Y-50130788D01*
X71200000Y-50123065D01*
X71121587Y-50130788D01*
X71046187Y-50153660D01*
X71000001Y-50178347D01*
X70953814Y-50153660D01*
X70878414Y-50130788D01*
X70800000Y-50123065D01*
X70721587Y-50130788D01*
X70646187Y-50153660D01*
X70600001Y-50178347D01*
X70553814Y-50153660D01*
X70478414Y-50130788D01*
X70400000Y-50123065D01*
X70321587Y-50130788D01*
X70246187Y-50153660D01*
X70200001Y-50178347D01*
X70153814Y-50153660D01*
X70078414Y-50130788D01*
X70000000Y-50123065D01*
X69921587Y-50130788D01*
X69846187Y-50153660D01*
X69800001Y-50178347D01*
X69753814Y-50153660D01*
X69678414Y-50130788D01*
X69600000Y-50123065D01*
X69521587Y-50130788D01*
X69446187Y-50153660D01*
X69400001Y-50178347D01*
X69353814Y-50153660D01*
X69278414Y-50130788D01*
X69200000Y-50123065D01*
X69121587Y-50130788D01*
X69046187Y-50153660D01*
X69000001Y-50178347D01*
X68953814Y-50153660D01*
X68878414Y-50130788D01*
X68800000Y-50123065D01*
X68721587Y-50130788D01*
X68646187Y-50153660D01*
X68600001Y-50178347D01*
X68553814Y-50153660D01*
X68478414Y-50130788D01*
X68400000Y-50123065D01*
X68321587Y-50130788D01*
X68246187Y-50153660D01*
X68200001Y-50178347D01*
X68153814Y-50153660D01*
X68078414Y-50130788D01*
X68000000Y-50123065D01*
X68000000Y-49519647D01*
X68001935Y-49500000D01*
X67994212Y-49421586D01*
X67985908Y-49394212D01*
X67971340Y-49346186D01*
X67934197Y-49276697D01*
X67884211Y-49215789D01*
X67870000Y-49204127D01*
X67870000Y-48770827D01*
X67967362Y-48730498D01*
X68139336Y-48615589D01*
X68285589Y-48469336D01*
X68400498Y-48297362D01*
X68479650Y-48106274D01*
X68520000Y-47903416D01*
X68520000Y-47696584D01*
X68960000Y-47696584D01*
X68960000Y-47903416D01*
X69000350Y-48106274D01*
X69079502Y-48297362D01*
X69194411Y-48469336D01*
X69340664Y-48615589D01*
X69380186Y-48641997D01*
X69372787Y-48649396D01*
X69312597Y-48739477D01*
X69271136Y-48839571D01*
X69250000Y-48945830D01*
X69250000Y-49054170D01*
X69271136Y-49160429D01*
X69312597Y-49260523D01*
X69372787Y-49350604D01*
X69449396Y-49427213D01*
X69539477Y-49487403D01*
X69639571Y-49528864D01*
X69745830Y-49550000D01*
X69854170Y-49550000D01*
X69960429Y-49528864D01*
X70060523Y-49487403D01*
X70150604Y-49427213D01*
X70227213Y-49350604D01*
X70287403Y-49260523D01*
X70291761Y-49250000D01*
X70998548Y-49250000D01*
X71004340Y-49308810D01*
X71021495Y-49365361D01*
X71049352Y-49417478D01*
X71086841Y-49463159D01*
X71132522Y-49500648D01*
X71184639Y-49528505D01*
X71241190Y-49545660D01*
X71300000Y-49551452D01*
X71725000Y-49550000D01*
X71800000Y-49475000D01*
X71800000Y-49100000D01*
X71075000Y-49100000D01*
X71000000Y-49175000D01*
X70998548Y-49250000D01*
X70291761Y-49250000D01*
X70328864Y-49160429D01*
X70350000Y-49054170D01*
X70350000Y-49002446D01*
X70364249Y-48975788D01*
X70381340Y-48943815D01*
X70404212Y-48868414D01*
X70411935Y-48790000D01*
X70410045Y-48770808D01*
X70507362Y-48730498D01*
X70627836Y-48650000D01*
X70998548Y-48650000D01*
X71000000Y-48725000D01*
X71075000Y-48800000D01*
X71800000Y-48800000D01*
X71800000Y-48425000D01*
X71725000Y-48350000D01*
X71300000Y-48348548D01*
X71241190Y-48354340D01*
X71184639Y-48371495D01*
X71132522Y-48399352D01*
X71086841Y-48436841D01*
X71049352Y-48482522D01*
X71021495Y-48534639D01*
X71004340Y-48591190D01*
X70998548Y-48650000D01*
X70627836Y-48650000D01*
X70679336Y-48615589D01*
X70825589Y-48469336D01*
X70940498Y-48297362D01*
X71019650Y-48106274D01*
X71060000Y-47903416D01*
X71060000Y-47696584D01*
X71019650Y-47493726D01*
X70940498Y-47302638D01*
X70825589Y-47130664D01*
X70679336Y-46984411D01*
X70507362Y-46869502D01*
X70316274Y-46790350D01*
X70113416Y-46750000D01*
X69906584Y-46750000D01*
X69703726Y-46790350D01*
X69512638Y-46869502D01*
X69340664Y-46984411D01*
X69194411Y-47130664D01*
X69079502Y-47302638D01*
X69000350Y-47493726D01*
X68960000Y-47696584D01*
X68520000Y-47696584D01*
X68479650Y-47493726D01*
X68400498Y-47302638D01*
X68285589Y-47130664D01*
X68139336Y-46984411D01*
X67967362Y-46869502D01*
X67776274Y-46790350D01*
X67573416Y-46750000D01*
X67366584Y-46750000D01*
X67163726Y-46790350D01*
X66972638Y-46869502D01*
X66800664Y-46984411D01*
X66654411Y-47130664D01*
X66539502Y-47302638D01*
X66460350Y-47493726D01*
X66420000Y-47696584D01*
X66420000Y-47903416D01*
X66460350Y-48106274D01*
X66539502Y-48297362D01*
X66654411Y-48469336D01*
X66800664Y-48615589D01*
X66972638Y-48730498D01*
X67070001Y-48770827D01*
X67070001Y-49350344D01*
X67068065Y-49370000D01*
X67068325Y-49372639D01*
X65899321Y-48203636D01*
X65939650Y-48106274D01*
X65980000Y-47903416D01*
X65980000Y-47696584D01*
X65939650Y-47493726D01*
X65860498Y-47302638D01*
X65745589Y-47130664D01*
X65599336Y-46984411D01*
X65427362Y-46869502D01*
X65236274Y-46790350D01*
X65033416Y-46750000D01*
X64826584Y-46750000D01*
X64623726Y-46790350D01*
X64432638Y-46869502D01*
X64260664Y-46984411D01*
X64114411Y-47130664D01*
X63999502Y-47302638D01*
X63920350Y-47493726D01*
X63880000Y-47696584D01*
X63880000Y-47903416D01*
X63920350Y-48106274D01*
X63999502Y-48297362D01*
X64114411Y-48469336D01*
X64260664Y-48615589D01*
X64432638Y-48730498D01*
X64623726Y-48809650D01*
X64826584Y-48850000D01*
X65033416Y-48850000D01*
X65236274Y-48809650D01*
X65333636Y-48769321D01*
X66800001Y-50235687D01*
X66800000Y-50853814D01*
X66800000Y-51194646D01*
X66800585Y-51200585D01*
X66794647Y-51200000D01*
X66105353Y-51200000D01*
X66046586Y-51205788D01*
X65971186Y-51228660D01*
X65901697Y-51265803D01*
X65840789Y-51315789D01*
X65790803Y-51376697D01*
X65753660Y-51446186D01*
X65730788Y-51521586D01*
X65723196Y-51598665D01*
X65687478Y-51569352D01*
X65635361Y-51541495D01*
X65578810Y-51524340D01*
X65520000Y-51518548D01*
X65425000Y-51520000D01*
X65350000Y-51595000D01*
X65350000Y-51965000D01*
X65370000Y-51965000D01*
X65370000Y-52265000D01*
X65350000Y-52265000D01*
X65350000Y-52285000D01*
X65050000Y-52285000D01*
X65050000Y-52265000D01*
X64655000Y-52265000D01*
X64580000Y-52340000D01*
X64578548Y-52410000D01*
X64584340Y-52468810D01*
X64601495Y-52525361D01*
X64629352Y-52577478D01*
X64666841Y-52623159D01*
X64691129Y-52643092D01*
X64654211Y-52688076D01*
X64614678Y-52762036D01*
X64554170Y-52750000D01*
X64445830Y-52750000D01*
X64339571Y-52771136D01*
X64239477Y-52812597D01*
X64149396Y-52872787D01*
X64072787Y-52949396D01*
X64012597Y-53039477D01*
X63971136Y-53139571D01*
X63950000Y-53245830D01*
X63950000Y-53354170D01*
X63971136Y-53460429D01*
X64012597Y-53560523D01*
X64072383Y-53650000D01*
X63518643Y-53650000D01*
X63507042Y-53640479D01*
X63501755Y-53637653D01*
X63411494Y-53589408D01*
X63307819Y-53557958D01*
X63227018Y-53550000D01*
X63227008Y-53550000D01*
X63200000Y-53547340D01*
X63172992Y-53550000D01*
X62402230Y-53550000D01*
X62445789Y-53496924D01*
X62487277Y-53419306D01*
X62512825Y-53335086D01*
X62521451Y-53247500D01*
X62521451Y-52952500D01*
X62512825Y-52864914D01*
X62487277Y-52780694D01*
X62445789Y-52703076D01*
X62408871Y-52658092D01*
X62433159Y-52638159D01*
X62470648Y-52592478D01*
X62498505Y-52540361D01*
X62515660Y-52483810D01*
X62521452Y-52425000D01*
X62520000Y-52355000D01*
X62445000Y-52280000D01*
X62050000Y-52280000D01*
X62050000Y-52300000D01*
X61750000Y-52300000D01*
X61750000Y-52280000D01*
X61355000Y-52280000D01*
X61280000Y-52355000D01*
X61278548Y-52425000D01*
X61284340Y-52483810D01*
X61301495Y-52540361D01*
X61329352Y-52592478D01*
X61366841Y-52638159D01*
X61391129Y-52658092D01*
X61354211Y-52703076D01*
X61312723Y-52780694D01*
X61287175Y-52864914D01*
X61278549Y-52952500D01*
X61278549Y-53247500D01*
X61287175Y-53335086D01*
X61312723Y-53419306D01*
X61354211Y-53496924D01*
X61410044Y-53564956D01*
X61442514Y-53591603D01*
X61420044Y-53610044D01*
X61400000Y-53634467D01*
X61379956Y-53610044D01*
X61311924Y-53554211D01*
X61234306Y-53512723D01*
X61150086Y-53487175D01*
X61062500Y-53478549D01*
X60767500Y-53478549D01*
X60679914Y-53487175D01*
X60595694Y-53512723D01*
X60525954Y-53550000D01*
X60500000Y-53550000D01*
X60500000Y-52736537D01*
X60900000Y-52736537D01*
X60928119Y-52733780D01*
X60956214Y-52731223D01*
X60957220Y-52730927D01*
X60958270Y-52730824D01*
X60985361Y-52722645D01*
X61012382Y-52714692D01*
X61013313Y-52714205D01*
X61014321Y-52713901D01*
X61039247Y-52700647D01*
X61064269Y-52687566D01*
X61065090Y-52686906D01*
X61066017Y-52686413D01*
X61087847Y-52668609D01*
X61109899Y-52650879D01*
X61110577Y-52650071D01*
X61111390Y-52649408D01*
X61129364Y-52627682D01*
X61147534Y-52606027D01*
X61148041Y-52605105D01*
X61148711Y-52604295D01*
X61162123Y-52579490D01*
X61175741Y-52554720D01*
X61176060Y-52553716D01*
X61176559Y-52552792D01*
X61184909Y-52525817D01*
X61193444Y-52498911D01*
X61193561Y-52497868D01*
X61193873Y-52496860D01*
X61196828Y-52468741D01*
X61199971Y-52440726D01*
X61199985Y-52438707D01*
X61199993Y-52438631D01*
X61199986Y-52438554D01*
X61200000Y-52436537D01*
X61200000Y-51835000D01*
X61278548Y-51835000D01*
X61280000Y-51905000D01*
X61355000Y-51980000D01*
X61750000Y-51980000D01*
X61750000Y-51610000D01*
X62050000Y-51610000D01*
X62050000Y-51980000D01*
X62445000Y-51980000D01*
X62520000Y-51905000D01*
X62521452Y-51835000D01*
X62519975Y-51820000D01*
X64578548Y-51820000D01*
X64580000Y-51890000D01*
X64655000Y-51965000D01*
X65050000Y-51965000D01*
X65050000Y-51595000D01*
X64975000Y-51520000D01*
X64880000Y-51518548D01*
X64821190Y-51524340D01*
X64764639Y-51541495D01*
X64712522Y-51569352D01*
X64666841Y-51606841D01*
X64629352Y-51652522D01*
X64601495Y-51704639D01*
X64584340Y-51761190D01*
X64578548Y-51820000D01*
X62519975Y-51820000D01*
X62515660Y-51776190D01*
X62498505Y-51719639D01*
X62470648Y-51667522D01*
X62433159Y-51621841D01*
X62387478Y-51584352D01*
X62335361Y-51556495D01*
X62278810Y-51539340D01*
X62220000Y-51533548D01*
X62125000Y-51535000D01*
X62050000Y-51610000D01*
X61750000Y-51610000D01*
X61675000Y-51535000D01*
X61580000Y-51533548D01*
X61521190Y-51539340D01*
X61464639Y-51556495D01*
X61412522Y-51584352D01*
X61366841Y-51621841D01*
X61329352Y-51667522D01*
X61301495Y-51719639D01*
X61284340Y-51776190D01*
X61278548Y-51835000D01*
X61200000Y-51835000D01*
X61200000Y-51556298D01*
X61197243Y-51528179D01*
X61194686Y-51500084D01*
X61194390Y-51499078D01*
X61194287Y-51498028D01*
X61186108Y-51470937D01*
X61178155Y-51443916D01*
X61177668Y-51442985D01*
X61177364Y-51441977D01*
X61164110Y-51417051D01*
X61151029Y-51392029D01*
X61150369Y-51391208D01*
X61149876Y-51390281D01*
X61132072Y-51368451D01*
X61114342Y-51346399D01*
X61113534Y-51345721D01*
X61112871Y-51344908D01*
X61091145Y-51326934D01*
X61069490Y-51308764D01*
X61068568Y-51308257D01*
X61067758Y-51307587D01*
X61042953Y-51294175D01*
X61018183Y-51280557D01*
X61017179Y-51280238D01*
X61016255Y-51279739D01*
X60989280Y-51271389D01*
X60962374Y-51262854D01*
X60961331Y-51262737D01*
X60960323Y-51262425D01*
X60932204Y-51259470D01*
X60904189Y-51256327D01*
X60902170Y-51256313D01*
X60902094Y-51256305D01*
X60902017Y-51256312D01*
X60900000Y-51256298D01*
X60500000Y-51256298D01*
X60500000Y-48590923D01*
X61811209Y-48590923D01*
X61897491Y-48733076D01*
X62088988Y-48811231D01*
X62292054Y-48850525D01*
X62498883Y-48849448D01*
X62701529Y-48808042D01*
X62882509Y-48733076D01*
X62968791Y-48590923D01*
X62390000Y-48012132D01*
X61811209Y-48590923D01*
X60500000Y-48590923D01*
X60500000Y-47702054D01*
X61339475Y-47702054D01*
X61340552Y-47908883D01*
X61381958Y-48111529D01*
X61456924Y-48292509D01*
X61599077Y-48378791D01*
X62177868Y-47800000D01*
X62602132Y-47800000D01*
X63180923Y-48378791D01*
X63323076Y-48292509D01*
X63401231Y-48101012D01*
X63440525Y-47897946D01*
X63439448Y-47691117D01*
X63398042Y-47488471D01*
X63323076Y-47307491D01*
X63180923Y-47221209D01*
X62602132Y-47800000D01*
X62177868Y-47800000D01*
X61599077Y-47221209D01*
X61456924Y-47307491D01*
X61378769Y-47498988D01*
X61339475Y-47702054D01*
X60500000Y-47702054D01*
X60500000Y-47009077D01*
X61811209Y-47009077D01*
X62390000Y-47587868D01*
X62968791Y-47009077D01*
X62882509Y-46866924D01*
X62691012Y-46788769D01*
X62487946Y-46749475D01*
X62281117Y-46750552D01*
X62078471Y-46791958D01*
X61897491Y-46866924D01*
X61811209Y-47009077D01*
X60500000Y-47009077D01*
X60500000Y-46350001D01*
X85384417Y-46350001D01*
X86223196Y-46424860D01*
G36*
X69550000Y-53650000D02*
G01*
X69570000Y-53650000D01*
X69570000Y-53950000D01*
X69550000Y-53950000D01*
X69550000Y-53970000D01*
X69250000Y-53970000D01*
X69250000Y-53950000D01*
X69230000Y-53950000D01*
X69230000Y-53650000D01*
X69250000Y-53650000D01*
X69250000Y-53630000D01*
X69550000Y-53630000D01*
X69550000Y-53650000D01*
G37*
X69550000Y-53650000D02*
X69570000Y-53650000D01*
X69570000Y-53950000D01*
X69550000Y-53950000D01*
X69550000Y-53970000D01*
X69250000Y-53970000D01*
X69250000Y-53950000D01*
X69230000Y-53950000D01*
X69230000Y-53650000D01*
X69250000Y-53650000D01*
X69250000Y-53630000D01*
X69550000Y-53630000D01*
X69550000Y-53650000D01*
G36*
X74735000Y-51450000D02*
G01*
X74755000Y-51450000D01*
X74755000Y-51750000D01*
X74735000Y-51750000D01*
X74735000Y-52145000D01*
X74810000Y-52220000D01*
X74880000Y-52221452D01*
X74938810Y-52215660D01*
X74995361Y-52198505D01*
X75047478Y-52170648D01*
X75093159Y-52133159D01*
X75098549Y-52126591D01*
X75098549Y-52400000D01*
X75104341Y-52458810D01*
X75121496Y-52515360D01*
X75149353Y-52567477D01*
X75186842Y-52613158D01*
X75232523Y-52650647D01*
X75284640Y-52678504D01*
X75341190Y-52695659D01*
X75400000Y-52701451D01*
X76192866Y-52701451D01*
X75894317Y-53000000D01*
X75117508Y-53000000D01*
X75105789Y-52978076D01*
X75049956Y-52910044D01*
X74981924Y-52854211D01*
X74904306Y-52812723D01*
X74820086Y-52787175D01*
X74732500Y-52778549D01*
X74437500Y-52778549D01*
X74349914Y-52787175D01*
X74265694Y-52812723D01*
X74188076Y-52854211D01*
X74143092Y-52891129D01*
X74123159Y-52866841D01*
X74077478Y-52829352D01*
X74025361Y-52801495D01*
X73968810Y-52784340D01*
X73910000Y-52778548D01*
X73840000Y-52780000D01*
X73765000Y-52855000D01*
X73765000Y-53250000D01*
X73785000Y-53250000D01*
X73785000Y-53550000D01*
X73765000Y-53550000D01*
X73765000Y-53570000D01*
X73465000Y-53570000D01*
X73465000Y-53550000D01*
X73445000Y-53550000D01*
X73445000Y-53250000D01*
X73465000Y-53250000D01*
X73465000Y-52855000D01*
X73390000Y-52780000D01*
X73320000Y-52778548D01*
X73261190Y-52784340D01*
X73204639Y-52801495D01*
X73152522Y-52829352D01*
X73106841Y-52866841D01*
X73069352Y-52912522D01*
X73041495Y-52964639D01*
X73027468Y-53010879D01*
X73021653Y-53000000D01*
X73046340Y-52953814D01*
X73069212Y-52878414D01*
X73076935Y-52800000D01*
X73069212Y-52721586D01*
X73046340Y-52646186D01*
X73021653Y-52600000D01*
X73046340Y-52553814D01*
X73069212Y-52478414D01*
X73076935Y-52400000D01*
X73069212Y-52321586D01*
X73046340Y-52246186D01*
X73021653Y-52200000D01*
X73046340Y-52153814D01*
X73069212Y-52078414D01*
X73076935Y-52000000D01*
X73082492Y-52000000D01*
X73094211Y-52021924D01*
X73150044Y-52089956D01*
X73218076Y-52145789D01*
X73295694Y-52187277D01*
X73379914Y-52212825D01*
X73450000Y-52219727D01*
X73450000Y-52254170D01*
X73471136Y-52360429D01*
X73512597Y-52460523D01*
X73572787Y-52550604D01*
X73649396Y-52627213D01*
X73739477Y-52687403D01*
X73839571Y-52728864D01*
X73945830Y-52750000D01*
X74054170Y-52750000D01*
X74160429Y-52728864D01*
X74260523Y-52687403D01*
X74350604Y-52627213D01*
X74427213Y-52550604D01*
X74487403Y-52460523D01*
X74528864Y-52360429D01*
X74550000Y-52254170D01*
X74550000Y-52145830D01*
X74528864Y-52039571D01*
X74487403Y-51939477D01*
X74435000Y-51861050D01*
X74435000Y-51750000D01*
X74415000Y-51750000D01*
X74415000Y-51450000D01*
X74435000Y-51450000D01*
X74435000Y-51430000D01*
X74735000Y-51430000D01*
X74735000Y-51450000D01*
G37*
X74735000Y-51450000D02*
X74755000Y-51450000D01*
X74755000Y-51750000D01*
X74735000Y-51750000D01*
X74735000Y-52145000D01*
X74810000Y-52220000D01*
X74880000Y-52221452D01*
X74938810Y-52215660D01*
X74995361Y-52198505D01*
X75047478Y-52170648D01*
X75093159Y-52133159D01*
X75098549Y-52126591D01*
X75098549Y-52400000D01*
X75104341Y-52458810D01*
X75121496Y-52515360D01*
X75149353Y-52567477D01*
X75186842Y-52613158D01*
X75232523Y-52650647D01*
X75284640Y-52678504D01*
X75341190Y-52695659D01*
X75400000Y-52701451D01*
X76192866Y-52701451D01*
X75894317Y-53000000D01*
X75117508Y-53000000D01*
X75105789Y-52978076D01*
X75049956Y-52910044D01*
X74981924Y-52854211D01*
X74904306Y-52812723D01*
X74820086Y-52787175D01*
X74732500Y-52778549D01*
X74437500Y-52778549D01*
X74349914Y-52787175D01*
X74265694Y-52812723D01*
X74188076Y-52854211D01*
X74143092Y-52891129D01*
X74123159Y-52866841D01*
X74077478Y-52829352D01*
X74025361Y-52801495D01*
X73968810Y-52784340D01*
X73910000Y-52778548D01*
X73840000Y-52780000D01*
X73765000Y-52855000D01*
X73765000Y-53250000D01*
X73785000Y-53250000D01*
X73785000Y-53550000D01*
X73765000Y-53550000D01*
X73765000Y-53570000D01*
X73465000Y-53570000D01*
X73465000Y-53550000D01*
X73445000Y-53550000D01*
X73445000Y-53250000D01*
X73465000Y-53250000D01*
X73465000Y-52855000D01*
X73390000Y-52780000D01*
X73320000Y-52778548D01*
X73261190Y-52784340D01*
X73204639Y-52801495D01*
X73152522Y-52829352D01*
X73106841Y-52866841D01*
X73069352Y-52912522D01*
X73041495Y-52964639D01*
X73027468Y-53010879D01*
X73021653Y-53000000D01*
X73046340Y-52953814D01*
X73069212Y-52878414D01*
X73076935Y-52800000D01*
X73069212Y-52721586D01*
X73046340Y-52646186D01*
X73021653Y-52600000D01*
X73046340Y-52553814D01*
X73069212Y-52478414D01*
X73076935Y-52400000D01*
X73069212Y-52321586D01*
X73046340Y-52246186D01*
X73021653Y-52200000D01*
X73046340Y-52153814D01*
X73069212Y-52078414D01*
X73076935Y-52000000D01*
X73082492Y-52000000D01*
X73094211Y-52021924D01*
X73150044Y-52089956D01*
X73218076Y-52145789D01*
X73295694Y-52187277D01*
X73379914Y-52212825D01*
X73450000Y-52219727D01*
X73450000Y-52254170D01*
X73471136Y-52360429D01*
X73512597Y-52460523D01*
X73572787Y-52550604D01*
X73649396Y-52627213D01*
X73739477Y-52687403D01*
X73839571Y-52728864D01*
X73945830Y-52750000D01*
X74054170Y-52750000D01*
X74160429Y-52728864D01*
X74260523Y-52687403D01*
X74350604Y-52627213D01*
X74427213Y-52550604D01*
X74487403Y-52460523D01*
X74528864Y-52360429D01*
X74550000Y-52254170D01*
X74550000Y-52145830D01*
X74528864Y-52039571D01*
X74487403Y-51939477D01*
X74435000Y-51861050D01*
X74435000Y-51750000D01*
X74415000Y-51750000D01*
X74415000Y-51450000D01*
X74435000Y-51450000D01*
X74435000Y-51430000D01*
X74735000Y-51430000D01*
X74735000Y-51450000D01*
M02*
