G04 #@! TF.GenerationSoftware,KiCad,Pcbnew,(5.1.5-0-10_14)*
G04 #@! TF.CreationDate,2020-05-20T18:56:31+12:00*
G04 #@! TF.ProjectId,bluetooth-tracker,626c7565-746f-46f7-9468-2d747261636b,A*
G04 #@! TF.SameCoordinates,Original*
G04 #@! TF.FileFunction,Paste,Top*
G04 #@! TF.FilePolarity,Positive*
%FSLAX46Y46*%
G04 Gerber Fmt 4.6, Leading zero omitted, Abs format (unit mm)*
G04 Created by KiCad (PCBNEW (5.1.5-0-10_14)) date 2020-05-20 18:56:31*
%MOMM*%
%LPD*%
G04 APERTURE LIST*
%ADD10C,0.100000*%
%ADD11C,0.320000*%
%ADD12R,5.080000X2.790000*%
%ADD13R,1.300000X3.400000*%
%ADD14R,1.300000X0.600000*%
%ADD15R,1.100000X1.900000*%
%ADD16O,0.200000X0.850000*%
%ADD17O,0.850000X0.200000*%
%ADD18R,4.300000X4.300000*%
G04 APERTURE END LIST*
D10*
X69400000Y-72000000D02*
G75*
G03X69400000Y-72000000I-5000000J0D01*
G01*
X60400000Y-46000001D02*
X85400000Y-46000001D01*
X85399999Y-81000000D02*
X64400000Y-81000000D01*
X90399999Y-76000002D02*
G75*
G02X85399999Y-81000000I-4999999J1D01*
G01*
X90400000Y-51000001D02*
X90400000Y-76000000D01*
X85400000Y-46000001D02*
G75*
G02X90400000Y-51000001I0J-5000000D01*
G01*
X55400001Y-51000001D02*
G75*
G02X60400001Y-46000001I5000000J0D01*
G01*
X55400000Y-71999999D02*
X55400000Y-51000001D01*
X64399999Y-81000000D02*
G75*
G02X55400000Y-71999999I1J9000000D01*
G01*
G36*
X74746958Y-55580710D02*
G01*
X74761276Y-55582834D01*
X74775317Y-55586351D01*
X74788946Y-55591228D01*
X74802031Y-55597417D01*
X74814447Y-55604858D01*
X74826073Y-55613481D01*
X74836798Y-55623202D01*
X74846519Y-55633927D01*
X74855142Y-55645553D01*
X74862583Y-55657969D01*
X74868772Y-55671054D01*
X74873649Y-55684683D01*
X74877166Y-55698724D01*
X74879290Y-55713042D01*
X74880000Y-55727500D01*
X74880000Y-56072500D01*
X74879290Y-56086958D01*
X74877166Y-56101276D01*
X74873649Y-56115317D01*
X74868772Y-56128946D01*
X74862583Y-56142031D01*
X74855142Y-56154447D01*
X74846519Y-56166073D01*
X74836798Y-56176798D01*
X74826073Y-56186519D01*
X74814447Y-56195142D01*
X74802031Y-56202583D01*
X74788946Y-56208772D01*
X74775317Y-56213649D01*
X74761276Y-56217166D01*
X74746958Y-56219290D01*
X74732500Y-56220000D01*
X74437500Y-56220000D01*
X74423042Y-56219290D01*
X74408724Y-56217166D01*
X74394683Y-56213649D01*
X74381054Y-56208772D01*
X74367969Y-56202583D01*
X74355553Y-56195142D01*
X74343927Y-56186519D01*
X74333202Y-56176798D01*
X74323481Y-56166073D01*
X74314858Y-56154447D01*
X74307417Y-56142031D01*
X74301228Y-56128946D01*
X74296351Y-56115317D01*
X74292834Y-56101276D01*
X74290710Y-56086958D01*
X74290000Y-56072500D01*
X74290000Y-55727500D01*
X74290710Y-55713042D01*
X74292834Y-55698724D01*
X74296351Y-55684683D01*
X74301228Y-55671054D01*
X74307417Y-55657969D01*
X74314858Y-55645553D01*
X74323481Y-55633927D01*
X74333202Y-55623202D01*
X74343927Y-55613481D01*
X74355553Y-55604858D01*
X74367969Y-55597417D01*
X74381054Y-55591228D01*
X74394683Y-55586351D01*
X74408724Y-55582834D01*
X74423042Y-55580710D01*
X74437500Y-55580000D01*
X74732500Y-55580000D01*
X74746958Y-55580710D01*
G37*
G36*
X73776958Y-55580710D02*
G01*
X73791276Y-55582834D01*
X73805317Y-55586351D01*
X73818946Y-55591228D01*
X73832031Y-55597417D01*
X73844447Y-55604858D01*
X73856073Y-55613481D01*
X73866798Y-55623202D01*
X73876519Y-55633927D01*
X73885142Y-55645553D01*
X73892583Y-55657969D01*
X73898772Y-55671054D01*
X73903649Y-55684683D01*
X73907166Y-55698724D01*
X73909290Y-55713042D01*
X73910000Y-55727500D01*
X73910000Y-56072500D01*
X73909290Y-56086958D01*
X73907166Y-56101276D01*
X73903649Y-56115317D01*
X73898772Y-56128946D01*
X73892583Y-56142031D01*
X73885142Y-56154447D01*
X73876519Y-56166073D01*
X73866798Y-56176798D01*
X73856073Y-56186519D01*
X73844447Y-56195142D01*
X73832031Y-56202583D01*
X73818946Y-56208772D01*
X73805317Y-56213649D01*
X73791276Y-56217166D01*
X73776958Y-56219290D01*
X73762500Y-56220000D01*
X73467500Y-56220000D01*
X73453042Y-56219290D01*
X73438724Y-56217166D01*
X73424683Y-56213649D01*
X73411054Y-56208772D01*
X73397969Y-56202583D01*
X73385553Y-56195142D01*
X73373927Y-56186519D01*
X73363202Y-56176798D01*
X73353481Y-56166073D01*
X73344858Y-56154447D01*
X73337417Y-56142031D01*
X73331228Y-56128946D01*
X73326351Y-56115317D01*
X73322834Y-56101276D01*
X73320710Y-56086958D01*
X73320000Y-56072500D01*
X73320000Y-55727500D01*
X73320710Y-55713042D01*
X73322834Y-55698724D01*
X73326351Y-55684683D01*
X73331228Y-55671054D01*
X73337417Y-55657969D01*
X73344858Y-55645553D01*
X73353481Y-55633927D01*
X73363202Y-55623202D01*
X73373927Y-55613481D01*
X73385553Y-55604858D01*
X73397969Y-55597417D01*
X73411054Y-55591228D01*
X73424683Y-55586351D01*
X73438724Y-55582834D01*
X73453042Y-55580710D01*
X73467500Y-55580000D01*
X73762500Y-55580000D01*
X73776958Y-55580710D01*
G37*
G36*
X73776958Y-50280710D02*
G01*
X73791276Y-50282834D01*
X73805317Y-50286351D01*
X73818946Y-50291228D01*
X73832031Y-50297417D01*
X73844447Y-50304858D01*
X73856073Y-50313481D01*
X73866798Y-50323202D01*
X73876519Y-50333927D01*
X73885142Y-50345553D01*
X73892583Y-50357969D01*
X73898772Y-50371054D01*
X73903649Y-50384683D01*
X73907166Y-50398724D01*
X73909290Y-50413042D01*
X73910000Y-50427500D01*
X73910000Y-50772500D01*
X73909290Y-50786958D01*
X73907166Y-50801276D01*
X73903649Y-50815317D01*
X73898772Y-50828946D01*
X73892583Y-50842031D01*
X73885142Y-50854447D01*
X73876519Y-50866073D01*
X73866798Y-50876798D01*
X73856073Y-50886519D01*
X73844447Y-50895142D01*
X73832031Y-50902583D01*
X73818946Y-50908772D01*
X73805317Y-50913649D01*
X73791276Y-50917166D01*
X73776958Y-50919290D01*
X73762500Y-50920000D01*
X73467500Y-50920000D01*
X73453042Y-50919290D01*
X73438724Y-50917166D01*
X73424683Y-50913649D01*
X73411054Y-50908772D01*
X73397969Y-50902583D01*
X73385553Y-50895142D01*
X73373927Y-50886519D01*
X73363202Y-50876798D01*
X73353481Y-50866073D01*
X73344858Y-50854447D01*
X73337417Y-50842031D01*
X73331228Y-50828946D01*
X73326351Y-50815317D01*
X73322834Y-50801276D01*
X73320710Y-50786958D01*
X73320000Y-50772500D01*
X73320000Y-50427500D01*
X73320710Y-50413042D01*
X73322834Y-50398724D01*
X73326351Y-50384683D01*
X73331228Y-50371054D01*
X73337417Y-50357969D01*
X73344858Y-50345553D01*
X73353481Y-50333927D01*
X73363202Y-50323202D01*
X73373927Y-50313481D01*
X73385553Y-50304858D01*
X73397969Y-50297417D01*
X73411054Y-50291228D01*
X73424683Y-50286351D01*
X73438724Y-50282834D01*
X73453042Y-50280710D01*
X73467500Y-50280000D01*
X73762500Y-50280000D01*
X73776958Y-50280710D01*
G37*
G36*
X74746958Y-50280710D02*
G01*
X74761276Y-50282834D01*
X74775317Y-50286351D01*
X74788946Y-50291228D01*
X74802031Y-50297417D01*
X74814447Y-50304858D01*
X74826073Y-50313481D01*
X74836798Y-50323202D01*
X74846519Y-50333927D01*
X74855142Y-50345553D01*
X74862583Y-50357969D01*
X74868772Y-50371054D01*
X74873649Y-50384683D01*
X74877166Y-50398724D01*
X74879290Y-50413042D01*
X74880000Y-50427500D01*
X74880000Y-50772500D01*
X74879290Y-50786958D01*
X74877166Y-50801276D01*
X74873649Y-50815317D01*
X74868772Y-50828946D01*
X74862583Y-50842031D01*
X74855142Y-50854447D01*
X74846519Y-50866073D01*
X74836798Y-50876798D01*
X74826073Y-50886519D01*
X74814447Y-50895142D01*
X74802031Y-50902583D01*
X74788946Y-50908772D01*
X74775317Y-50913649D01*
X74761276Y-50917166D01*
X74746958Y-50919290D01*
X74732500Y-50920000D01*
X74437500Y-50920000D01*
X74423042Y-50919290D01*
X74408724Y-50917166D01*
X74394683Y-50913649D01*
X74381054Y-50908772D01*
X74367969Y-50902583D01*
X74355553Y-50895142D01*
X74343927Y-50886519D01*
X74333202Y-50876798D01*
X74323481Y-50866073D01*
X74314858Y-50854447D01*
X74307417Y-50842031D01*
X74301228Y-50828946D01*
X74296351Y-50815317D01*
X74292834Y-50801276D01*
X74290710Y-50786958D01*
X74290000Y-50772500D01*
X74290000Y-50427500D01*
X74290710Y-50413042D01*
X74292834Y-50398724D01*
X74296351Y-50384683D01*
X74301228Y-50371054D01*
X74307417Y-50357969D01*
X74314858Y-50345553D01*
X74323481Y-50333927D01*
X74333202Y-50323202D01*
X74343927Y-50313481D01*
X74355553Y-50304858D01*
X74367969Y-50297417D01*
X74381054Y-50291228D01*
X74394683Y-50286351D01*
X74408724Y-50282834D01*
X74423042Y-50280710D01*
X74437500Y-50280000D01*
X74732500Y-50280000D01*
X74746958Y-50280710D01*
G37*
G36*
X73776958Y-53080710D02*
G01*
X73791276Y-53082834D01*
X73805317Y-53086351D01*
X73818946Y-53091228D01*
X73832031Y-53097417D01*
X73844447Y-53104858D01*
X73856073Y-53113481D01*
X73866798Y-53123202D01*
X73876519Y-53133927D01*
X73885142Y-53145553D01*
X73892583Y-53157969D01*
X73898772Y-53171054D01*
X73903649Y-53184683D01*
X73907166Y-53198724D01*
X73909290Y-53213042D01*
X73910000Y-53227500D01*
X73910000Y-53572500D01*
X73909290Y-53586958D01*
X73907166Y-53601276D01*
X73903649Y-53615317D01*
X73898772Y-53628946D01*
X73892583Y-53642031D01*
X73885142Y-53654447D01*
X73876519Y-53666073D01*
X73866798Y-53676798D01*
X73856073Y-53686519D01*
X73844447Y-53695142D01*
X73832031Y-53702583D01*
X73818946Y-53708772D01*
X73805317Y-53713649D01*
X73791276Y-53717166D01*
X73776958Y-53719290D01*
X73762500Y-53720000D01*
X73467500Y-53720000D01*
X73453042Y-53719290D01*
X73438724Y-53717166D01*
X73424683Y-53713649D01*
X73411054Y-53708772D01*
X73397969Y-53702583D01*
X73385553Y-53695142D01*
X73373927Y-53686519D01*
X73363202Y-53676798D01*
X73353481Y-53666073D01*
X73344858Y-53654447D01*
X73337417Y-53642031D01*
X73331228Y-53628946D01*
X73326351Y-53615317D01*
X73322834Y-53601276D01*
X73320710Y-53586958D01*
X73320000Y-53572500D01*
X73320000Y-53227500D01*
X73320710Y-53213042D01*
X73322834Y-53198724D01*
X73326351Y-53184683D01*
X73331228Y-53171054D01*
X73337417Y-53157969D01*
X73344858Y-53145553D01*
X73353481Y-53133927D01*
X73363202Y-53123202D01*
X73373927Y-53113481D01*
X73385553Y-53104858D01*
X73397969Y-53097417D01*
X73411054Y-53091228D01*
X73424683Y-53086351D01*
X73438724Y-53082834D01*
X73453042Y-53080710D01*
X73467500Y-53080000D01*
X73762500Y-53080000D01*
X73776958Y-53080710D01*
G37*
G36*
X74746958Y-53080710D02*
G01*
X74761276Y-53082834D01*
X74775317Y-53086351D01*
X74788946Y-53091228D01*
X74802031Y-53097417D01*
X74814447Y-53104858D01*
X74826073Y-53113481D01*
X74836798Y-53123202D01*
X74846519Y-53133927D01*
X74855142Y-53145553D01*
X74862583Y-53157969D01*
X74868772Y-53171054D01*
X74873649Y-53184683D01*
X74877166Y-53198724D01*
X74879290Y-53213042D01*
X74880000Y-53227500D01*
X74880000Y-53572500D01*
X74879290Y-53586958D01*
X74877166Y-53601276D01*
X74873649Y-53615317D01*
X74868772Y-53628946D01*
X74862583Y-53642031D01*
X74855142Y-53654447D01*
X74846519Y-53666073D01*
X74836798Y-53676798D01*
X74826073Y-53686519D01*
X74814447Y-53695142D01*
X74802031Y-53702583D01*
X74788946Y-53708772D01*
X74775317Y-53713649D01*
X74761276Y-53717166D01*
X74746958Y-53719290D01*
X74732500Y-53720000D01*
X74437500Y-53720000D01*
X74423042Y-53719290D01*
X74408724Y-53717166D01*
X74394683Y-53713649D01*
X74381054Y-53708772D01*
X74367969Y-53702583D01*
X74355553Y-53695142D01*
X74343927Y-53686519D01*
X74333202Y-53676798D01*
X74323481Y-53666073D01*
X74314858Y-53654447D01*
X74307417Y-53642031D01*
X74301228Y-53628946D01*
X74296351Y-53615317D01*
X74292834Y-53601276D01*
X74290710Y-53586958D01*
X74290000Y-53572500D01*
X74290000Y-53227500D01*
X74290710Y-53213042D01*
X74292834Y-53198724D01*
X74296351Y-53184683D01*
X74301228Y-53171054D01*
X74307417Y-53157969D01*
X74314858Y-53145553D01*
X74323481Y-53133927D01*
X74333202Y-53123202D01*
X74343927Y-53113481D01*
X74355553Y-53104858D01*
X74367969Y-53097417D01*
X74381054Y-53091228D01*
X74394683Y-53086351D01*
X74408724Y-53082834D01*
X74423042Y-53080710D01*
X74437500Y-53080000D01*
X74732500Y-53080000D01*
X74746958Y-53080710D01*
G37*
G36*
X73776958Y-54080710D02*
G01*
X73791276Y-54082834D01*
X73805317Y-54086351D01*
X73818946Y-54091228D01*
X73832031Y-54097417D01*
X73844447Y-54104858D01*
X73856073Y-54113481D01*
X73866798Y-54123202D01*
X73876519Y-54133927D01*
X73885142Y-54145553D01*
X73892583Y-54157969D01*
X73898772Y-54171054D01*
X73903649Y-54184683D01*
X73907166Y-54198724D01*
X73909290Y-54213042D01*
X73910000Y-54227500D01*
X73910000Y-54572500D01*
X73909290Y-54586958D01*
X73907166Y-54601276D01*
X73903649Y-54615317D01*
X73898772Y-54628946D01*
X73892583Y-54642031D01*
X73885142Y-54654447D01*
X73876519Y-54666073D01*
X73866798Y-54676798D01*
X73856073Y-54686519D01*
X73844447Y-54695142D01*
X73832031Y-54702583D01*
X73818946Y-54708772D01*
X73805317Y-54713649D01*
X73791276Y-54717166D01*
X73776958Y-54719290D01*
X73762500Y-54720000D01*
X73467500Y-54720000D01*
X73453042Y-54719290D01*
X73438724Y-54717166D01*
X73424683Y-54713649D01*
X73411054Y-54708772D01*
X73397969Y-54702583D01*
X73385553Y-54695142D01*
X73373927Y-54686519D01*
X73363202Y-54676798D01*
X73353481Y-54666073D01*
X73344858Y-54654447D01*
X73337417Y-54642031D01*
X73331228Y-54628946D01*
X73326351Y-54615317D01*
X73322834Y-54601276D01*
X73320710Y-54586958D01*
X73320000Y-54572500D01*
X73320000Y-54227500D01*
X73320710Y-54213042D01*
X73322834Y-54198724D01*
X73326351Y-54184683D01*
X73331228Y-54171054D01*
X73337417Y-54157969D01*
X73344858Y-54145553D01*
X73353481Y-54133927D01*
X73363202Y-54123202D01*
X73373927Y-54113481D01*
X73385553Y-54104858D01*
X73397969Y-54097417D01*
X73411054Y-54091228D01*
X73424683Y-54086351D01*
X73438724Y-54082834D01*
X73453042Y-54080710D01*
X73467500Y-54080000D01*
X73762500Y-54080000D01*
X73776958Y-54080710D01*
G37*
G36*
X74746958Y-54080710D02*
G01*
X74761276Y-54082834D01*
X74775317Y-54086351D01*
X74788946Y-54091228D01*
X74802031Y-54097417D01*
X74814447Y-54104858D01*
X74826073Y-54113481D01*
X74836798Y-54123202D01*
X74846519Y-54133927D01*
X74855142Y-54145553D01*
X74862583Y-54157969D01*
X74868772Y-54171054D01*
X74873649Y-54184683D01*
X74877166Y-54198724D01*
X74879290Y-54213042D01*
X74880000Y-54227500D01*
X74880000Y-54572500D01*
X74879290Y-54586958D01*
X74877166Y-54601276D01*
X74873649Y-54615317D01*
X74868772Y-54628946D01*
X74862583Y-54642031D01*
X74855142Y-54654447D01*
X74846519Y-54666073D01*
X74836798Y-54676798D01*
X74826073Y-54686519D01*
X74814447Y-54695142D01*
X74802031Y-54702583D01*
X74788946Y-54708772D01*
X74775317Y-54713649D01*
X74761276Y-54717166D01*
X74746958Y-54719290D01*
X74732500Y-54720000D01*
X74437500Y-54720000D01*
X74423042Y-54719290D01*
X74408724Y-54717166D01*
X74394683Y-54713649D01*
X74381054Y-54708772D01*
X74367969Y-54702583D01*
X74355553Y-54695142D01*
X74343927Y-54686519D01*
X74333202Y-54676798D01*
X74323481Y-54666073D01*
X74314858Y-54654447D01*
X74307417Y-54642031D01*
X74301228Y-54628946D01*
X74296351Y-54615317D01*
X74292834Y-54601276D01*
X74290710Y-54586958D01*
X74290000Y-54572500D01*
X74290000Y-54227500D01*
X74290710Y-54213042D01*
X74292834Y-54198724D01*
X74296351Y-54184683D01*
X74301228Y-54171054D01*
X74307417Y-54157969D01*
X74314858Y-54145553D01*
X74323481Y-54133927D01*
X74333202Y-54123202D01*
X74343927Y-54113481D01*
X74355553Y-54104858D01*
X74367969Y-54097417D01*
X74381054Y-54091228D01*
X74394683Y-54086351D01*
X74408724Y-54082834D01*
X74423042Y-54080710D01*
X74437500Y-54080000D01*
X74732500Y-54080000D01*
X74746958Y-54080710D01*
G37*
G36*
X61076958Y-53780710D02*
G01*
X61091276Y-53782834D01*
X61105317Y-53786351D01*
X61118946Y-53791228D01*
X61132031Y-53797417D01*
X61144447Y-53804858D01*
X61156073Y-53813481D01*
X61166798Y-53823202D01*
X61176519Y-53833927D01*
X61185142Y-53845553D01*
X61192583Y-53857969D01*
X61198772Y-53871054D01*
X61203649Y-53884683D01*
X61207166Y-53898724D01*
X61209290Y-53913042D01*
X61210000Y-53927500D01*
X61210000Y-54272500D01*
X61209290Y-54286958D01*
X61207166Y-54301276D01*
X61203649Y-54315317D01*
X61198772Y-54328946D01*
X61192583Y-54342031D01*
X61185142Y-54354447D01*
X61176519Y-54366073D01*
X61166798Y-54376798D01*
X61156073Y-54386519D01*
X61144447Y-54395142D01*
X61132031Y-54402583D01*
X61118946Y-54408772D01*
X61105317Y-54413649D01*
X61091276Y-54417166D01*
X61076958Y-54419290D01*
X61062500Y-54420000D01*
X60767500Y-54420000D01*
X60753042Y-54419290D01*
X60738724Y-54417166D01*
X60724683Y-54413649D01*
X60711054Y-54408772D01*
X60697969Y-54402583D01*
X60685553Y-54395142D01*
X60673927Y-54386519D01*
X60663202Y-54376798D01*
X60653481Y-54366073D01*
X60644858Y-54354447D01*
X60637417Y-54342031D01*
X60631228Y-54328946D01*
X60626351Y-54315317D01*
X60622834Y-54301276D01*
X60620710Y-54286958D01*
X60620000Y-54272500D01*
X60620000Y-53927500D01*
X60620710Y-53913042D01*
X60622834Y-53898724D01*
X60626351Y-53884683D01*
X60631228Y-53871054D01*
X60637417Y-53857969D01*
X60644858Y-53845553D01*
X60653481Y-53833927D01*
X60663202Y-53823202D01*
X60673927Y-53813481D01*
X60685553Y-53804858D01*
X60697969Y-53797417D01*
X60711054Y-53791228D01*
X60724683Y-53786351D01*
X60738724Y-53782834D01*
X60753042Y-53780710D01*
X60767500Y-53780000D01*
X61062500Y-53780000D01*
X61076958Y-53780710D01*
G37*
G36*
X62046958Y-53780710D02*
G01*
X62061276Y-53782834D01*
X62075317Y-53786351D01*
X62088946Y-53791228D01*
X62102031Y-53797417D01*
X62114447Y-53804858D01*
X62126073Y-53813481D01*
X62136798Y-53823202D01*
X62146519Y-53833927D01*
X62155142Y-53845553D01*
X62162583Y-53857969D01*
X62168772Y-53871054D01*
X62173649Y-53884683D01*
X62177166Y-53898724D01*
X62179290Y-53913042D01*
X62180000Y-53927500D01*
X62180000Y-54272500D01*
X62179290Y-54286958D01*
X62177166Y-54301276D01*
X62173649Y-54315317D01*
X62168772Y-54328946D01*
X62162583Y-54342031D01*
X62155142Y-54354447D01*
X62146519Y-54366073D01*
X62136798Y-54376798D01*
X62126073Y-54386519D01*
X62114447Y-54395142D01*
X62102031Y-54402583D01*
X62088946Y-54408772D01*
X62075317Y-54413649D01*
X62061276Y-54417166D01*
X62046958Y-54419290D01*
X62032500Y-54420000D01*
X61737500Y-54420000D01*
X61723042Y-54419290D01*
X61708724Y-54417166D01*
X61694683Y-54413649D01*
X61681054Y-54408772D01*
X61667969Y-54402583D01*
X61655553Y-54395142D01*
X61643927Y-54386519D01*
X61633202Y-54376798D01*
X61623481Y-54366073D01*
X61614858Y-54354447D01*
X61607417Y-54342031D01*
X61601228Y-54328946D01*
X61596351Y-54315317D01*
X61592834Y-54301276D01*
X61590710Y-54286958D01*
X61590000Y-54272500D01*
X61590000Y-53927500D01*
X61590710Y-53913042D01*
X61592834Y-53898724D01*
X61596351Y-53884683D01*
X61601228Y-53871054D01*
X61607417Y-53857969D01*
X61614858Y-53845553D01*
X61623481Y-53833927D01*
X61633202Y-53823202D01*
X61643927Y-53813481D01*
X61655553Y-53804858D01*
X61667969Y-53797417D01*
X61681054Y-53791228D01*
X61694683Y-53786351D01*
X61708724Y-53782834D01*
X61723042Y-53780710D01*
X61737500Y-53780000D01*
X62032500Y-53780000D01*
X62046958Y-53780710D01*
G37*
G36*
X61086958Y-55775710D02*
G01*
X61101276Y-55777834D01*
X61115317Y-55781351D01*
X61128946Y-55786228D01*
X61142031Y-55792417D01*
X61154447Y-55799858D01*
X61166073Y-55808481D01*
X61176798Y-55818202D01*
X61186519Y-55828927D01*
X61195142Y-55840553D01*
X61202583Y-55852969D01*
X61208772Y-55866054D01*
X61213649Y-55879683D01*
X61217166Y-55893724D01*
X61219290Y-55908042D01*
X61220000Y-55922500D01*
X61220000Y-56217500D01*
X61219290Y-56231958D01*
X61217166Y-56246276D01*
X61213649Y-56260317D01*
X61208772Y-56273946D01*
X61202583Y-56287031D01*
X61195142Y-56299447D01*
X61186519Y-56311073D01*
X61176798Y-56321798D01*
X61166073Y-56331519D01*
X61154447Y-56340142D01*
X61142031Y-56347583D01*
X61128946Y-56353772D01*
X61115317Y-56358649D01*
X61101276Y-56362166D01*
X61086958Y-56364290D01*
X61072500Y-56365000D01*
X60727500Y-56365000D01*
X60713042Y-56364290D01*
X60698724Y-56362166D01*
X60684683Y-56358649D01*
X60671054Y-56353772D01*
X60657969Y-56347583D01*
X60645553Y-56340142D01*
X60633927Y-56331519D01*
X60623202Y-56321798D01*
X60613481Y-56311073D01*
X60604858Y-56299447D01*
X60597417Y-56287031D01*
X60591228Y-56273946D01*
X60586351Y-56260317D01*
X60582834Y-56246276D01*
X60580710Y-56231958D01*
X60580000Y-56217500D01*
X60580000Y-55922500D01*
X60580710Y-55908042D01*
X60582834Y-55893724D01*
X60586351Y-55879683D01*
X60591228Y-55866054D01*
X60597417Y-55852969D01*
X60604858Y-55840553D01*
X60613481Y-55828927D01*
X60623202Y-55818202D01*
X60633927Y-55808481D01*
X60645553Y-55799858D01*
X60657969Y-55792417D01*
X60671054Y-55786228D01*
X60684683Y-55781351D01*
X60698724Y-55777834D01*
X60713042Y-55775710D01*
X60727500Y-55775000D01*
X61072500Y-55775000D01*
X61086958Y-55775710D01*
G37*
G36*
X61086958Y-54805710D02*
G01*
X61101276Y-54807834D01*
X61115317Y-54811351D01*
X61128946Y-54816228D01*
X61142031Y-54822417D01*
X61154447Y-54829858D01*
X61166073Y-54838481D01*
X61176798Y-54848202D01*
X61186519Y-54858927D01*
X61195142Y-54870553D01*
X61202583Y-54882969D01*
X61208772Y-54896054D01*
X61213649Y-54909683D01*
X61217166Y-54923724D01*
X61219290Y-54938042D01*
X61220000Y-54952500D01*
X61220000Y-55247500D01*
X61219290Y-55261958D01*
X61217166Y-55276276D01*
X61213649Y-55290317D01*
X61208772Y-55303946D01*
X61202583Y-55317031D01*
X61195142Y-55329447D01*
X61186519Y-55341073D01*
X61176798Y-55351798D01*
X61166073Y-55361519D01*
X61154447Y-55370142D01*
X61142031Y-55377583D01*
X61128946Y-55383772D01*
X61115317Y-55388649D01*
X61101276Y-55392166D01*
X61086958Y-55394290D01*
X61072500Y-55395000D01*
X60727500Y-55395000D01*
X60713042Y-55394290D01*
X60698724Y-55392166D01*
X60684683Y-55388649D01*
X60671054Y-55383772D01*
X60657969Y-55377583D01*
X60645553Y-55370142D01*
X60633927Y-55361519D01*
X60623202Y-55351798D01*
X60613481Y-55341073D01*
X60604858Y-55329447D01*
X60597417Y-55317031D01*
X60591228Y-55303946D01*
X60586351Y-55290317D01*
X60582834Y-55276276D01*
X60580710Y-55261958D01*
X60580000Y-55247500D01*
X60580000Y-54952500D01*
X60580710Y-54938042D01*
X60582834Y-54923724D01*
X60586351Y-54909683D01*
X60591228Y-54896054D01*
X60597417Y-54882969D01*
X60604858Y-54870553D01*
X60613481Y-54858927D01*
X60623202Y-54848202D01*
X60633927Y-54838481D01*
X60645553Y-54829858D01*
X60657969Y-54822417D01*
X60671054Y-54816228D01*
X60684683Y-54811351D01*
X60698724Y-54807834D01*
X60713042Y-54805710D01*
X60727500Y-54805000D01*
X61072500Y-54805000D01*
X61086958Y-54805710D01*
G37*
G36*
X62086958Y-51835710D02*
G01*
X62101276Y-51837834D01*
X62115317Y-51841351D01*
X62128946Y-51846228D01*
X62142031Y-51852417D01*
X62154447Y-51859858D01*
X62166073Y-51868481D01*
X62176798Y-51878202D01*
X62186519Y-51888927D01*
X62195142Y-51900553D01*
X62202583Y-51912969D01*
X62208772Y-51926054D01*
X62213649Y-51939683D01*
X62217166Y-51953724D01*
X62219290Y-51968042D01*
X62220000Y-51982500D01*
X62220000Y-52277500D01*
X62219290Y-52291958D01*
X62217166Y-52306276D01*
X62213649Y-52320317D01*
X62208772Y-52333946D01*
X62202583Y-52347031D01*
X62195142Y-52359447D01*
X62186519Y-52371073D01*
X62176798Y-52381798D01*
X62166073Y-52391519D01*
X62154447Y-52400142D01*
X62142031Y-52407583D01*
X62128946Y-52413772D01*
X62115317Y-52418649D01*
X62101276Y-52422166D01*
X62086958Y-52424290D01*
X62072500Y-52425000D01*
X61727500Y-52425000D01*
X61713042Y-52424290D01*
X61698724Y-52422166D01*
X61684683Y-52418649D01*
X61671054Y-52413772D01*
X61657969Y-52407583D01*
X61645553Y-52400142D01*
X61633927Y-52391519D01*
X61623202Y-52381798D01*
X61613481Y-52371073D01*
X61604858Y-52359447D01*
X61597417Y-52347031D01*
X61591228Y-52333946D01*
X61586351Y-52320317D01*
X61582834Y-52306276D01*
X61580710Y-52291958D01*
X61580000Y-52277500D01*
X61580000Y-51982500D01*
X61580710Y-51968042D01*
X61582834Y-51953724D01*
X61586351Y-51939683D01*
X61591228Y-51926054D01*
X61597417Y-51912969D01*
X61604858Y-51900553D01*
X61613481Y-51888927D01*
X61623202Y-51878202D01*
X61633927Y-51868481D01*
X61645553Y-51859858D01*
X61657969Y-51852417D01*
X61671054Y-51846228D01*
X61684683Y-51841351D01*
X61698724Y-51837834D01*
X61713042Y-51835710D01*
X61727500Y-51835000D01*
X62072500Y-51835000D01*
X62086958Y-51835710D01*
G37*
G36*
X62086958Y-52805710D02*
G01*
X62101276Y-52807834D01*
X62115317Y-52811351D01*
X62128946Y-52816228D01*
X62142031Y-52822417D01*
X62154447Y-52829858D01*
X62166073Y-52838481D01*
X62176798Y-52848202D01*
X62186519Y-52858927D01*
X62195142Y-52870553D01*
X62202583Y-52882969D01*
X62208772Y-52896054D01*
X62213649Y-52909683D01*
X62217166Y-52923724D01*
X62219290Y-52938042D01*
X62220000Y-52952500D01*
X62220000Y-53247500D01*
X62219290Y-53261958D01*
X62217166Y-53276276D01*
X62213649Y-53290317D01*
X62208772Y-53303946D01*
X62202583Y-53317031D01*
X62195142Y-53329447D01*
X62186519Y-53341073D01*
X62176798Y-53351798D01*
X62166073Y-53361519D01*
X62154447Y-53370142D01*
X62142031Y-53377583D01*
X62128946Y-53383772D01*
X62115317Y-53388649D01*
X62101276Y-53392166D01*
X62086958Y-53394290D01*
X62072500Y-53395000D01*
X61727500Y-53395000D01*
X61713042Y-53394290D01*
X61698724Y-53392166D01*
X61684683Y-53388649D01*
X61671054Y-53383772D01*
X61657969Y-53377583D01*
X61645553Y-53370142D01*
X61633927Y-53361519D01*
X61623202Y-53351798D01*
X61613481Y-53341073D01*
X61604858Y-53329447D01*
X61597417Y-53317031D01*
X61591228Y-53303946D01*
X61586351Y-53290317D01*
X61582834Y-53276276D01*
X61580710Y-53261958D01*
X61580000Y-53247500D01*
X61580000Y-52952500D01*
X61580710Y-52938042D01*
X61582834Y-52923724D01*
X61586351Y-52909683D01*
X61591228Y-52896054D01*
X61597417Y-52882969D01*
X61604858Y-52870553D01*
X61613481Y-52858927D01*
X61623202Y-52848202D01*
X61633927Y-52838481D01*
X61645553Y-52829858D01*
X61657969Y-52822417D01*
X61671054Y-52816228D01*
X61684683Y-52811351D01*
X61698724Y-52807834D01*
X61713042Y-52805710D01*
X61727500Y-52805000D01*
X62072500Y-52805000D01*
X62086958Y-52805710D01*
G37*
G36*
X65386958Y-51820710D02*
G01*
X65401276Y-51822834D01*
X65415317Y-51826351D01*
X65428946Y-51831228D01*
X65442031Y-51837417D01*
X65454447Y-51844858D01*
X65466073Y-51853481D01*
X65476798Y-51863202D01*
X65486519Y-51873927D01*
X65495142Y-51885553D01*
X65502583Y-51897969D01*
X65508772Y-51911054D01*
X65513649Y-51924683D01*
X65517166Y-51938724D01*
X65519290Y-51953042D01*
X65520000Y-51967500D01*
X65520000Y-52262500D01*
X65519290Y-52276958D01*
X65517166Y-52291276D01*
X65513649Y-52305317D01*
X65508772Y-52318946D01*
X65502583Y-52332031D01*
X65495142Y-52344447D01*
X65486519Y-52356073D01*
X65476798Y-52366798D01*
X65466073Y-52376519D01*
X65454447Y-52385142D01*
X65442031Y-52392583D01*
X65428946Y-52398772D01*
X65415317Y-52403649D01*
X65401276Y-52407166D01*
X65386958Y-52409290D01*
X65372500Y-52410000D01*
X65027500Y-52410000D01*
X65013042Y-52409290D01*
X64998724Y-52407166D01*
X64984683Y-52403649D01*
X64971054Y-52398772D01*
X64957969Y-52392583D01*
X64945553Y-52385142D01*
X64933927Y-52376519D01*
X64923202Y-52366798D01*
X64913481Y-52356073D01*
X64904858Y-52344447D01*
X64897417Y-52332031D01*
X64891228Y-52318946D01*
X64886351Y-52305317D01*
X64882834Y-52291276D01*
X64880710Y-52276958D01*
X64880000Y-52262500D01*
X64880000Y-51967500D01*
X64880710Y-51953042D01*
X64882834Y-51938724D01*
X64886351Y-51924683D01*
X64891228Y-51911054D01*
X64897417Y-51897969D01*
X64904858Y-51885553D01*
X64913481Y-51873927D01*
X64923202Y-51863202D01*
X64933927Y-51853481D01*
X64945553Y-51844858D01*
X64957969Y-51837417D01*
X64971054Y-51831228D01*
X64984683Y-51826351D01*
X64998724Y-51822834D01*
X65013042Y-51820710D01*
X65027500Y-51820000D01*
X65372500Y-51820000D01*
X65386958Y-51820710D01*
G37*
G36*
X65386958Y-52790710D02*
G01*
X65401276Y-52792834D01*
X65415317Y-52796351D01*
X65428946Y-52801228D01*
X65442031Y-52807417D01*
X65454447Y-52814858D01*
X65466073Y-52823481D01*
X65476798Y-52833202D01*
X65486519Y-52843927D01*
X65495142Y-52855553D01*
X65502583Y-52867969D01*
X65508772Y-52881054D01*
X65513649Y-52894683D01*
X65517166Y-52908724D01*
X65519290Y-52923042D01*
X65520000Y-52937500D01*
X65520000Y-53232500D01*
X65519290Y-53246958D01*
X65517166Y-53261276D01*
X65513649Y-53275317D01*
X65508772Y-53288946D01*
X65502583Y-53302031D01*
X65495142Y-53314447D01*
X65486519Y-53326073D01*
X65476798Y-53336798D01*
X65466073Y-53346519D01*
X65454447Y-53355142D01*
X65442031Y-53362583D01*
X65428946Y-53368772D01*
X65415317Y-53373649D01*
X65401276Y-53377166D01*
X65386958Y-53379290D01*
X65372500Y-53380000D01*
X65027500Y-53380000D01*
X65013042Y-53379290D01*
X64998724Y-53377166D01*
X64984683Y-53373649D01*
X64971054Y-53368772D01*
X64957969Y-53362583D01*
X64945553Y-53355142D01*
X64933927Y-53346519D01*
X64923202Y-53336798D01*
X64913481Y-53326073D01*
X64904858Y-53314447D01*
X64897417Y-53302031D01*
X64891228Y-53288946D01*
X64886351Y-53275317D01*
X64882834Y-53261276D01*
X64880710Y-53246958D01*
X64880000Y-53232500D01*
X64880000Y-52937500D01*
X64880710Y-52923042D01*
X64882834Y-52908724D01*
X64886351Y-52894683D01*
X64891228Y-52881054D01*
X64897417Y-52867969D01*
X64904858Y-52855553D01*
X64913481Y-52843927D01*
X64923202Y-52833202D01*
X64933927Y-52823481D01*
X64945553Y-52814858D01*
X64957969Y-52807417D01*
X64971054Y-52801228D01*
X64984683Y-52796351D01*
X64998724Y-52792834D01*
X65013042Y-52790710D01*
X65027500Y-52790000D01*
X65372500Y-52790000D01*
X65386958Y-52790710D01*
G37*
G36*
X74746958Y-51280710D02*
G01*
X74761276Y-51282834D01*
X74775317Y-51286351D01*
X74788946Y-51291228D01*
X74802031Y-51297417D01*
X74814447Y-51304858D01*
X74826073Y-51313481D01*
X74836798Y-51323202D01*
X74846519Y-51333927D01*
X74855142Y-51345553D01*
X74862583Y-51357969D01*
X74868772Y-51371054D01*
X74873649Y-51384683D01*
X74877166Y-51398724D01*
X74879290Y-51413042D01*
X74880000Y-51427500D01*
X74880000Y-51772500D01*
X74879290Y-51786958D01*
X74877166Y-51801276D01*
X74873649Y-51815317D01*
X74868772Y-51828946D01*
X74862583Y-51842031D01*
X74855142Y-51854447D01*
X74846519Y-51866073D01*
X74836798Y-51876798D01*
X74826073Y-51886519D01*
X74814447Y-51895142D01*
X74802031Y-51902583D01*
X74788946Y-51908772D01*
X74775317Y-51913649D01*
X74761276Y-51917166D01*
X74746958Y-51919290D01*
X74732500Y-51920000D01*
X74437500Y-51920000D01*
X74423042Y-51919290D01*
X74408724Y-51917166D01*
X74394683Y-51913649D01*
X74381054Y-51908772D01*
X74367969Y-51902583D01*
X74355553Y-51895142D01*
X74343927Y-51886519D01*
X74333202Y-51876798D01*
X74323481Y-51866073D01*
X74314858Y-51854447D01*
X74307417Y-51842031D01*
X74301228Y-51828946D01*
X74296351Y-51815317D01*
X74292834Y-51801276D01*
X74290710Y-51786958D01*
X74290000Y-51772500D01*
X74290000Y-51427500D01*
X74290710Y-51413042D01*
X74292834Y-51398724D01*
X74296351Y-51384683D01*
X74301228Y-51371054D01*
X74307417Y-51357969D01*
X74314858Y-51345553D01*
X74323481Y-51333927D01*
X74333202Y-51323202D01*
X74343927Y-51313481D01*
X74355553Y-51304858D01*
X74367969Y-51297417D01*
X74381054Y-51291228D01*
X74394683Y-51286351D01*
X74408724Y-51282834D01*
X74423042Y-51280710D01*
X74437500Y-51280000D01*
X74732500Y-51280000D01*
X74746958Y-51280710D01*
G37*
G36*
X73776958Y-51280710D02*
G01*
X73791276Y-51282834D01*
X73805317Y-51286351D01*
X73818946Y-51291228D01*
X73832031Y-51297417D01*
X73844447Y-51304858D01*
X73856073Y-51313481D01*
X73866798Y-51323202D01*
X73876519Y-51333927D01*
X73885142Y-51345553D01*
X73892583Y-51357969D01*
X73898772Y-51371054D01*
X73903649Y-51384683D01*
X73907166Y-51398724D01*
X73909290Y-51413042D01*
X73910000Y-51427500D01*
X73910000Y-51772500D01*
X73909290Y-51786958D01*
X73907166Y-51801276D01*
X73903649Y-51815317D01*
X73898772Y-51828946D01*
X73892583Y-51842031D01*
X73885142Y-51854447D01*
X73876519Y-51866073D01*
X73866798Y-51876798D01*
X73856073Y-51886519D01*
X73844447Y-51895142D01*
X73832031Y-51902583D01*
X73818946Y-51908772D01*
X73805317Y-51913649D01*
X73791276Y-51917166D01*
X73776958Y-51919290D01*
X73762500Y-51920000D01*
X73467500Y-51920000D01*
X73453042Y-51919290D01*
X73438724Y-51917166D01*
X73424683Y-51913649D01*
X73411054Y-51908772D01*
X73397969Y-51902583D01*
X73385553Y-51895142D01*
X73373927Y-51886519D01*
X73363202Y-51876798D01*
X73353481Y-51866073D01*
X73344858Y-51854447D01*
X73337417Y-51842031D01*
X73331228Y-51828946D01*
X73326351Y-51815317D01*
X73322834Y-51801276D01*
X73320710Y-51786958D01*
X73320000Y-51772500D01*
X73320000Y-51427500D01*
X73320710Y-51413042D01*
X73322834Y-51398724D01*
X73326351Y-51384683D01*
X73331228Y-51371054D01*
X73337417Y-51357969D01*
X73344858Y-51345553D01*
X73353481Y-51333927D01*
X73363202Y-51323202D01*
X73373927Y-51313481D01*
X73385553Y-51304858D01*
X73397969Y-51297417D01*
X73411054Y-51291228D01*
X73424683Y-51286351D01*
X73438724Y-51282834D01*
X73453042Y-51280710D01*
X73467500Y-51280000D01*
X73762500Y-51280000D01*
X73776958Y-51280710D01*
G37*
G36*
X65386958Y-56675710D02*
G01*
X65401276Y-56677834D01*
X65415317Y-56681351D01*
X65428946Y-56686228D01*
X65442031Y-56692417D01*
X65454447Y-56699858D01*
X65466073Y-56708481D01*
X65476798Y-56718202D01*
X65486519Y-56728927D01*
X65495142Y-56740553D01*
X65502583Y-56752969D01*
X65508772Y-56766054D01*
X65513649Y-56779683D01*
X65517166Y-56793724D01*
X65519290Y-56808042D01*
X65520000Y-56822500D01*
X65520000Y-57117500D01*
X65519290Y-57131958D01*
X65517166Y-57146276D01*
X65513649Y-57160317D01*
X65508772Y-57173946D01*
X65502583Y-57187031D01*
X65495142Y-57199447D01*
X65486519Y-57211073D01*
X65476798Y-57221798D01*
X65466073Y-57231519D01*
X65454447Y-57240142D01*
X65442031Y-57247583D01*
X65428946Y-57253772D01*
X65415317Y-57258649D01*
X65401276Y-57262166D01*
X65386958Y-57264290D01*
X65372500Y-57265000D01*
X65027500Y-57265000D01*
X65013042Y-57264290D01*
X64998724Y-57262166D01*
X64984683Y-57258649D01*
X64971054Y-57253772D01*
X64957969Y-57247583D01*
X64945553Y-57240142D01*
X64933927Y-57231519D01*
X64923202Y-57221798D01*
X64913481Y-57211073D01*
X64904858Y-57199447D01*
X64897417Y-57187031D01*
X64891228Y-57173946D01*
X64886351Y-57160317D01*
X64882834Y-57146276D01*
X64880710Y-57131958D01*
X64880000Y-57117500D01*
X64880000Y-56822500D01*
X64880710Y-56808042D01*
X64882834Y-56793724D01*
X64886351Y-56779683D01*
X64891228Y-56766054D01*
X64897417Y-56752969D01*
X64904858Y-56740553D01*
X64913481Y-56728927D01*
X64923202Y-56718202D01*
X64933927Y-56708481D01*
X64945553Y-56699858D01*
X64957969Y-56692417D01*
X64971054Y-56686228D01*
X64984683Y-56681351D01*
X64998724Y-56677834D01*
X65013042Y-56675710D01*
X65027500Y-56675000D01*
X65372500Y-56675000D01*
X65386958Y-56675710D01*
G37*
G36*
X65386958Y-55705710D02*
G01*
X65401276Y-55707834D01*
X65415317Y-55711351D01*
X65428946Y-55716228D01*
X65442031Y-55722417D01*
X65454447Y-55729858D01*
X65466073Y-55738481D01*
X65476798Y-55748202D01*
X65486519Y-55758927D01*
X65495142Y-55770553D01*
X65502583Y-55782969D01*
X65508772Y-55796054D01*
X65513649Y-55809683D01*
X65517166Y-55823724D01*
X65519290Y-55838042D01*
X65520000Y-55852500D01*
X65520000Y-56147500D01*
X65519290Y-56161958D01*
X65517166Y-56176276D01*
X65513649Y-56190317D01*
X65508772Y-56203946D01*
X65502583Y-56217031D01*
X65495142Y-56229447D01*
X65486519Y-56241073D01*
X65476798Y-56251798D01*
X65466073Y-56261519D01*
X65454447Y-56270142D01*
X65442031Y-56277583D01*
X65428946Y-56283772D01*
X65415317Y-56288649D01*
X65401276Y-56292166D01*
X65386958Y-56294290D01*
X65372500Y-56295000D01*
X65027500Y-56295000D01*
X65013042Y-56294290D01*
X64998724Y-56292166D01*
X64984683Y-56288649D01*
X64971054Y-56283772D01*
X64957969Y-56277583D01*
X64945553Y-56270142D01*
X64933927Y-56261519D01*
X64923202Y-56251798D01*
X64913481Y-56241073D01*
X64904858Y-56229447D01*
X64897417Y-56217031D01*
X64891228Y-56203946D01*
X64886351Y-56190317D01*
X64882834Y-56176276D01*
X64880710Y-56161958D01*
X64880000Y-56147500D01*
X64880000Y-55852500D01*
X64880710Y-55838042D01*
X64882834Y-55823724D01*
X64886351Y-55809683D01*
X64891228Y-55796054D01*
X64897417Y-55782969D01*
X64904858Y-55770553D01*
X64913481Y-55758927D01*
X64923202Y-55748202D01*
X64933927Y-55738481D01*
X64945553Y-55729858D01*
X64957969Y-55722417D01*
X64971054Y-55716228D01*
X64984683Y-55711351D01*
X64998724Y-55707834D01*
X65013042Y-55705710D01*
X65027500Y-55705000D01*
X65372500Y-55705000D01*
X65386958Y-55705710D01*
G37*
G36*
X65361958Y-57680710D02*
G01*
X65376276Y-57682834D01*
X65390317Y-57686351D01*
X65403946Y-57691228D01*
X65417031Y-57697417D01*
X65429447Y-57704858D01*
X65441073Y-57713481D01*
X65451798Y-57723202D01*
X65461519Y-57733927D01*
X65470142Y-57745553D01*
X65477583Y-57757969D01*
X65483772Y-57771054D01*
X65488649Y-57784683D01*
X65492166Y-57798724D01*
X65494290Y-57813042D01*
X65495000Y-57827500D01*
X65495000Y-58172500D01*
X65494290Y-58186958D01*
X65492166Y-58201276D01*
X65488649Y-58215317D01*
X65483772Y-58228946D01*
X65477583Y-58242031D01*
X65470142Y-58254447D01*
X65461519Y-58266073D01*
X65451798Y-58276798D01*
X65441073Y-58286519D01*
X65429447Y-58295142D01*
X65417031Y-58302583D01*
X65403946Y-58308772D01*
X65390317Y-58313649D01*
X65376276Y-58317166D01*
X65361958Y-58319290D01*
X65347500Y-58320000D01*
X65052500Y-58320000D01*
X65038042Y-58319290D01*
X65023724Y-58317166D01*
X65009683Y-58313649D01*
X64996054Y-58308772D01*
X64982969Y-58302583D01*
X64970553Y-58295142D01*
X64958927Y-58286519D01*
X64948202Y-58276798D01*
X64938481Y-58266073D01*
X64929858Y-58254447D01*
X64922417Y-58242031D01*
X64916228Y-58228946D01*
X64911351Y-58215317D01*
X64907834Y-58201276D01*
X64905710Y-58186958D01*
X64905000Y-58172500D01*
X64905000Y-57827500D01*
X64905710Y-57813042D01*
X64907834Y-57798724D01*
X64911351Y-57784683D01*
X64916228Y-57771054D01*
X64922417Y-57757969D01*
X64929858Y-57745553D01*
X64938481Y-57733927D01*
X64948202Y-57723202D01*
X64958927Y-57713481D01*
X64970553Y-57704858D01*
X64982969Y-57697417D01*
X64996054Y-57691228D01*
X65009683Y-57686351D01*
X65023724Y-57682834D01*
X65038042Y-57680710D01*
X65052500Y-57680000D01*
X65347500Y-57680000D01*
X65361958Y-57680710D01*
G37*
G36*
X66331958Y-57680710D02*
G01*
X66346276Y-57682834D01*
X66360317Y-57686351D01*
X66373946Y-57691228D01*
X66387031Y-57697417D01*
X66399447Y-57704858D01*
X66411073Y-57713481D01*
X66421798Y-57723202D01*
X66431519Y-57733927D01*
X66440142Y-57745553D01*
X66447583Y-57757969D01*
X66453772Y-57771054D01*
X66458649Y-57784683D01*
X66462166Y-57798724D01*
X66464290Y-57813042D01*
X66465000Y-57827500D01*
X66465000Y-58172500D01*
X66464290Y-58186958D01*
X66462166Y-58201276D01*
X66458649Y-58215317D01*
X66453772Y-58228946D01*
X66447583Y-58242031D01*
X66440142Y-58254447D01*
X66431519Y-58266073D01*
X66421798Y-58276798D01*
X66411073Y-58286519D01*
X66399447Y-58295142D01*
X66387031Y-58302583D01*
X66373946Y-58308772D01*
X66360317Y-58313649D01*
X66346276Y-58317166D01*
X66331958Y-58319290D01*
X66317500Y-58320000D01*
X66022500Y-58320000D01*
X66008042Y-58319290D01*
X65993724Y-58317166D01*
X65979683Y-58313649D01*
X65966054Y-58308772D01*
X65952969Y-58302583D01*
X65940553Y-58295142D01*
X65928927Y-58286519D01*
X65918202Y-58276798D01*
X65908481Y-58266073D01*
X65899858Y-58254447D01*
X65892417Y-58242031D01*
X65886228Y-58228946D01*
X65881351Y-58215317D01*
X65877834Y-58201276D01*
X65875710Y-58186958D01*
X65875000Y-58172500D01*
X65875000Y-57827500D01*
X65875710Y-57813042D01*
X65877834Y-57798724D01*
X65881351Y-57784683D01*
X65886228Y-57771054D01*
X65892417Y-57757969D01*
X65899858Y-57745553D01*
X65908481Y-57733927D01*
X65918202Y-57723202D01*
X65928927Y-57713481D01*
X65940553Y-57704858D01*
X65952969Y-57697417D01*
X65966054Y-57691228D01*
X65979683Y-57686351D01*
X65993724Y-57682834D01*
X66008042Y-57680710D01*
X66022500Y-57680000D01*
X66317500Y-57680000D01*
X66331958Y-57680710D01*
G37*
G36*
X67353833Y-62569883D02*
G01*
X67368151Y-62572007D01*
X67382192Y-62575524D01*
X67395821Y-62580401D01*
X67408906Y-62586590D01*
X67421322Y-62594031D01*
X67432948Y-62602654D01*
X67443673Y-62612375D01*
X67687625Y-62856327D01*
X67697346Y-62867052D01*
X67705969Y-62878678D01*
X67713410Y-62891094D01*
X67719599Y-62904179D01*
X67724476Y-62917808D01*
X67727993Y-62931849D01*
X67730117Y-62946167D01*
X67730827Y-62960625D01*
X67730117Y-62975083D01*
X67727993Y-62989401D01*
X67724476Y-63003442D01*
X67719599Y-63017071D01*
X67713410Y-63030156D01*
X67705969Y-63042572D01*
X67697346Y-63054198D01*
X67687625Y-63064923D01*
X67479029Y-63273519D01*
X67468304Y-63283240D01*
X67456678Y-63291863D01*
X67444262Y-63299304D01*
X67431177Y-63305493D01*
X67417548Y-63310370D01*
X67403507Y-63313887D01*
X67389189Y-63316011D01*
X67374731Y-63316721D01*
X67360273Y-63316011D01*
X67345955Y-63313887D01*
X67331914Y-63310370D01*
X67318285Y-63305493D01*
X67305200Y-63299304D01*
X67292784Y-63291863D01*
X67281158Y-63283240D01*
X67270433Y-63273519D01*
X67026481Y-63029567D01*
X67016760Y-63018842D01*
X67008137Y-63007216D01*
X67000696Y-62994800D01*
X66994507Y-62981715D01*
X66989630Y-62968086D01*
X66986113Y-62954045D01*
X66983989Y-62939727D01*
X66983279Y-62925269D01*
X66983989Y-62910811D01*
X66986113Y-62896493D01*
X66989630Y-62882452D01*
X66994507Y-62868823D01*
X67000696Y-62855738D01*
X67008137Y-62843322D01*
X67016760Y-62831696D01*
X67026481Y-62820971D01*
X67235077Y-62612375D01*
X67245802Y-62602654D01*
X67257428Y-62594031D01*
X67269844Y-62586590D01*
X67282929Y-62580401D01*
X67296558Y-62575524D01*
X67310599Y-62572007D01*
X67324917Y-62569883D01*
X67339375Y-62569173D01*
X67353833Y-62569883D01*
G37*
G36*
X68039727Y-61883989D02*
G01*
X68054045Y-61886113D01*
X68068086Y-61889630D01*
X68081715Y-61894507D01*
X68094800Y-61900696D01*
X68107216Y-61908137D01*
X68118842Y-61916760D01*
X68129567Y-61926481D01*
X68373519Y-62170433D01*
X68383240Y-62181158D01*
X68391863Y-62192784D01*
X68399304Y-62205200D01*
X68405493Y-62218285D01*
X68410370Y-62231914D01*
X68413887Y-62245955D01*
X68416011Y-62260273D01*
X68416721Y-62274731D01*
X68416011Y-62289189D01*
X68413887Y-62303507D01*
X68410370Y-62317548D01*
X68405493Y-62331177D01*
X68399304Y-62344262D01*
X68391863Y-62356678D01*
X68383240Y-62368304D01*
X68373519Y-62379029D01*
X68164923Y-62587625D01*
X68154198Y-62597346D01*
X68142572Y-62605969D01*
X68130156Y-62613410D01*
X68117071Y-62619599D01*
X68103442Y-62624476D01*
X68089401Y-62627993D01*
X68075083Y-62630117D01*
X68060625Y-62630827D01*
X68046167Y-62630117D01*
X68031849Y-62627993D01*
X68017808Y-62624476D01*
X68004179Y-62619599D01*
X67991094Y-62613410D01*
X67978678Y-62605969D01*
X67967052Y-62597346D01*
X67956327Y-62587625D01*
X67712375Y-62343673D01*
X67702654Y-62332948D01*
X67694031Y-62321322D01*
X67686590Y-62308906D01*
X67680401Y-62295821D01*
X67675524Y-62282192D01*
X67672007Y-62268151D01*
X67669883Y-62253833D01*
X67669173Y-62239375D01*
X67669883Y-62224917D01*
X67672007Y-62210599D01*
X67675524Y-62196558D01*
X67680401Y-62182929D01*
X67686590Y-62169844D01*
X67694031Y-62157428D01*
X67702654Y-62145802D01*
X67712375Y-62135077D01*
X67920971Y-61926481D01*
X67931696Y-61916760D01*
X67943322Y-61908137D01*
X67955738Y-61900696D01*
X67968823Y-61894507D01*
X67982452Y-61889630D01*
X67996493Y-61886113D01*
X68010811Y-61883989D01*
X68025269Y-61883279D01*
X68039727Y-61883989D01*
G37*
G36*
X70586958Y-61090710D02*
G01*
X70601276Y-61092834D01*
X70615317Y-61096351D01*
X70628946Y-61101228D01*
X70642031Y-61107417D01*
X70654447Y-61114858D01*
X70666073Y-61123481D01*
X70676798Y-61133202D01*
X70686519Y-61143927D01*
X70695142Y-61155553D01*
X70702583Y-61167969D01*
X70708772Y-61181054D01*
X70713649Y-61194683D01*
X70717166Y-61208724D01*
X70719290Y-61223042D01*
X70720000Y-61237500D01*
X70720000Y-61532500D01*
X70719290Y-61546958D01*
X70717166Y-61561276D01*
X70713649Y-61575317D01*
X70708772Y-61588946D01*
X70702583Y-61602031D01*
X70695142Y-61614447D01*
X70686519Y-61626073D01*
X70676798Y-61636798D01*
X70666073Y-61646519D01*
X70654447Y-61655142D01*
X70642031Y-61662583D01*
X70628946Y-61668772D01*
X70615317Y-61673649D01*
X70601276Y-61677166D01*
X70586958Y-61679290D01*
X70572500Y-61680000D01*
X70227500Y-61680000D01*
X70213042Y-61679290D01*
X70198724Y-61677166D01*
X70184683Y-61673649D01*
X70171054Y-61668772D01*
X70157969Y-61662583D01*
X70145553Y-61655142D01*
X70133927Y-61646519D01*
X70123202Y-61636798D01*
X70113481Y-61626073D01*
X70104858Y-61614447D01*
X70097417Y-61602031D01*
X70091228Y-61588946D01*
X70086351Y-61575317D01*
X70082834Y-61561276D01*
X70080710Y-61546958D01*
X70080000Y-61532500D01*
X70080000Y-61237500D01*
X70080710Y-61223042D01*
X70082834Y-61208724D01*
X70086351Y-61194683D01*
X70091228Y-61181054D01*
X70097417Y-61167969D01*
X70104858Y-61155553D01*
X70113481Y-61143927D01*
X70123202Y-61133202D01*
X70133927Y-61123481D01*
X70145553Y-61114858D01*
X70157969Y-61107417D01*
X70171054Y-61101228D01*
X70184683Y-61096351D01*
X70198724Y-61092834D01*
X70213042Y-61090710D01*
X70227500Y-61090000D01*
X70572500Y-61090000D01*
X70586958Y-61090710D01*
G37*
G36*
X70586958Y-60120710D02*
G01*
X70601276Y-60122834D01*
X70615317Y-60126351D01*
X70628946Y-60131228D01*
X70642031Y-60137417D01*
X70654447Y-60144858D01*
X70666073Y-60153481D01*
X70676798Y-60163202D01*
X70686519Y-60173927D01*
X70695142Y-60185553D01*
X70702583Y-60197969D01*
X70708772Y-60211054D01*
X70713649Y-60224683D01*
X70717166Y-60238724D01*
X70719290Y-60253042D01*
X70720000Y-60267500D01*
X70720000Y-60562500D01*
X70719290Y-60576958D01*
X70717166Y-60591276D01*
X70713649Y-60605317D01*
X70708772Y-60618946D01*
X70702583Y-60632031D01*
X70695142Y-60644447D01*
X70686519Y-60656073D01*
X70676798Y-60666798D01*
X70666073Y-60676519D01*
X70654447Y-60685142D01*
X70642031Y-60692583D01*
X70628946Y-60698772D01*
X70615317Y-60703649D01*
X70601276Y-60707166D01*
X70586958Y-60709290D01*
X70572500Y-60710000D01*
X70227500Y-60710000D01*
X70213042Y-60709290D01*
X70198724Y-60707166D01*
X70184683Y-60703649D01*
X70171054Y-60698772D01*
X70157969Y-60692583D01*
X70145553Y-60685142D01*
X70133927Y-60676519D01*
X70123202Y-60666798D01*
X70113481Y-60656073D01*
X70104858Y-60644447D01*
X70097417Y-60632031D01*
X70091228Y-60618946D01*
X70086351Y-60605317D01*
X70082834Y-60591276D01*
X70080710Y-60576958D01*
X70080000Y-60562500D01*
X70080000Y-60267500D01*
X70080710Y-60253042D01*
X70082834Y-60238724D01*
X70086351Y-60224683D01*
X70091228Y-60211054D01*
X70097417Y-60197969D01*
X70104858Y-60185553D01*
X70113481Y-60173927D01*
X70123202Y-60163202D01*
X70133927Y-60153481D01*
X70145553Y-60144858D01*
X70157969Y-60137417D01*
X70171054Y-60131228D01*
X70184683Y-60126351D01*
X70198724Y-60122834D01*
X70213042Y-60120710D01*
X70227500Y-60120000D01*
X70572500Y-60120000D01*
X70586958Y-60120710D01*
G37*
G36*
X64675083Y-62169883D02*
G01*
X64689401Y-62172007D01*
X64703442Y-62175524D01*
X64717071Y-62180401D01*
X64730156Y-62186590D01*
X64742572Y-62194031D01*
X64754198Y-62202654D01*
X64764923Y-62212375D01*
X64973519Y-62420971D01*
X64983240Y-62431696D01*
X64991863Y-62443322D01*
X64999304Y-62455738D01*
X65005493Y-62468823D01*
X65010370Y-62482452D01*
X65013887Y-62496493D01*
X65016011Y-62510811D01*
X65016721Y-62525269D01*
X65016011Y-62539727D01*
X65013887Y-62554045D01*
X65010370Y-62568086D01*
X65005493Y-62581715D01*
X64999304Y-62594800D01*
X64991863Y-62607216D01*
X64983240Y-62618842D01*
X64973519Y-62629567D01*
X64729567Y-62873519D01*
X64718842Y-62883240D01*
X64707216Y-62891863D01*
X64694800Y-62899304D01*
X64681715Y-62905493D01*
X64668086Y-62910370D01*
X64654045Y-62913887D01*
X64639727Y-62916011D01*
X64625269Y-62916721D01*
X64610811Y-62916011D01*
X64596493Y-62913887D01*
X64582452Y-62910370D01*
X64568823Y-62905493D01*
X64555738Y-62899304D01*
X64543322Y-62891863D01*
X64531696Y-62883240D01*
X64520971Y-62873519D01*
X64312375Y-62664923D01*
X64302654Y-62654198D01*
X64294031Y-62642572D01*
X64286590Y-62630156D01*
X64280401Y-62617071D01*
X64275524Y-62603442D01*
X64272007Y-62589401D01*
X64269883Y-62575083D01*
X64269173Y-62560625D01*
X64269883Y-62546167D01*
X64272007Y-62531849D01*
X64275524Y-62517808D01*
X64280401Y-62504179D01*
X64286590Y-62491094D01*
X64294031Y-62478678D01*
X64302654Y-62467052D01*
X64312375Y-62456327D01*
X64556327Y-62212375D01*
X64567052Y-62202654D01*
X64578678Y-62194031D01*
X64591094Y-62186590D01*
X64604179Y-62180401D01*
X64617808Y-62175524D01*
X64631849Y-62172007D01*
X64646167Y-62169883D01*
X64660625Y-62169173D01*
X64675083Y-62169883D01*
G37*
G36*
X63989189Y-61483989D02*
G01*
X64003507Y-61486113D01*
X64017548Y-61489630D01*
X64031177Y-61494507D01*
X64044262Y-61500696D01*
X64056678Y-61508137D01*
X64068304Y-61516760D01*
X64079029Y-61526481D01*
X64287625Y-61735077D01*
X64297346Y-61745802D01*
X64305969Y-61757428D01*
X64313410Y-61769844D01*
X64319599Y-61782929D01*
X64324476Y-61796558D01*
X64327993Y-61810599D01*
X64330117Y-61824917D01*
X64330827Y-61839375D01*
X64330117Y-61853833D01*
X64327993Y-61868151D01*
X64324476Y-61882192D01*
X64319599Y-61895821D01*
X64313410Y-61908906D01*
X64305969Y-61921322D01*
X64297346Y-61932948D01*
X64287625Y-61943673D01*
X64043673Y-62187625D01*
X64032948Y-62197346D01*
X64021322Y-62205969D01*
X64008906Y-62213410D01*
X63995821Y-62219599D01*
X63982192Y-62224476D01*
X63968151Y-62227993D01*
X63953833Y-62230117D01*
X63939375Y-62230827D01*
X63924917Y-62230117D01*
X63910599Y-62227993D01*
X63896558Y-62224476D01*
X63882929Y-62219599D01*
X63869844Y-62213410D01*
X63857428Y-62205969D01*
X63845802Y-62197346D01*
X63835077Y-62187625D01*
X63626481Y-61979029D01*
X63616760Y-61968304D01*
X63608137Y-61956678D01*
X63600696Y-61944262D01*
X63594507Y-61931177D01*
X63589630Y-61917548D01*
X63586113Y-61903507D01*
X63583989Y-61889189D01*
X63583279Y-61874731D01*
X63583989Y-61860273D01*
X63586113Y-61845955D01*
X63589630Y-61831914D01*
X63594507Y-61818285D01*
X63600696Y-61805200D01*
X63608137Y-61792784D01*
X63616760Y-61781158D01*
X63626481Y-61770433D01*
X63870433Y-61526481D01*
X63881158Y-61516760D01*
X63892784Y-61508137D01*
X63905200Y-61500696D01*
X63918285Y-61494507D01*
X63931914Y-61489630D01*
X63945955Y-61486113D01*
X63960273Y-61483989D01*
X63974731Y-61483279D01*
X63989189Y-61483989D01*
G37*
G36*
X71586958Y-61090710D02*
G01*
X71601276Y-61092834D01*
X71615317Y-61096351D01*
X71628946Y-61101228D01*
X71642031Y-61107417D01*
X71654447Y-61114858D01*
X71666073Y-61123481D01*
X71676798Y-61133202D01*
X71686519Y-61143927D01*
X71695142Y-61155553D01*
X71702583Y-61167969D01*
X71708772Y-61181054D01*
X71713649Y-61194683D01*
X71717166Y-61208724D01*
X71719290Y-61223042D01*
X71720000Y-61237500D01*
X71720000Y-61532500D01*
X71719290Y-61546958D01*
X71717166Y-61561276D01*
X71713649Y-61575317D01*
X71708772Y-61588946D01*
X71702583Y-61602031D01*
X71695142Y-61614447D01*
X71686519Y-61626073D01*
X71676798Y-61636798D01*
X71666073Y-61646519D01*
X71654447Y-61655142D01*
X71642031Y-61662583D01*
X71628946Y-61668772D01*
X71615317Y-61673649D01*
X71601276Y-61677166D01*
X71586958Y-61679290D01*
X71572500Y-61680000D01*
X71227500Y-61680000D01*
X71213042Y-61679290D01*
X71198724Y-61677166D01*
X71184683Y-61673649D01*
X71171054Y-61668772D01*
X71157969Y-61662583D01*
X71145553Y-61655142D01*
X71133927Y-61646519D01*
X71123202Y-61636798D01*
X71113481Y-61626073D01*
X71104858Y-61614447D01*
X71097417Y-61602031D01*
X71091228Y-61588946D01*
X71086351Y-61575317D01*
X71082834Y-61561276D01*
X71080710Y-61546958D01*
X71080000Y-61532500D01*
X71080000Y-61237500D01*
X71080710Y-61223042D01*
X71082834Y-61208724D01*
X71086351Y-61194683D01*
X71091228Y-61181054D01*
X71097417Y-61167969D01*
X71104858Y-61155553D01*
X71113481Y-61143927D01*
X71123202Y-61133202D01*
X71133927Y-61123481D01*
X71145553Y-61114858D01*
X71157969Y-61107417D01*
X71171054Y-61101228D01*
X71184683Y-61096351D01*
X71198724Y-61092834D01*
X71213042Y-61090710D01*
X71227500Y-61090000D01*
X71572500Y-61090000D01*
X71586958Y-61090710D01*
G37*
G36*
X71586958Y-60120710D02*
G01*
X71601276Y-60122834D01*
X71615317Y-60126351D01*
X71628946Y-60131228D01*
X71642031Y-60137417D01*
X71654447Y-60144858D01*
X71666073Y-60153481D01*
X71676798Y-60163202D01*
X71686519Y-60173927D01*
X71695142Y-60185553D01*
X71702583Y-60197969D01*
X71708772Y-60211054D01*
X71713649Y-60224683D01*
X71717166Y-60238724D01*
X71719290Y-60253042D01*
X71720000Y-60267500D01*
X71720000Y-60562500D01*
X71719290Y-60576958D01*
X71717166Y-60591276D01*
X71713649Y-60605317D01*
X71708772Y-60618946D01*
X71702583Y-60632031D01*
X71695142Y-60644447D01*
X71686519Y-60656073D01*
X71676798Y-60666798D01*
X71666073Y-60676519D01*
X71654447Y-60685142D01*
X71642031Y-60692583D01*
X71628946Y-60698772D01*
X71615317Y-60703649D01*
X71601276Y-60707166D01*
X71586958Y-60709290D01*
X71572500Y-60710000D01*
X71227500Y-60710000D01*
X71213042Y-60709290D01*
X71198724Y-60707166D01*
X71184683Y-60703649D01*
X71171054Y-60698772D01*
X71157969Y-60692583D01*
X71145553Y-60685142D01*
X71133927Y-60676519D01*
X71123202Y-60666798D01*
X71113481Y-60656073D01*
X71104858Y-60644447D01*
X71097417Y-60632031D01*
X71091228Y-60618946D01*
X71086351Y-60605317D01*
X71082834Y-60591276D01*
X71080710Y-60576958D01*
X71080000Y-60562500D01*
X71080000Y-60267500D01*
X71080710Y-60253042D01*
X71082834Y-60238724D01*
X71086351Y-60224683D01*
X71091228Y-60211054D01*
X71097417Y-60197969D01*
X71104858Y-60185553D01*
X71113481Y-60173927D01*
X71123202Y-60163202D01*
X71133927Y-60153481D01*
X71145553Y-60144858D01*
X71157969Y-60137417D01*
X71171054Y-60131228D01*
X71184683Y-60126351D01*
X71198724Y-60122834D01*
X71213042Y-60120710D01*
X71227500Y-60120000D01*
X71572500Y-60120000D01*
X71586958Y-60120710D01*
G37*
G36*
X68386958Y-58690710D02*
G01*
X68401276Y-58692834D01*
X68415317Y-58696351D01*
X68428946Y-58701228D01*
X68442031Y-58707417D01*
X68454447Y-58714858D01*
X68466073Y-58723481D01*
X68476798Y-58733202D01*
X68486519Y-58743927D01*
X68495142Y-58755553D01*
X68502583Y-58767969D01*
X68508772Y-58781054D01*
X68513649Y-58794683D01*
X68517166Y-58808724D01*
X68519290Y-58823042D01*
X68520000Y-58837500D01*
X68520000Y-59132500D01*
X68519290Y-59146958D01*
X68517166Y-59161276D01*
X68513649Y-59175317D01*
X68508772Y-59188946D01*
X68502583Y-59202031D01*
X68495142Y-59214447D01*
X68486519Y-59226073D01*
X68476798Y-59236798D01*
X68466073Y-59246519D01*
X68454447Y-59255142D01*
X68442031Y-59262583D01*
X68428946Y-59268772D01*
X68415317Y-59273649D01*
X68401276Y-59277166D01*
X68386958Y-59279290D01*
X68372500Y-59280000D01*
X68027500Y-59280000D01*
X68013042Y-59279290D01*
X67998724Y-59277166D01*
X67984683Y-59273649D01*
X67971054Y-59268772D01*
X67957969Y-59262583D01*
X67945553Y-59255142D01*
X67933927Y-59246519D01*
X67923202Y-59236798D01*
X67913481Y-59226073D01*
X67904858Y-59214447D01*
X67897417Y-59202031D01*
X67891228Y-59188946D01*
X67886351Y-59175317D01*
X67882834Y-59161276D01*
X67880710Y-59146958D01*
X67880000Y-59132500D01*
X67880000Y-58837500D01*
X67880710Y-58823042D01*
X67882834Y-58808724D01*
X67886351Y-58794683D01*
X67891228Y-58781054D01*
X67897417Y-58767969D01*
X67904858Y-58755553D01*
X67913481Y-58743927D01*
X67923202Y-58733202D01*
X67933927Y-58723481D01*
X67945553Y-58714858D01*
X67957969Y-58707417D01*
X67971054Y-58701228D01*
X67984683Y-58696351D01*
X67998724Y-58692834D01*
X68013042Y-58690710D01*
X68027500Y-58690000D01*
X68372500Y-58690000D01*
X68386958Y-58690710D01*
G37*
G36*
X68386958Y-57720710D02*
G01*
X68401276Y-57722834D01*
X68415317Y-57726351D01*
X68428946Y-57731228D01*
X68442031Y-57737417D01*
X68454447Y-57744858D01*
X68466073Y-57753481D01*
X68476798Y-57763202D01*
X68486519Y-57773927D01*
X68495142Y-57785553D01*
X68502583Y-57797969D01*
X68508772Y-57811054D01*
X68513649Y-57824683D01*
X68517166Y-57838724D01*
X68519290Y-57853042D01*
X68520000Y-57867500D01*
X68520000Y-58162500D01*
X68519290Y-58176958D01*
X68517166Y-58191276D01*
X68513649Y-58205317D01*
X68508772Y-58218946D01*
X68502583Y-58232031D01*
X68495142Y-58244447D01*
X68486519Y-58256073D01*
X68476798Y-58266798D01*
X68466073Y-58276519D01*
X68454447Y-58285142D01*
X68442031Y-58292583D01*
X68428946Y-58298772D01*
X68415317Y-58303649D01*
X68401276Y-58307166D01*
X68386958Y-58309290D01*
X68372500Y-58310000D01*
X68027500Y-58310000D01*
X68013042Y-58309290D01*
X67998724Y-58307166D01*
X67984683Y-58303649D01*
X67971054Y-58298772D01*
X67957969Y-58292583D01*
X67945553Y-58285142D01*
X67933927Y-58276519D01*
X67923202Y-58266798D01*
X67913481Y-58256073D01*
X67904858Y-58244447D01*
X67897417Y-58232031D01*
X67891228Y-58218946D01*
X67886351Y-58205317D01*
X67882834Y-58191276D01*
X67880710Y-58176958D01*
X67880000Y-58162500D01*
X67880000Y-57867500D01*
X67880710Y-57853042D01*
X67882834Y-57838724D01*
X67886351Y-57824683D01*
X67891228Y-57811054D01*
X67897417Y-57797969D01*
X67904858Y-57785553D01*
X67913481Y-57773927D01*
X67923202Y-57763202D01*
X67933927Y-57753481D01*
X67945553Y-57744858D01*
X67957969Y-57737417D01*
X67971054Y-57731228D01*
X67984683Y-57726351D01*
X67998724Y-57722834D01*
X68013042Y-57720710D01*
X68027500Y-57720000D01*
X68372500Y-57720000D01*
X68386958Y-57720710D01*
G37*
D11*
X65457300Y-54449400D03*
X64857300Y-54449400D03*
X65457300Y-53950600D03*
X64857300Y-53950600D03*
X64342300Y-54200000D03*
D12*
X79900000Y-79285000D03*
X79900000Y-57315000D03*
D10*
G36*
X65363604Y-62189949D02*
G01*
X66070710Y-61482843D01*
X66919238Y-62331371D01*
X66212132Y-63038477D01*
X65363604Y-62189949D01*
G37*
G36*
X66282843Y-61270710D02*
G01*
X66989949Y-60563604D01*
X67838477Y-61412132D01*
X67131371Y-62119238D01*
X66282843Y-61270710D01*
G37*
G36*
X65080762Y-60068629D02*
G01*
X65787868Y-59361523D01*
X66636396Y-60210051D01*
X65929290Y-60917157D01*
X65080762Y-60068629D01*
G37*
G36*
X64161523Y-60987868D02*
G01*
X64868629Y-60280762D01*
X65717157Y-61129290D01*
X65010051Y-61836396D01*
X64161523Y-60987868D01*
G37*
D13*
X84750000Y-50700000D03*
X76050000Y-50700000D03*
D14*
X71950000Y-47050000D03*
X71950000Y-48950000D03*
X74050000Y-48000000D03*
D15*
X72068628Y-58700000D03*
X69568628Y-58700000D03*
D16*
X71600000Y-56750000D03*
X71200000Y-56750000D03*
X70800000Y-56750000D03*
X70400000Y-56750000D03*
X70000000Y-56750000D03*
X69600000Y-56750000D03*
X69200000Y-56750000D03*
X68800000Y-56750000D03*
X68400000Y-56750000D03*
X68000000Y-56750000D03*
X67600000Y-56750000D03*
D17*
X66450000Y-56000000D03*
X66450000Y-55600000D03*
X66450000Y-55200000D03*
X66450000Y-54800000D03*
X66450000Y-54400000D03*
X66450000Y-54000000D03*
X66450000Y-53600000D03*
X66450000Y-53200000D03*
X66450000Y-52800000D03*
X66450000Y-52400000D03*
X66450000Y-52000000D03*
D16*
X67200000Y-50850000D03*
X67600000Y-50850000D03*
X68000000Y-50850000D03*
X68400000Y-50850000D03*
X68800000Y-50850000D03*
X69200000Y-50850000D03*
X69600000Y-50850000D03*
X70000000Y-50850000D03*
X70400000Y-50850000D03*
X70800000Y-50850000D03*
X71200000Y-50850000D03*
D17*
X72350000Y-51600000D03*
X72350000Y-52000000D03*
X72350000Y-52400000D03*
X72350000Y-52800000D03*
X72350000Y-53200000D03*
X72350000Y-53600000D03*
X72350000Y-54000000D03*
X72350000Y-54400000D03*
X72350000Y-54800000D03*
X72350000Y-55200000D03*
X72350000Y-55600000D03*
D18*
X69400000Y-53800000D03*
D16*
X67200000Y-56750000D03*
D17*
X66450000Y-51600000D03*
X72350000Y-56000000D03*
D16*
X71600000Y-50850000D03*
M02*
