G04 #@! TF.GenerationSoftware,KiCad,Pcbnew,(5.1.5-0-10_14)*
G04 #@! TF.CreationDate,2020-05-20T19:47:04+12:00*
G04 #@! TF.ProjectId,bluetooth-tracker,626c7565-746f-46f7-9468-2d747261636b,A*
G04 #@! TF.SameCoordinates,Original*
G04 #@! TF.FileFunction,Legend,Top*
G04 #@! TF.FilePolarity,Positive*
%FSLAX46Y46*%
G04 Gerber Fmt 4.6, Leading zero omitted, Abs format (unit mm)*
G04 Created by KiCad (PCBNEW (5.1.5-0-10_14)) date 2020-05-20 19:47:04*
%MOMM*%
%LPD*%
G04 APERTURE LIST*
%ADD10C,0.100000*%
%ADD11C,0.127000*%
G04 APERTURE END LIST*
D10*
X69400000Y-72000000D02*
G75*
G03X69400000Y-72000000I-5000000J0D01*
G01*
X60400000Y-46000001D02*
X85400000Y-46000001D01*
X85399999Y-81000000D02*
X64400000Y-81000000D01*
X90399999Y-76000002D02*
G75*
G02X85399999Y-81000000I-4999999J1D01*
G01*
X90400000Y-51000001D02*
X90400000Y-76000000D01*
X85400000Y-46000001D02*
G75*
G02X90400000Y-51000001I0J-5000000D01*
G01*
X55400001Y-51000001D02*
G75*
G02X60400001Y-46000001I5000000J0D01*
G01*
X55400000Y-71999999D02*
X55400000Y-51000001D01*
X64399999Y-81000000D02*
G75*
G02X55400000Y-71999999I1J9000000D01*
G01*
D11*
X63949390Y-60987868D02*
X64302944Y-61341421D01*
X63949390Y-60987868D02*
X64302944Y-60634315D01*
X65787868Y-59149390D02*
X65434315Y-59502944D01*
X65787868Y-59149390D02*
X66141421Y-59502944D01*
X68050610Y-61412132D02*
X67697056Y-61058579D01*
X68050610Y-61412132D02*
X67697056Y-61765685D01*
X66212132Y-63250610D02*
X65858579Y-62897056D01*
X66212132Y-63250610D02*
X66565685Y-62897056D01*
D10*
X77400000Y-54200000D02*
G75*
G03X77400000Y-54200000I-500000J0D01*
G01*
X75900000Y-46200000D02*
X76400000Y-46200000D01*
X75900000Y-46200000D02*
X75900000Y-46700000D01*
X75900000Y-55200000D02*
X75900000Y-54700000D01*
X75900000Y-55200000D02*
X76400000Y-55200000D01*
X84900000Y-46200000D02*
X84900000Y-46700000D01*
X84900000Y-46200000D02*
X84400000Y-46200000D01*
X84900000Y-55200000D02*
X84900000Y-54700000D01*
X84900000Y-55200000D02*
X84400000Y-55200000D01*
X73825000Y-46350000D02*
X73825000Y-46650000D01*
X73450000Y-46350000D02*
X73825000Y-46350000D01*
X73825000Y-49650000D02*
X73375000Y-49650000D01*
X73825000Y-49350000D02*
X73825000Y-49650000D01*
X73825000Y-49425000D02*
X73825000Y-49300000D01*
X72175000Y-49650000D02*
X72175000Y-49300000D01*
X72650000Y-49650000D02*
X72175000Y-49650000D01*
X72175000Y-46675000D02*
X71400000Y-46675000D01*
X72175000Y-46625000D02*
X72175000Y-46675000D01*
X72550000Y-46350000D02*
X72175000Y-46625000D01*
X72825000Y-46350000D02*
X72550000Y-46350000D01*
X70818628Y-59600000D02*
X70518628Y-59600000D01*
X70818628Y-59600000D02*
X71118628Y-59600000D01*
X70818628Y-57800000D02*
X70518628Y-57800000D01*
X70818628Y-57800000D02*
X71118628Y-57800000D01*
X72718628Y-59400000D02*
X72718628Y-58000000D01*
X72500000Y-56200000D02*
X72650000Y-56200000D01*
X72500000Y-56250000D02*
X72500000Y-56200000D01*
X71850000Y-56900000D02*
X72500000Y-56250000D01*
X66300000Y-56900000D02*
X66300000Y-56300000D01*
X66800000Y-56900000D02*
X66300000Y-56900000D01*
X66300000Y-50700000D02*
X66300000Y-51250000D01*
X66850000Y-50700000D02*
X66300000Y-50700000D01*
X72500000Y-50700000D02*
X71900000Y-50700000D01*
X72500000Y-51250000D02*
X72500000Y-50700000D01*
M02*
